<svg width="1440" height="535" viewBox="0 0 1440 535" fill="none" xmlns="http://www.w3.org/2000/svg">
<path d="M1445 196.506C1453 130.717 1485 5.50553 1512.5 0.73053L1460 604.503H-20V342.939C63.6667 402.184 293.823 511.656 520.5 511.656C718.5 511.656 791.5 482.137 855.5 454.356C958.5 409.644 993.5 388.784 1146 454.356C1332.5 534.546 1419.57 405.6 1445 196.506Z" fill="#B7EE81"/>
<path d="M1445 196.506C1453 130.717 1485 5.50553 1512.5 0.73053L1460 604.503H-20V342.939C63.6667 402.184 293.823 511.656 520.5 511.656C718.5 511.656 791.5 482.137 855.5 454.356C958.5 409.644 993.5 388.784 1146 454.356C1332.5 534.546 1419.57 405.6 1445 196.506Z" fill="white" fill-opacity="0.65"/>
</svg>
