<svg width="372" height="354" viewBox="0 0 372 354" fill="none" xmlns="http://www.w3.org/2000/svg">
<ellipse cx="156.605" cy="152.336" rx="156.605" ry="152.336" transform="matrix(-1 0 0 1 346.148 0)" fill="#F1F380"/>
<ellipse cx="156.605" cy="152.336" rx="156.605" ry="152.336" transform="matrix(-1 0 0 1 346.148 0)" fill="white" fill-opacity="0.65"/>
<path fill-rule="evenodd" clip-rule="evenodd" d="M255.8 170.623C236.273 161.638 224.635 185.201 234.456 198.321C246.44 214.331 252.579 232.753 255.998 238.303C258.881 242.986 266.781 254.4 276.294 249.139C285.048 244.297 280.277 225.293 280.277 225.293C280.277 225.293 279.89 181.706 255.8 170.623Z" fill="#B7EE81"/>
<path fill-rule="evenodd" clip-rule="evenodd" d="M255.8 170.623C236.273 161.638 224.635 185.201 234.456 198.321C246.44 214.331 252.579 232.753 255.998 238.303C258.881 242.986 266.781 254.4 276.294 249.139C285.048 244.297 280.277 225.293 280.277 225.293C280.277 225.293 279.89 181.706 255.8 170.623Z" fill="white" fill-opacity="0.2"/>
<path fill-rule="evenodd" clip-rule="evenodd" d="M244.743 246.142C252.251 254.701 263.086 271.919 269.875 265.889C273.989 262.234 268.489 244.927 253.434 235.51C240.628 227.5 237.234 237.582 244.743 246.142Z" fill="#B7EE81"/>
<path fill-rule="evenodd" clip-rule="evenodd" d="M244.743 246.142C252.251 254.701 263.086 271.919 269.875 265.889C273.989 262.234 268.489 244.927 253.434 235.51C240.628 227.5 237.234 237.582 244.743 246.142Z" fill="white" fill-opacity="0.2"/>
<path fill-rule="evenodd" clip-rule="evenodd" d="M314.535 245.48C321.174 236.768 323.597 224.265 316.188 221.059C309.083 217.985 297.315 225.554 291.864 240.119C286.414 254.685 283.269 265.157 288.601 266.978C297.349 269.966 305.767 256.987 314.535 245.48Z" fill="#B7EE81"/>
<path fill-rule="evenodd" clip-rule="evenodd" d="M314.535 245.48C321.174 236.768 323.597 224.265 316.188 221.059C309.083 217.985 297.315 225.554 291.864 240.119C286.414 254.685 283.269 265.157 288.601 266.978C297.349 269.966 305.767 256.987 314.535 245.48Z" fill="white" fill-opacity="0.2"/>
<path fill-rule="evenodd" clip-rule="evenodd" d="M316.593 186.744C313.738 184.875 310.145 184.448 306.868 185.47C302.294 186.895 295.352 191.138 288.482 203.318C279.513 219.219 274.844 236.652 275.767 247.695C276.37 254.916 285.516 258.029 290.633 252.764C292.983 250.346 295.469 246.618 297.901 240.963C307.691 218.207 316.844 203.946 317.935 202.514C320.848 198.694 322.93 190.892 316.593 186.744Z" fill="#B7EE81"/>
<path fill-rule="evenodd" clip-rule="evenodd" d="M316.593 186.744C313.738 184.875 310.145 184.448 306.868 185.47C302.294 186.895 295.352 191.138 288.482 203.318C279.513 219.219 274.844 236.652 275.767 247.695C276.37 254.916 285.516 258.029 290.633 252.764C292.983 250.346 295.469 246.618 297.901 240.963C307.691 218.207 316.844 203.946 317.935 202.514C320.848 198.694 322.93 190.892 316.593 186.744Z" fill="black" fill-opacity="0.2"/>
<path d="M297.563 247.966C297.459 247.869 297.293 247.873 297.194 247.975L297.102 248.072L297.041 248.137C296.92 248.269 296.779 248.427 296.62 248.611C296.169 249.134 295.667 249.76 295.126 250.489C293.583 252.566 292.041 255.046 290.603 257.925C286.495 266.143 284.031 275.906 284.031 287.18C284.031 287.321 284.148 287.434 284.292 287.434C284.437 287.434 284.553 287.321 284.553 287.18C284.553 275.986 286.998 266.298 291.072 258.147C292.497 255.296 294.024 252.841 295.549 250.786C296.051 250.11 296.519 249.524 296.942 249.029L297.02 248.937C297.158 248.777 297.282 248.638 297.39 248.519L297.488 248.414L297.572 248.325C297.671 248.224 297.667 248.063 297.563 247.966Z" fill="#2A84C6"/>
<path d="M297.563 247.966C297.459 247.869 297.293 247.873 297.194 247.975L297.102 248.072L297.041 248.137C296.92 248.269 296.779 248.427 296.62 248.611C296.169 249.134 295.667 249.76 295.126 250.489C293.583 252.566 292.041 255.046 290.603 257.925C286.495 266.143 284.031 275.906 284.031 287.18C284.031 287.321 284.148 287.434 284.292 287.434C284.437 287.434 284.553 287.321 284.553 287.18C284.553 275.986 286.998 266.298 291.072 258.147C292.497 255.296 294.024 252.841 295.549 250.786C296.051 250.11 296.519 249.524 296.942 249.029L297.02 248.937C297.158 248.777 297.282 248.638 297.39 248.519L297.488 248.414L297.572 248.325C297.671 248.224 297.667 248.063 297.563 247.966Z" fill="black" fill-opacity="0.35"/>
<path d="M260.564 251.27C260.478 251.158 260.314 251.135 260.199 251.218C260.083 251.302 260.06 251.461 260.146 251.574C261.935 253.904 263.585 256.409 265.103 259.064C268.309 264.675 270.788 270.688 272.627 276.702C273.271 278.806 273.789 280.76 274.192 282.514L274.247 282.755C274.346 283.191 274.431 283.59 274.505 283.948L274.57 284.275C274.587 284.362 274.602 284.441 274.616 284.514L274.652 284.711C274.676 284.85 274.811 284.943 274.953 284.92C275.095 284.896 275.191 284.765 275.167 284.627L275.119 284.366C275.108 284.308 275.096 284.246 275.083 284.18L275.056 284.043C274.961 283.57 274.844 283.021 274.701 282.403C274.296 280.639 273.775 278.673 273.127 276.557C271.278 270.51 268.786 264.463 265.559 258.818C264.03 256.143 262.367 253.619 260.564 251.27Z" fill="#2A84C6"/>
<path d="M260.564 251.27C260.478 251.158 260.314 251.135 260.199 251.218C260.083 251.302 260.06 251.461 260.146 251.574C261.935 253.904 263.585 256.409 265.103 259.064C268.309 264.675 270.788 270.688 272.627 276.702C273.271 278.806 273.789 280.76 274.192 282.514L274.247 282.755C274.346 283.191 274.431 283.59 274.505 283.948L274.57 284.275C274.587 284.362 274.602 284.441 274.616 284.514L274.652 284.711C274.676 284.85 274.811 284.943 274.953 284.92C275.095 284.896 275.191 284.765 275.167 284.627L275.119 284.366C275.108 284.308 275.096 284.246 275.083 284.18L275.056 284.043C274.961 283.57 274.844 283.021 274.701 282.403C274.296 280.639 273.775 278.673 273.127 276.557C271.278 270.51 268.786 264.463 265.559 258.818C264.03 256.143 262.367 253.619 260.564 251.27Z" fill="black" fill-opacity="0.35"/>
<path d="M252.353 191.905C252.249 192.002 252.246 192.162 252.345 192.264L252.41 192.33C252.464 192.387 252.528 192.456 252.602 192.536L252.768 192.718C252.921 192.887 253.089 193.077 253.271 193.287L253.34 193.367C254.136 194.294 255.023 195.408 255.98 196.71C258.715 200.435 261.451 204.92 264.005 210.169C268.256 218.907 271.567 228.871 273.573 240.071C276.008 253.669 276.412 268.521 274.418 284.639C274.401 284.779 274.503 284.905 274.646 284.922C274.789 284.938 274.919 284.839 274.937 284.7C276.936 268.533 276.531 253.63 274.087 239.984C272.073 228.738 268.748 218.73 264.477 209.952C261.909 204.674 259.157 200.164 256.405 196.415L256.191 196.126C255.308 194.936 254.485 193.908 253.74 193.041L253.535 192.804C253.379 192.626 253.235 192.464 253.102 192.318L252.991 192.197C252.928 192.128 252.871 192.068 252.821 192.015L252.722 191.912C252.623 191.811 252.457 191.808 252.353 191.905Z" fill="#2A84C6"/>
<path d="M252.353 191.905C252.249 192.002 252.246 192.162 252.345 192.264L252.41 192.33C252.464 192.387 252.528 192.456 252.602 192.536L252.768 192.718C252.921 192.887 253.089 193.077 253.271 193.287L253.34 193.367C254.136 194.294 255.023 195.408 255.98 196.71C258.715 200.435 261.451 204.92 264.005 210.169C268.256 218.907 271.567 228.871 273.573 240.071C276.008 253.669 276.412 268.521 274.418 284.639C274.401 284.779 274.503 284.905 274.646 284.922C274.789 284.938 274.919 284.839 274.937 284.7C276.936 268.533 276.531 253.63 274.087 239.984C272.073 228.738 268.748 218.73 264.477 209.952C261.909 204.674 259.157 200.164 256.405 196.415L256.191 196.126C255.308 194.936 254.485 193.908 253.74 193.041L253.535 192.804C253.379 192.626 253.235 192.464 253.102 192.318L252.991 192.197C252.928 192.128 252.871 192.068 252.821 192.015L252.722 191.912C252.623 191.811 252.457 191.808 252.353 191.905Z" fill="black" fill-opacity="0.35"/>
<path d="M294.438 220.164C294.314 220.092 294.154 220.13 294.079 220.25L294.031 220.328C293.993 220.392 293.947 220.468 293.895 220.556L293.779 220.754C293.658 220.961 293.525 221.195 293.379 221.455L293.245 221.697C292.749 222.595 292.205 223.635 291.624 224.813L291.545 224.975C289.649 228.839 287.754 233.358 285.985 238.493C281.032 252.877 278.018 269.204 277.905 287.178C277.904 287.319 278.02 287.433 278.165 287.434C278.309 287.435 278.426 287.322 278.427 287.181C278.54 269.263 281.544 252.989 286.48 238.655C288.242 233.539 290.129 229.039 292.016 225.194L292.174 224.874C292.748 223.716 293.284 222.695 293.772 221.817L293.838 221.698C293.998 221.411 294.143 221.157 294.272 220.937L294.432 220.666L294.525 220.513C294.6 220.393 294.561 220.237 294.438 220.164Z" fill="#2A84C6"/>
<path d="M294.438 220.164C294.314 220.092 294.154 220.13 294.079 220.25L294.031 220.328C293.993 220.392 293.947 220.468 293.895 220.556L293.779 220.754C293.658 220.961 293.525 221.195 293.379 221.455L293.245 221.697C292.749 222.595 292.205 223.635 291.624 224.813L291.545 224.975C289.649 228.839 287.754 233.358 285.985 238.493C281.032 252.877 278.018 269.204 277.905 287.178C277.904 287.319 278.02 287.433 278.165 287.434C278.309 287.435 278.426 287.322 278.427 287.181C278.54 269.263 281.544 252.989 286.48 238.655C288.242 233.539 290.129 229.039 292.016 225.194L292.174 224.874C292.748 223.716 293.284 222.695 293.772 221.817L293.838 221.698C293.998 221.411 294.143 221.157 294.272 220.937L294.432 220.666L294.525 220.513C294.6 220.393 294.561 220.237 294.438 220.164Z" fill="black" fill-opacity="0.35"/>
<path fill-rule="evenodd" clip-rule="evenodd" d="M310.027 195.821C309.93 196.944 310.788 197.932 311.943 198.026C313.098 198.12 314.113 197.286 314.21 196.162C314.307 195.038 313.449 194.051 312.294 193.957C311.139 193.863 310.124 194.697 310.027 195.821Z" fill="white"/>
<path fill-rule="evenodd" clip-rule="evenodd" d="M292.2 204.538C292.103 205.661 292.961 206.648 294.116 206.743C295.272 206.837 296.286 206.002 296.383 204.879C296.48 203.755 295.622 202.768 294.467 202.674C293.312 202.58 292.297 203.414 292.2 204.538Z" fill="white"/>
<path fill-rule="evenodd" clip-rule="evenodd" d="M295.188 227.746C295.077 229.033 296.06 230.163 297.382 230.271C298.705 230.379 299.867 229.423 299.978 228.137C300.089 226.85 299.107 225.719 297.784 225.611C296.461 225.503 295.299 226.459 295.188 227.746Z" fill="white"/>
<path fill-rule="evenodd" clip-rule="evenodd" d="M240.433 193.061C240.433 194.887 241.955 196.368 243.832 196.368C245.71 196.368 247.231 194.887 247.231 193.061C247.231 191.235 245.71 189.755 243.832 189.755C241.955 189.755 240.433 191.235 240.433 193.061Z" fill="white"/>
<path fill-rule="evenodd" clip-rule="evenodd" d="M267.797 203.159C267.797 204.985 269.318 206.465 271.196 206.465C273.073 206.465 274.595 204.985 274.595 203.159C274.595 201.333 273.073 199.853 271.196 199.853C269.318 199.853 267.797 201.333 267.797 203.159Z" fill="white"/>
<path fill-rule="evenodd" clip-rule="evenodd" d="M258.934 225.603C258.934 226.366 259.571 226.985 260.355 226.985C261.14 226.985 261.776 226.366 261.776 225.603C261.776 224.839 261.14 224.221 260.355 224.221C259.571 224.221 258.934 224.839 258.934 225.603Z" fill="white"/>
<path fill-rule="evenodd" clip-rule="evenodd" d="M248.699 243.277C248.699 244.405 249.639 245.319 250.798 245.319C251.957 245.319 252.896 244.405 252.896 243.277C252.896 242.15 251.957 241.236 250.798 241.236C249.639 241.236 248.699 242.15 248.699 243.277Z" fill="white"/>
<path fill-rule="evenodd" clip-rule="evenodd" d="M267.88 310.793H288.326C291.318 309.942 292.809 309.098 294.514 306.749L303.777 276.729C303.777 274.504 301.906 272.685 299.619 272.685H257.317C255.03 272.685 253.159 274.504 253.159 276.729L262.341 306.749C263.832 309.942 264.898 310.363 267.88 310.793Z" fill="#2A84C6"/>
<path fill-rule="evenodd" clip-rule="evenodd" d="M267.88 310.793H288.326C291.318 309.942 292.809 309.098 294.514 306.749L303.777 276.729C303.777 274.504 301.906 272.685 299.619 272.685H257.317C255.03 272.685 253.159 274.504 253.159 276.729L262.341 306.749C263.832 309.942 264.898 310.363 267.88 310.793Z" fill="black" fill-opacity="0.35"/>
<mask id="mask0_309_844" style="mask-type:alpha" maskUnits="userSpaceOnUse" x="-4" y="46" width="302" height="294">
<ellipse cx="150.374" cy="146.275" rx="150.374" ry="146.275" transform="matrix(-1 0 0 1 297.534 46.6841)" fill="#C4C4C4"/>
</mask>
<g mask="url(#mask0_309_844)">
<path fill-rule="evenodd" clip-rule="evenodd" d="M259.812 207.16C264.206 197.399 259.633 186.021 249.597 181.748L192.124 157.271C182.088 152.997 170.393 157.445 165.999 167.207C161.606 176.968 166.18 188.345 176.214 192.619L233.69 217.095C243.723 221.369 255.419 216.92 259.812 207.16Z" fill="#E4EBF7"/>
<path fill-rule="evenodd" clip-rule="evenodd" d="M19.428 236.24C11.3419 229.05 10.7812 216.846 18.1728 208.983L64.3524 159.849C71.744 151.986 84.2901 151.439 92.3747 158.629C100.458 165.818 101.02 178.022 93.6299 185.886L47.4489 235.019C40.0573 242.884 27.5126 243.43 19.428 236.24Z" fill="#E4EBF7"/>
<path fill-rule="evenodd" clip-rule="evenodd" d="M102.996 297.311C102.996 297.311 95.8233 282.747 102.535 275.816C108.611 269.538 115.781 274.679 115.781 274.679C115.781 274.679 123.74 278.693 130.154 286.111C134.381 290.999 141.449 301.088 139.108 303.595C136.059 306.862 128.742 294.993 125.888 296.605C122.958 298.261 124.282 300.822 125.324 307.611C125.976 311.854 128.334 315.786 128.18 319.487C127.881 326.717 111.882 320.031 102.996 297.311Z" fill="#FFC999"/>
<path d="M118.793 301.568C118.513 301.539 118.262 301.736 118.232 302.009L118.222 302.127C118.218 302.177 118.214 302.239 118.209 302.312C118.118 303.903 118.266 306.045 118.844 308.575C119.711 312.371 121.39 316.227 124.07 319.977C124.231 320.202 124.548 320.257 124.779 320.101C125.01 319.945 125.067 319.636 124.907 319.411C122.305 315.771 120.678 312.034 119.838 308.36C119.315 306.067 119.158 304.115 119.214 302.638L119.227 302.367C119.234 302.239 119.241 302.153 119.246 302.114C119.275 301.841 119.073 301.597 118.793 301.568Z" fill="#DD936F"/>
<path d="M112.738 301.582L112.655 301.583C112.375 301.61 112.17 301.852 112.197 302.124C112.537 305.538 113.554 308.87 115.036 312.019C115.682 313.392 116.375 314.639 117.068 315.736L117.351 316.176C117.443 316.315 117.531 316.447 117.616 316.571L117.872 316.937C117.929 317.016 117.973 317.076 118.003 317.115C118.171 317.334 118.49 317.381 118.716 317.218C118.942 317.055 118.989 316.744 118.822 316.524L118.583 316.193C118.388 315.915 118.171 315.589 117.936 315.217C117.263 314.153 116.59 312.941 115.962 311.606C114.524 308.552 113.539 305.323 113.211 302.029C113.187 301.784 112.983 301.598 112.738 301.582Z" fill="#DD936F"/>
<path d="M107.376 298.693C107.123 298.691 106.911 298.869 106.87 299.104L106.863 299.185C106.86 299.859 107 301.076 107.416 302.792C108.099 305.604 109.33 308.822 111.242 312.399C111.372 312.642 111.68 312.736 111.929 312.61C112.179 312.484 112.276 312.185 112.146 311.942C110.272 308.437 109.071 305.296 108.408 302.564C108.176 301.608 108.027 300.772 107.946 300.06L107.904 299.636C107.891 299.474 107.884 299.346 107.882 299.254L107.882 299.191L107.876 299.112C107.838 298.876 107.629 298.695 107.376 298.693Z" fill="#DD936F"/>
<path fill-rule="evenodd" clip-rule="evenodd" d="M116.707 265.179L95.8644 291.278L21.0379 238.246C12.3868 231.709 10.8228 219.588 17.5413 211.173C24.2626 202.758 36.7233 201.236 45.3729 207.771L116.707 265.179Z" fill="#E4EBF7"/>
<path d="M56.4591 216.671C56.154 216.43 55.7059 216.475 55.4581 216.771C55.2329 217.041 55.2508 217.426 55.4851 217.675L55.5618 217.745L116.114 265.588L95.698 291.154C95.4789 291.428 95.5054 291.812 95.7452 292.056L95.8235 292.125C96.1056 292.338 96.5007 292.312 96.7513 292.079L96.8219 292.003L117.665 265.903C117.88 265.633 117.858 265.255 117.627 265.011L117.551 264.941L56.4591 216.671Z" fill="#1443BD"/>
<path d="M56.4591 216.671C56.154 216.43 55.7059 216.475 55.4581 216.771C55.2329 217.041 55.2508 217.426 55.4851 217.675L55.5618 217.745L116.114 265.588L95.698 291.154C95.4789 291.428 95.5054 291.812 95.7452 292.056L95.8235 292.125C96.1056 292.338 96.5007 292.312 96.7513 292.079L96.8219 292.003L117.665 265.903C117.88 265.633 117.858 265.255 117.627 265.011L117.551 264.941L56.4591 216.671Z" fill="white" fill-opacity="0.2"/>
<path d="M104.249 258.109C103.967 257.896 103.572 257.922 103.321 258.155L103.251 258.231L85.5515 280.393C85.3104 280.695 85.3666 281.13 85.6769 281.364C85.959 281.577 86.3541 281.551 86.6048 281.318L86.6753 281.242L104.374 259.081C104.616 258.779 104.559 258.344 104.249 258.109Z" fill="#1443BD"/>
<path d="M104.249 258.109C103.967 257.896 103.572 257.922 103.321 258.155L103.251 258.231L85.5515 280.393C85.3104 280.695 85.3666 281.13 85.6769 281.364C85.959 281.577 86.3541 281.551 86.6048 281.318L86.6753 281.242L104.374 259.081C104.616 258.779 104.559 258.344 104.249 258.109Z" fill="white" fill-opacity="0.2"/>
<path fill-rule="evenodd" clip-rule="evenodd" d="M209.255 94.8027C209.255 94.8027 218.671 108.102 213.154 115.967C208.156 123.09 200.251 119.096 200.251 119.096C200.251 119.096 191.746 116.338 184.221 109.982C179.264 105.794 170.667 96.9 172.577 94.0704C175.066 90.3799 184.194 100.996 186.756 98.9695C189.385 96.8903 187.665 94.5618 185.549 88.0127C184.225 83.9207 181.267 80.3935 180.824 76.7168C179.962 69.5281 196.838 73.7087 209.255 94.8027Z" fill="#FFC999"/>
<path d="M184.773 75.6374C184.596 75.4577 184.303 75.4516 184.118 75.6237C183.933 75.7959 183.927 76.0811 184.104 76.2608C184.247 76.4064 184.389 76.5526 184.529 76.6995C187.833 80.1738 190.032 83.893 191.339 87.6096C191.795 88.9076 192.108 90.1115 192.302 91.1898C192.353 91.4714 192.392 91.7287 192.423 91.9601L192.468 92.3579C192.475 92.432 192.479 92.4858 192.48 92.5184C192.493 92.767 192.711 92.9583 192.966 92.9458C193.222 92.9332 193.419 92.7216 193.406 92.4731L193.391 92.2815L193.371 92.0854C193.337 91.7809 193.286 91.4292 193.214 91.0341C193.012 89.9109 192.688 88.6617 192.216 87.318C190.869 83.4867 188.604 79.658 185.209 76.0875C185.065 75.9368 184.92 75.7868 184.773 75.6374Z" fill="#1443BD"/>
<path d="M184.773 75.6374C184.596 75.4577 184.303 75.4516 184.118 75.6237C183.933 75.7959 183.927 76.0811 184.104 76.2608C184.247 76.4064 184.389 76.5526 184.529 76.6995C187.833 80.1738 190.032 83.893 191.339 87.6096C191.795 88.9076 192.108 90.1115 192.302 91.1898C192.353 91.4714 192.392 91.7287 192.423 91.9601L192.468 92.3579C192.475 92.432 192.479 92.4858 192.48 92.5184C192.493 92.767 192.711 92.9583 192.966 92.9458C193.222 92.9332 193.419 92.7216 193.406 92.4731L193.391 92.2815L193.371 92.0854C193.337 91.7809 193.286 91.4292 193.214 91.0341C193.012 89.9109 192.688 88.6617 192.216 87.318C190.869 83.4867 188.604 79.658 185.209 76.0875C185.065 75.9368 184.92 75.7868 184.773 75.6374Z" fill="white" fill-opacity="0.2"/>
<path d="M191.243 77.5302C191.051 77.347 190.743 77.3497 190.554 77.5362C190.366 77.7227 190.369 78.0225 190.561 78.2057L190.765 78.4097C190.812 78.4574 190.864 78.5118 190.923 78.5728L191.292 78.9684C191.484 79.179 191.688 79.4088 191.901 79.6572C192.916 80.8421 193.932 82.1999 194.879 83.708C196.461 86.2233 197.689 88.8978 198.43 91.6855C198.497 91.9387 198.762 92.0909 199.023 92.0254C199.283 91.96 199.439 91.7018 199.372 91.4486C198.606 88.5636 197.338 85.8047 195.71 83.2141C194.736 81.6645 193.693 80.2697 192.648 79.051C192.355 78.7091 192.079 78.4006 191.823 78.1269L191.468 77.7545C191.418 77.7033 191.374 77.659 191.336 77.6216L191.243 77.5302Z" fill="#DD936F"/>
<path fill-rule="evenodd" clip-rule="evenodd" d="M188.09 124.141L219.07 110.569L259.664 191.508C264.162 201.225 259.712 212.648 249.725 217.023C239.736 221.398 227.993 217.07 223.494 207.353L188.09 124.141Z" fill="#E4EBF7"/>
<path d="M219.512 109.842C219.364 109.522 218.998 109.365 218.662 109.462L218.571 109.495L187.592 123.067C187.274 123.206 187.111 123.545 187.193 123.865L187.225 123.96L214.039 187.702C214.188 188.055 214.604 188.225 214.968 188.08C215.301 187.947 215.475 187.597 215.387 187.267L215.357 187.177L188.803 124.054L219.156 110.757C219.484 110.613 219.646 110.257 219.546 109.93L219.512 109.842Z" fill="#1443BD"/>
<path d="M219.512 109.842C219.364 109.522 218.998 109.365 218.662 109.462L218.571 109.495L187.592 123.067C187.274 123.206 187.111 123.545 187.193 123.865L187.225 123.96L214.039 187.702C214.188 188.055 214.604 188.225 214.968 188.08C215.301 187.947 215.475 187.597 215.387 187.267L215.357 187.177L188.803 124.054L219.156 110.757C219.484 110.613 219.646 110.257 219.546 109.93L219.512 109.842Z" fill="white" fill-opacity="0.2"/>
<path d="M224.174 122.092C224.04 121.766 223.681 121.594 223.341 121.677L223.249 121.706L195.201 132.62C194.837 132.762 194.659 133.165 194.805 133.52C194.939 133.845 195.298 134.017 195.638 133.934L195.73 133.905L223.778 122.991C224.143 122.849 224.32 122.446 224.174 122.092Z" fill="#1443BD"/>
<path d="M224.174 122.092C224.04 121.766 223.681 121.594 223.341 121.677L223.249 121.706L195.201 132.62C194.837 132.762 194.659 133.165 194.805 133.52C194.939 133.845 195.298 134.017 195.638 133.934L195.73 133.905L223.778 122.991C224.143 122.849 224.32 122.446 224.174 122.092Z" fill="white" fill-opacity="0.2"/>
<path fill-rule="evenodd" clip-rule="evenodd" d="M184.793 121.874L205.309 108.561C207.007 107.459 207.467 105.228 206.334 103.575L176.882 60.6255C175.75 58.974 173.453 58.5283 171.756 59.6302L151.239 72.9417C149.541 74.0436 149.081 76.2765 150.214 77.928L179.665 120.877C180.798 122.53 183.095 122.976 184.793 121.874Z" fill="#1443BD"/>
<path fill-rule="evenodd" clip-rule="evenodd" d="M184.793 121.874L205.309 108.561C207.007 107.459 207.467 105.228 206.334 103.575L176.882 60.6255C175.75 58.974 173.453 58.5283 171.756 59.6302L151.239 72.9417C149.541 74.0436 149.081 76.2765 150.214 77.928L179.665 120.877C180.798 122.53 183.095 122.976 184.793 121.874Z" fill="black" fill-opacity="0.5"/>
<path fill-rule="evenodd" clip-rule="evenodd" d="M132.082 411.033L145.299 335.497C147.826 319.842 135.565 305.619 119.279 305.311C105.181 305.044 93.2701 315.42 91.995 329.079L84.834 405.838C84.834 405.838 81.5609 427.595 105.157 429.98C128.106 432.3 132.082 411.033 132.082 411.033Z" fill="#1443BD"/>
<path fill-rule="evenodd" clip-rule="evenodd" d="M132.082 411.033L145.299 335.497C147.826 319.842 135.565 305.619 119.279 305.311C105.181 305.044 93.2701 315.42 91.995 329.079L84.834 405.838C84.834 405.838 81.5609 427.595 105.157 429.98C128.106 432.3 132.082 411.033 132.082 411.033Z" fill="black" fill-opacity="0.5"/>
<path fill-rule="evenodd" clip-rule="evenodd" d="M151.519 406.699L141.967 330.643C140.2 314.889 153.134 301.243 169.419 301.68C183.513 302.058 194.909 312.969 195.523 326.671L198.965 403.67C198.965 403.67 201.184 425.553 177.498 426.857C154.462 428.125 151.519 406.699 151.519 406.699Z" fill="#1443BD"/>
<path fill-rule="evenodd" clip-rule="evenodd" d="M151.519 406.699L141.967 330.643C140.2 314.889 153.134 301.243 169.419 301.68C183.513 302.058 194.909 312.969 195.523 326.671L198.965 403.67C198.965 403.67 201.184 425.553 177.498 426.857C154.462 428.125 151.519 406.699 151.519 406.699Z" fill="black" fill-opacity="0.5"/>
<path fill-rule="evenodd" clip-rule="evenodd" d="M138.005 344.883L96.7837 313.752C93.9204 311.59 92.4546 308.11 92.9356 304.614L98.4402 264.543L195.692 267.566L195.503 309.023C195.493 311.601 194.447 314.062 192.597 315.909C186.927 321.572 172.76 332.784 148.242 344.71C144.914 346.328 140.853 347.211 138.005 344.883Z" fill="#1443BD"/>
<path fill-rule="evenodd" clip-rule="evenodd" d="M138.005 344.883L96.7837 313.752C93.9204 311.59 92.4546 308.11 92.9356 304.614L98.4402 264.543L195.692 267.566L195.503 309.023C195.493 311.601 194.447 314.062 192.597 315.909C186.927 321.572 172.76 332.784 148.242 344.71C144.914 346.328 140.853 347.211 138.005 344.883Z" fill="black" fill-opacity="0.5"/>
<path d="M100.638 276.081C100.337 276.07 100.084 276.299 100.072 276.592C100.063 276.856 100.252 277.082 100.51 277.132L100.598 277.142L188.689 280.28C188.991 280.291 189.244 280.062 189.255 279.769C189.265 279.505 189.075 279.28 188.818 279.229L188.729 279.219L100.638 276.081Z" fill="#1443BD"/>
<path d="M100.638 276.081C100.337 276.07 100.084 276.299 100.072 276.592C100.063 276.856 100.252 277.082 100.51 277.132L100.598 277.142L188.689 280.28C188.991 280.291 189.244 280.062 189.255 279.769C189.265 279.505 189.075 279.28 188.818 279.229L188.729 279.219L100.638 276.081Z" fill="black" fill-opacity="0.5"/>
<path d="M151.531 266.193C151.26 266.183 151.028 266.368 150.976 266.618L150.966 266.704L150.526 278.389C150.515 278.682 150.75 278.928 151.051 278.939C151.322 278.948 151.554 278.764 151.606 278.513L151.617 278.428L152.056 266.743C152.067 266.45 151.832 266.203 151.531 266.193Z" fill="#1443BD"/>
<path d="M151.531 266.193C151.26 266.183 151.028 266.368 150.976 266.618L150.966 266.704L150.526 278.389C150.515 278.682 150.75 278.928 151.051 278.939C151.322 278.948 151.554 278.764 151.606 278.513L151.617 278.428L152.056 266.743C152.067 266.45 151.832 266.203 151.531 266.193Z" fill="black" fill-opacity="0.5"/>
<path fill-rule="evenodd" clip-rule="evenodd" d="M115.619 94.7582C115.619 94.7582 112.355 66.1086 149.273 68.3304C169.829 70.9218 168.551 104.223 168.551 104.223C168.551 104.223 169.824 111.249 166.949 118.387C163.731 126.381 155.802 128.902 145.423 129.575C126.194 128.478 118.683 118.009 118.683 118.009C118.683 118.009 105.407 118.673 106.907 102.48C108.403 87.4601 115.619 94.7582 115.619 94.7582Z" fill="#FFC999"/>
<path fill-rule="evenodd" clip-rule="evenodd" d="M119.16 75.124C119.136 82.483 112.985 88.4299 105.422 88.4078C97.8551 88.3856 91.7415 82.4013 91.7642 75.0423C91.7884 67.6834 97.9391 61.7364 105.504 61.7598C113.069 61.7821 119.183 67.765 119.16 75.124Z" fill="#1443BD"/>
<path fill-rule="evenodd" clip-rule="evenodd" d="M119.16 75.124C119.136 82.483 112.985 88.4299 105.422 88.4078C97.8551 88.3856 91.7415 82.4013 91.7642 75.0423C91.7884 67.6834 97.9391 61.7364 105.504 61.7598C113.069 61.7821 119.183 67.765 119.16 75.124Z" fill="black" fill-opacity="0.5"/>
<path fill-rule="evenodd" clip-rule="evenodd" d="M168.37 105.258C168.37 105.258 172.894 97.6844 175.622 88.6463C178.35 79.6081 160.708 61.464 158.313 59.9981C155.916 58.5321 154.721 57.0689 138.204 62.8566C89.2183 64.6175 100.7 108.305 100.7 108.305C100.7 108.305 94.9847 112.303 98.2507 123.11C102.114 133.917 117.448 134.339 117.448 134.339L118.035 117.451C118.035 117.451 112.85 117.815 108.969 111.968C105.087 106.12 108.48 99.0383 110.882 98.461C113.024 96.9092 118.363 97.7038 118.345 103.94C118.335 107.08 124.501 100.061 126.943 88.1147C144.05 84.9557 148.369 73.3912 148.369 73.3912C148.369 73.3912 148.936 84.4823 146.222 89.1432C155.229 86.5435 160.043 81.8895 158.559 76.924C168.745 81.3302 168.37 105.258 168.37 105.258Z" fill="#1443BD"/>
<path fill-rule="evenodd" clip-rule="evenodd" d="M168.37 105.258C168.37 105.258 172.894 97.6844 175.622 88.6463C178.35 79.6081 160.708 61.464 158.313 59.9981C155.916 58.5321 154.721 57.0689 138.204 62.8566C89.2183 64.6175 100.7 108.305 100.7 108.305C100.7 108.305 94.9847 112.303 98.2507 123.11C102.114 133.917 117.448 134.339 117.448 134.339L118.035 117.451C118.035 117.451 112.85 117.815 108.969 111.968C105.087 106.12 108.48 99.0383 110.882 98.461C113.024 96.9092 118.363 97.7038 118.345 103.94C118.335 107.08 124.501 100.061 126.943 88.1147C144.05 84.9557 148.369 73.3912 148.369 73.3912C148.369 73.3912 148.936 84.4823 146.222 89.1432C155.229 86.5435 160.043 81.8895 158.559 76.924C168.745 81.3302 168.37 105.258 168.37 105.258Z" fill="black" fill-opacity="0.5"/>
<path fill-rule="evenodd" clip-rule="evenodd" d="M117.441 136.418L117.953 111.236L151.705 112.095C151.705 112.095 151.522 129.289 152.168 136.266C174.105 148.087 124.393 156.773 112.948 143.487C109.412 139.383 117.441 136.418 117.441 136.418Z" fill="#FFC999"/>
<path fill-rule="evenodd" clip-rule="evenodd" d="M149.054 99.7885C148.4 106.169 143.269 110.896 137.586 110.347C131.907 109.797 127.831 104.18 128.483 97.7992C129.136 91.4176 134.269 86.6902 139.95 87.2397C145.63 87.7893 149.705 93.4082 149.054 99.7885Z" fill="white"/>
<path d="M140.021 86.5514C146.115 87.1412 150.45 93.1168 149.762 99.8573C149.072 106.599 143.613 111.625 137.516 111.036C131.421 110.446 127.086 104.472 127.775 97.7312C128.455 91.0897 133.762 86.1121 139.748 86.5287L140.021 86.5514ZM129.191 97.8682C128.576 103.888 132.393 109.149 137.657 109.658C142.923 110.168 147.729 105.742 148.346 99.7203C148.961 93.7001 145.144 88.4383 139.88 87.9289C134.614 87.4196 129.807 91.8464 129.191 97.8682Z" fill="#1443BD"/>
<path d="M140.021 86.5514C146.115 87.1412 150.45 93.1168 149.762 99.8573C149.072 106.599 143.613 111.625 137.516 111.036C131.421 110.446 127.086 104.472 127.775 97.7312C128.455 91.0897 133.762 86.1121 139.748 86.5287L140.021 86.5514ZM129.191 97.8682C128.576 103.888 132.393 109.149 137.657 109.658C142.923 110.168 147.729 105.742 148.346 99.7203C148.961 93.7001 145.144 88.4383 139.88 87.9289C134.614 87.4196 129.807 91.8464 129.191 97.8682Z" fill="black" fill-opacity="0.5"/>
<path fill-rule="evenodd" clip-rule="evenodd" d="M172.032 98.9988C171.38 105.379 166.54 110.134 161.222 109.621C155.904 109.106 152.121 103.516 152.773 97.1355C153.426 90.7553 158.265 85.9988 163.583 86.5138C168.902 87.0287 172.685 92.6185 172.032 98.9988Z" fill="white"/>
<path d="M163.653 85.8255C169.401 86.3818 173.429 92.3352 172.74 99.0679C172.052 105.8 166.898 110.865 161.152 110.31C155.406 109.753 151.377 103.8 152.065 97.0676C152.744 90.4361 157.753 85.423 163.393 85.804L163.653 85.8255ZM153.481 97.2046C152.865 103.233 156.402 108.459 161.293 108.932C166.183 109.405 170.708 104.959 171.324 98.9309C171.941 92.9027 168.404 87.6765 163.513 87.203C158.623 86.7295 154.098 91.1758 153.481 97.2046Z" fill="#1443BD"/>
<path d="M163.653 85.8255C169.401 86.3818 173.429 92.3352 172.74 99.0679C172.052 105.8 166.898 110.865 161.152 110.31C155.406 109.753 151.377 103.8 152.065 97.0676C152.744 90.4361 157.753 85.423 163.393 85.804L163.653 85.8255ZM153.481 97.2046C152.865 103.233 156.402 108.459 161.293 108.932C166.183 109.405 170.708 104.959 171.324 98.9309C171.941 92.9027 168.404 87.6765 163.513 87.203C158.623 86.7295 154.098 91.1758 153.481 97.2046Z" fill="black" fill-opacity="0.5"/>
<path d="M151.565 101.377C151.382 101.185 151.074 101.174 150.877 101.351C150.702 101.509 150.673 101.764 150.797 101.953L150.851 102.02L154.237 105.572L150.538 108.708C150.358 108.86 150.321 109.114 150.439 109.306L150.491 109.375C150.648 109.551 150.908 109.586 151.106 109.471L151.178 109.421L155.255 105.965C155.439 105.809 155.473 105.548 155.347 105.355L155.292 105.286L151.565 101.377Z" fill="#DD936F"/>
<path d="M142.606 111.305C142.5 111.673 142.721 112.055 143.099 112.158L143.785 112.333C144.317 112.462 144.895 112.591 145.501 112.712C146.45 112.901 147.377 113.051 148.252 113.148C149.737 113.313 150.986 113.316 151.944 113.112C152.328 113.031 152.571 112.662 152.487 112.288C152.403 111.915 152.024 111.678 151.64 111.76C150.866 111.925 149.756 111.921 148.413 111.773C147.584 111.681 146.697 111.537 145.786 111.356C145.348 111.269 144.924 111.177 144.523 111.083L143.484 110.826C143.106 110.722 142.713 110.937 142.606 111.305Z" fill="#F56D7E"/>
<path fill-rule="evenodd" clip-rule="evenodd" d="M149.22 96.7558C149.22 96.7558 151.027 95.5916 152.626 96.7655L149.22 96.7558Z" fill="white"/>
<path d="M149.22 96.7558C149.22 96.7558 151.027 95.5916 152.626 96.7655" stroke="#1443BD" stroke-width="1.5" stroke-linecap="round" stroke-linejoin="round"/>
<path d="M149.22 96.7558C149.22 96.7558 151.027 95.5916 152.626 96.7655" stroke="black" stroke-opacity="0.5" stroke-width="1.5" stroke-linecap="round" stroke-linejoin="round"/>
<path d="M134.146 127.173C133.885 127.111 133.621 127.267 133.558 127.521C133.494 127.775 133.654 128.031 133.916 128.093C135.409 128.447 137.113 128.727 138.99 128.942C142.541 129.348 146.219 129.485 149.32 129.467L150.333 129.455C150.602 129.448 150.814 129.231 150.808 128.97C150.801 128.708 150.578 128.502 150.309 128.508L149.963 128.514C146.771 128.555 142.859 128.431 139.103 128.002C137.264 127.791 135.597 127.517 134.146 127.173Z" fill="#DD936F"/>
<path fill-rule="evenodd" clip-rule="evenodd" d="M143.206 98.1235C143.2 99.7016 142.479 100.979 141.593 100.978C140.708 100.975 139.995 99.6919 140 98.1138C140.005 96.5357 140.727 95.258 141.612 95.2607C142.497 95.2635 143.21 96.5454 143.206 98.1235Z" fill="#1443BD"/>
<path fill-rule="evenodd" clip-rule="evenodd" d="M143.206 98.1235C143.2 99.7016 142.479 100.979 141.593 100.978C140.708 100.975 139.995 99.6919 140 98.1138C140.005 96.5357 140.727 95.258 141.612 95.2607C142.497 95.2635 143.21 96.5454 143.206 98.1235Z" fill="black" fill-opacity="0.5"/>
<path fill-rule="evenodd" clip-rule="evenodd" d="M164.041 98.4448C164.035 100.023 163.314 101.301 162.429 101.299C161.543 101.296 160.83 100.013 160.835 98.4351C160.84 96.857 161.562 95.5793 162.447 95.582C163.332 95.5848 164.045 96.8667 164.041 98.4448Z" fill="#1443BD"/>
<path fill-rule="evenodd" clip-rule="evenodd" d="M164.041 98.4448C164.035 100.023 163.314 101.301 162.429 101.299C161.543 101.296 160.83 100.013 160.835 98.4351C160.84 96.857 161.562 95.5793 162.447 95.582C163.332 95.5848 164.045 96.8667 164.041 98.4448Z" fill="black" fill-opacity="0.5"/>
<path d="M128.47 97.1069L119.151 97.2745C118.758 97.2815 118.446 97.5971 118.453 97.9793C118.46 98.3296 118.733 98.6144 119.081 98.6539L119.178 98.6585L128.496 98.491C128.889 98.484 129.202 98.1684 129.194 97.7862C129.188 97.4358 128.914 97.1511 128.566 97.1115L128.47 97.1069Z" fill="#1443BD"/>
<path d="M128.47 97.1069L119.151 97.2745C118.758 97.2815 118.446 97.5971 118.453 97.9793C118.46 98.3296 118.733 98.6144 119.081 98.6539L119.178 98.6585L128.496 98.491C128.889 98.484 129.202 98.1684 129.194 97.7862C129.188 97.4358 128.914 97.1511 128.566 97.1115L128.47 97.1069Z" fill="black" fill-opacity="0.5"/>
<path fill-rule="evenodd" clip-rule="evenodd" d="M158.204 141.372L156.596 141.336C157.783 150.732 121.351 152.102 115.723 141.196C115.581 140.918 115.468 140.657 115.373 140.408L110.936 140.309L109.047 304.011C109.047 304.011 140.798 317.201 171.255 306.1C184.516 175.402 158.204 141.372 158.204 141.372Z" fill="#B8C8FF"/>
<path d="M153.804 153.715C153.676 153.45 153.35 153.336 153.078 153.461C152.331 153.804 151.574 154.118 150.807 154.405C142.499 157.512 133.606 157.311 125.196 155.1C123.847 154.745 122.631 154.366 121.567 153.986L121.045 153.795L120.594 153.622C120.43 153.556 120.32 153.511 120.266 153.487C119.991 153.368 119.669 153.488 119.546 153.756C119.423 154.024 119.547 154.337 119.822 154.457L120.182 154.605L120.651 154.786C120.819 154.849 120.999 154.915 121.191 154.983C122.284 155.373 123.531 155.762 124.911 156.125C133.525 158.39 142.643 158.596 151.199 155.396C151.991 155.1 152.772 154.775 153.543 154.422C153.816 154.297 153.933 153.98 153.804 153.715Z" fill="#1443BD"/>
<path d="M153.804 153.715C153.676 153.45 153.35 153.336 153.078 153.461C152.331 153.804 151.574 154.118 150.807 154.405C142.499 157.512 133.606 157.311 125.196 155.1C123.847 154.745 122.631 154.366 121.567 153.986L121.045 153.795L120.594 153.622C120.43 153.556 120.32 153.511 120.266 153.487C119.991 153.368 119.669 153.488 119.546 153.756C119.423 154.024 119.547 154.337 119.822 154.457L120.182 154.605L120.651 154.786C120.819 154.849 120.999 154.915 121.191 154.983C122.284 155.373 123.531 155.762 124.911 156.125C133.525 158.39 142.643 158.596 151.199 155.396C151.991 155.1 152.772 154.775 153.543 154.422C153.816 154.297 153.933 153.98 153.804 153.715Z" fill="white" fill-opacity="0.2"/>
<path fill-rule="evenodd" clip-rule="evenodd" d="M152.725 135.601C152.725 135.601 160.996 157.889 163.088 239.192C164.756 303.947 167.417 414.673 167.417 414.673C167.417 414.673 199.184 413.659 201.876 399.633C203.479 391.288 201.99 176.389 195.443 159.607C188.151 155.659 176.618 149.866 165.35 144.115C162.612 142.719 157.834 138.92 156.094 138.02C151.366 135.573 152.725 135.601 152.725 135.601Z" fill="#E4EBF7"/>
<path d="M199.456 180.12C199.096 180.128 198.805 180.395 198.765 180.734L198.761 180.849L199.279 204.175L199.69 223.497C199.917 234.376 200.141 245.46 200.356 256.567L200.743 277.104C200.846 282.743 200.945 288.281 201.038 293.705L201.332 311.418C201.995 353.157 202.248 383.258 201.967 397.508C201.96 397.89 202.272 398.206 202.665 398.214C203.058 398.221 203.382 397.917 203.39 397.535L203.425 395.491C203.679 378.362 203.305 342.611 202.461 293.681L202.21 279.49C202.093 273.078 201.971 266.532 201.843 259.874L201.45 239.919C201.317 233.296 201.181 226.713 201.045 220.211L200.184 180.797C200.175 180.415 199.849 180.112 199.456 180.12Z" fill="#1443BD"/>
<path d="M199.456 180.12C199.096 180.128 198.805 180.395 198.765 180.734L198.761 180.849L199.279 204.175L199.69 223.497C199.917 234.376 200.141 245.46 200.356 256.567L200.743 277.104C200.846 282.743 200.945 288.281 201.038 293.705L201.332 311.418C201.995 353.157 202.248 383.258 201.967 397.508C201.96 397.89 202.272 398.206 202.665 398.214C203.058 398.221 203.382 397.917 203.39 397.535L203.425 395.491C203.679 378.362 203.305 342.611 202.461 293.681L202.21 279.49C202.093 273.078 201.971 266.532 201.843 259.874L201.45 239.919C201.317 233.296 201.181 226.713 201.045 220.211L200.184 180.797C200.175 180.415 199.849 180.112 199.456 180.12Z" fill="white" fill-opacity="0.2"/>
<path fill-rule="evenodd" clip-rule="evenodd" d="M73.7391 153.749C85.0855 148.547 97.4978 146.477 104.683 142.581C109.287 140.085 112.991 136.711 116.607 135.572C139.892 237.111 125.533 359.964 120.938 418.341C93.6056 421.625 73.6566 392.845 73.6566 392.845C73.6566 392.845 74.6741 312.157 77.647 259.102C80.1203 214.973 70.8389 155.079 73.7391 153.749Z" fill="#E4EBF7"/>
<path d="M116.892 134.831C116.691 134.543 116.307 134.45 115.994 134.596L115.903 134.648L104.636 142.102C104.48 142.205 104.373 142.365 104.338 142.545L104.277 142.906L104.256 143.042C104.198 143.441 104.139 143.917 104.085 144.47C103.158 153.921 104.429 167.851 109.607 186.206L110.121 187.994C111.997 194.399 119.572 219.648 121.388 226.567C124.249 237.464 126.139 247.28 127.45 258.756C127.494 259.136 127.846 259.41 128.236 259.367C128.627 259.325 128.908 258.983 128.865 258.603C127.599 247.522 125.795 237.975 123.108 227.534L122.767 226.224C120.866 218.984 112.707 191.826 111.284 186.909L111.205 186.636C105.959 168.312 104.616 154.422 105.463 145.008L105.502 144.601C105.543 144.176 105.587 143.8 105.632 143.474L105.689 143.079L116.703 135.792C116.999 135.597 117.095 135.223 116.944 134.92L116.892 134.831Z" fill="#1443BD"/>
<path d="M116.892 134.831C116.691 134.543 116.307 134.45 115.994 134.596L115.903 134.648L104.636 142.102C104.48 142.205 104.373 142.365 104.338 142.545L104.277 142.906L104.256 143.042C104.198 143.441 104.139 143.917 104.085 144.47C103.158 153.921 104.429 167.851 109.607 186.206L110.121 187.994C111.997 194.399 119.572 219.648 121.388 226.567C124.249 237.464 126.139 247.28 127.45 258.756C127.494 259.136 127.846 259.41 128.236 259.367C128.627 259.325 128.908 258.983 128.865 258.603C127.599 247.522 125.795 237.975 123.108 227.534L122.767 226.224C120.866 218.984 112.707 191.826 111.284 186.909L111.205 186.636C105.959 168.312 104.616 154.422 105.463 145.008L105.502 144.601C105.543 144.176 105.587 143.8 105.632 143.474L105.689 143.079L116.703 135.792C116.999 135.597 117.095 135.223 116.944 134.92L116.892 134.831Z" fill="white" fill-opacity="0.2"/>
<path d="M153.115 135.021C152.786 134.812 152.345 134.902 152.13 135.222C151.935 135.513 151.993 135.894 152.253 136.118L152.337 136.18L165.509 144.551L165.572 144.91C165.641 145.302 165.715 145.754 165.795 146.267L165.892 146.913C166.224 149.17 166.556 151.94 166.866 155.244L166.996 156.673C169.077 180.225 168.915 214.169 165.047 259.82C165.014 260.201 165.306 260.535 165.697 260.566C166.089 260.598 166.433 260.314 166.465 259.933L166.697 257.148C170.421 211.899 170.462 178.328 168.283 155.118L168.165 153.895C167.907 151.3 167.636 149.055 167.363 147.151L167.202 146.061C167.153 145.748 167.107 145.456 167.062 145.187L166.928 144.414C166.893 144.218 166.866 144.08 166.849 143.998C166.819 143.852 166.742 143.72 166.631 143.622L166.541 143.554L153.115 135.021Z" fill="#1443BD"/>
<path d="M153.115 135.021C152.786 134.812 152.345 134.902 152.13 135.222C151.935 135.513 151.993 135.894 152.253 136.118L152.337 136.18L165.509 144.551L165.572 144.91C165.641 145.302 165.715 145.754 165.795 146.267L165.892 146.913C166.224 149.17 166.556 151.94 166.866 155.244L166.996 156.673C169.077 180.225 168.915 214.169 165.047 259.82C165.014 260.201 165.306 260.535 165.697 260.566C166.089 260.598 166.433 260.314 166.465 259.933L166.697 257.148C170.421 211.899 170.462 178.328 168.283 155.118L168.165 153.895C167.907 151.3 167.636 149.055 167.363 147.151L167.202 146.061C167.153 145.748 167.107 145.456 167.062 145.187L166.928 144.414C166.893 144.218 166.866 144.08 166.849 143.998C166.819 143.852 166.742 143.72 166.631 143.622L166.541 143.554L153.115 135.021Z" fill="white" fill-opacity="0.2"/>
<path d="M76.9613 293.665C76.5733 293.604 76.208 293.861 76.1455 294.238C76.0881 294.584 76.3049 294.912 76.6403 295.011L76.7346 295.032L100.619 298.779L99.4527 347.779C99.3619 351.561 95.931 354.418 92.1036 353.957L91.8866 353.928L74.7866 351.317C74.3984 351.258 74.0343 351.516 73.9733 351.893C73.9175 352.24 74.1358 352.566 74.4716 352.664L74.566 352.685L91.6658 355.295C96.3491 356.011 100.616 352.62 100.866 348.049L100.875 347.811L102.055 298.209C102.063 297.894 101.852 297.619 101.55 297.53L101.457 297.509L76.9613 293.665Z" fill="#1443BD"/>
<path d="M76.9613 293.665C76.5733 293.604 76.208 293.861 76.1455 294.238C76.0881 294.584 76.3049 294.912 76.6403 295.011L76.7346 295.032L100.619 298.779L99.4527 347.779C99.3619 351.561 95.931 354.418 92.1036 353.957L91.8866 353.928L74.7866 351.317C74.3984 351.258 74.0343 351.516 73.9733 351.893C73.9175 352.24 74.1358 352.566 74.4716 352.664L74.566 352.685L91.6658 355.295C96.3491 356.011 100.616 352.62 100.866 348.049L100.875 347.811L102.055 298.209C102.063 297.894 101.852 297.619 101.55 297.53L101.457 297.509L76.9613 293.665Z" fill="white" fill-opacity="0.2"/>
<path d="M200.877 294.167C200.768 293.833 200.423 293.635 200.078 293.694L199.984 293.716L187.417 297.592C187.155 297.673 186.968 297.891 186.928 298.149L186.92 298.247L186.544 351.172C186.528 353.444 188.874 354.991 191.019 354.183L191.176 354.119L202.906 349.033C203.265 348.878 203.427 348.469 203.267 348.119C203.12 347.799 202.754 347.641 202.418 347.737L202.327 347.769L190.597 352.855C189.399 353.374 188.054 352.562 187.971 351.317L187.967 351.182L188.34 298.759L200.414 295.036C200.757 294.93 200.96 294.594 200.9 294.258L200.877 294.167Z" fill="#1443BD"/>
<path d="M200.877 294.167C200.768 293.833 200.423 293.635 200.078 293.694L199.984 293.716L187.417 297.592C187.155 297.673 186.968 297.891 186.928 298.149L186.92 298.247L186.544 351.172C186.528 353.444 188.874 354.991 191.019 354.183L191.176 354.119L202.906 349.033C203.265 348.878 203.427 348.469 203.267 348.119C203.12 347.799 202.754 347.641 202.418 347.737L202.327 347.769L190.597 352.855C189.399 353.374 188.054 352.562 187.971 351.317L187.967 351.182L188.34 298.759L200.414 295.036C200.757 294.93 200.96 294.594 200.9 294.258L200.877 294.167Z" fill="white" fill-opacity="0.2"/>
<path d="M77.6764 200.389C77.3162 200.383 77.0138 200.638 76.9604 200.975L76.9522 201.068L75.0822 301.919C75.0752 302.302 75.3879 302.617 75.7808 302.624C76.141 302.63 76.4435 302.375 76.4968 302.038L76.5051 301.944L78.375 201.093C78.3821 200.711 78.0693 200.396 77.6764 200.389Z" fill="#1443BD"/>
<path d="M77.6764 200.389C77.3162 200.383 77.0138 200.638 76.9604 200.975L76.9522 201.068L75.0822 301.919C75.0752 302.302 75.3879 302.617 75.7808 302.624C76.141 302.63 76.4435 302.375 76.4968 302.038L76.5051 301.944L78.375 201.093C78.3821 200.711 78.0693 200.396 77.6764 200.389Z" fill="white" fill-opacity="0.2"/>
<rect width="8.52271" height="4.62341" rx="2.3117" transform="matrix(-0.966613 0.25624 0.269769 0.962925 143.541 116.822)" fill="#1443BD"/>
<rect width="8.52271" height="4.62341" rx="2.3117" transform="matrix(-0.966613 0.25624 0.269769 0.962925 143.541 116.822)" fill="black" fill-opacity="0.65"/>
<path d="M136.724 121.437C131.822 123.436 119.078 123.744 116.801 118.207" stroke="#1443BD" stroke-linecap="round" stroke-linejoin="round"/>
<path d="M136.724 121.437C131.822 123.436 119.078 123.744 116.801 118.207" stroke="black" stroke-opacity="0.65" stroke-linecap="round" stroke-linejoin="round"/>
<path d="M138.147 62.834C124.865 62.834 110.539 74.0007 112.057 98.3645" stroke="#1443BD" stroke-width="2" stroke-linecap="round" stroke-linejoin="round"/>
<path d="M138.147 62.834C124.865 62.834 110.539 74.0007 112.057 98.3645" stroke="white" stroke-opacity="0.85" stroke-width="2" stroke-linecap="round" stroke-linejoin="round"/>
<rect width="11.3848" height="15.6888" rx="5.6924" transform="matrix(-1 0 0 1 119.172 97.4419)" fill="#2A84C6"/>
<rect width="11.3848" height="15.6888" rx="5.6924" transform="matrix(-1 0 0 1 117.275 97.4419)" fill="#2A84C6"/>
<rect width="11.3848" height="15.6888" rx="5.6924" transform="matrix(-1 0 0 1 117.275 97.4419)" fill="white" fill-opacity="0.65"/>
</g>
<g clip-path="url(#clip0_309_844)">
<path fill-rule="evenodd" clip-rule="evenodd" d="M309.188 76.2461C296.646 76.2461 286.48 86.1356 286.48 98.3348V98.3912C286.48 110.59 296.646 120.48 309.188 120.48H342.675C343.926 120.48 345.153 120.382 346.349 120.192L352.837 126.288C353.013 126.454 353.249 126.546 353.494 126.546C354.017 126.546 354.44 126.134 354.44 125.626L354.441 117.287C361 113.414 365.383 106.401 365.383 98.3912V98.3348C365.383 86.1356 355.216 76.2461 342.675 76.2461H309.188Z" fill="#1443BD"/>
<path fill-rule="evenodd" clip-rule="evenodd" d="M309.188 76.2461C296.646 76.2461 286.48 86.1356 286.48 98.3348V98.3912C286.48 110.59 296.646 120.48 309.188 120.48H342.675C343.926 120.48 345.153 120.382 346.349 120.192L352.837 126.288C353.013 126.454 353.249 126.546 353.494 126.546C354.017 126.546 354.44 126.134 354.44 125.626L354.441 117.287C361 113.414 365.383 106.401 365.383 98.3912V98.3348C365.383 86.1356 355.216 76.2461 342.675 76.2461H309.188Z" fill="white" fill-opacity="0.65"/>
<g filter="url(#filter0_ddddd_309_844)">
<path d="M314.696 23.3257H266.881C248.965 23.3257 234.441 37.4535 234.441 54.881C234.441 72.3085 248.965 86.4363 266.881 86.4363H314.696C332.611 86.4363 347.135 72.3085 347.135 54.881C347.135 37.4535 332.611 23.3257 314.696 23.3257Z" fill="white"/>
</g>
<g filter="url(#filter1_ddddd_309_844)">
<path fill-rule="evenodd" clip-rule="evenodd" d="M250.07 77.2568V93.7764C250.07 94.5025 250.675 95.0912 251.421 95.0912C251.772 95.0912 252.108 94.959 252.36 94.7225L264.839 83.0096L250.07 77.2568Z" fill="white"/>
</g>
<path d="M269.077 58.825C271.97 58.825 274.315 56.5439 274.315 53.7301C274.315 50.9163 271.97 48.6353 269.077 48.6353C266.185 48.6353 263.84 50.9163 263.84 53.7301C263.84 56.5439 266.185 58.825 269.077 58.825Z" fill="#1443BD"/>
<path d="M269.077 58.825C271.97 58.825 274.315 56.5439 274.315 53.7301C274.315 50.9163 271.97 48.6353 269.077 48.6353C266.185 48.6353 263.84 50.9163 263.84 53.7301C263.84 56.5439 266.185 58.825 269.077 58.825Z" fill="black" fill-opacity="0.5"/>
<path d="M290.535 58.825C293.428 58.825 295.773 56.5439 295.773 53.7301C295.773 50.9163 293.428 48.6353 290.535 48.6353C287.642 48.6353 285.297 50.9163 285.297 53.7301C285.297 56.5439 287.642 58.825 290.535 58.825Z" fill="#1443BD"/>
<path d="M290.535 58.825C293.428 58.825 295.773 56.5439 295.773 53.7301C295.773 50.9163 293.428 48.6353 290.535 48.6353C287.642 48.6353 285.297 50.9163 285.297 53.7301C285.297 56.5439 287.642 58.825 290.535 58.825Z" fill="black" fill-opacity="0.5"/>
<path d="M312.499 58.825C315.392 58.825 317.737 56.5439 317.737 53.7301C317.737 50.9163 315.392 48.6353 312.499 48.6353C309.607 48.6353 307.262 50.9163 307.262 53.7301C307.262 56.5439 309.607 58.825 312.499 58.825Z" fill="#1443BD"/>
<path d="M312.499 58.825C315.392 58.825 317.737 56.5439 317.737 53.7301C317.737 50.9163 315.392 48.6353 312.499 48.6353C309.607 48.6353 307.262 50.9163 307.262 53.7301C307.262 56.5439 309.607 58.825 312.499 58.825Z" fill="black" fill-opacity="0.5"/>
</g>
<defs>
<filter id="filter0_ddddd_309_844" x="164.441" y="-6.67432" width="252.694" height="203.111" filterUnits="userSpaceOnUse" color-interpolation-filters="sRGB">
<feFlood flood-opacity="0" result="BackgroundImageFix"/>
<feColorMatrix in="SourceAlpha" type="matrix" values="0 0 0 0 0 0 0 0 0 0 0 0 0 0 0 0 0 0 127 0" result="hardAlpha"/>
<feOffset dy="6"/>
<feGaussianBlur stdDeviation="4"/>
<feColorMatrix type="matrix" values="0 0 0 0 0.705882 0 0 0 0 0.831373 0 0 0 0 0.921569 0 0 0 0.12 0"/>
<feBlend mode="normal" in2="BackgroundImageFix" result="effect1_dropShadow_309_844"/>
<feColorMatrix in="SourceAlpha" type="matrix" values="0 0 0 0 0 0 0 0 0 0 0 0 0 0 0 0 0 0 127 0" result="hardAlpha"/>
<feOffset dy="8"/>
<feGaussianBlur stdDeviation="12"/>
<feColorMatrix type="matrix" values="0 0 0 0 0.705882 0 0 0 0 0.831373 0 0 0 0 0.921569 0 0 0 0.08 0"/>
<feBlend mode="normal" in2="effect1_dropShadow_309_844" result="effect2_dropShadow_309_844"/>
<feColorMatrix in="SourceAlpha" type="matrix" values="0 0 0 0 0 0 0 0 0 0 0 0 0 0 0 0 0 0 127 0" result="hardAlpha"/>
<feOffset dy="16"/>
<feGaussianBlur stdDeviation="18"/>
<feColorMatrix type="matrix" values="0 0 0 0 0.705882 0 0 0 0 0.831373 0 0 0 0 0.921569 0 0 0 0.04 0"/>
<feBlend mode="normal" in2="effect2_dropShadow_309_844" result="effect3_dropShadow_309_844"/>
<feColorMatrix in="SourceAlpha" type="matrix" values="0 0 0 0 0 0 0 0 0 0 0 0 0 0 0 0 0 0 127 0" result="hardAlpha"/>
<feOffset dy="40"/>
<feGaussianBlur stdDeviation="35"/>
<feColorMatrix type="matrix" values="0 0 0 0 0.705882 0 0 0 0 0.831373 0 0 0 0 0.921569 0 0 0 0.04 0"/>
<feBlend mode="normal" in2="effect3_dropShadow_309_844" result="effect4_dropShadow_309_844"/>
<feColorMatrix in="SourceAlpha" type="matrix" values="0 0 0 0 0 0 0 0 0 0 0 0 0 0 0 0 0 0 127 0" result="hardAlpha"/>
<feOffset dy="2"/>
<feGaussianBlur stdDeviation="2"/>
<feColorMatrix type="matrix" values="0 0 0 0 0.87451 0 0 0 0 0.929412 0 0 0 0 0.964706 0 0 0 0.4 0"/>
<feBlend mode="normal" in2="effect4_dropShadow_309_844" result="effect5_dropShadow_309_844"/>
<feBlend mode="normal" in="SourceGraphic" in2="effect5_dropShadow_309_844" result="shape"/>
</filter>
<filter id="filter1_ddddd_309_844" x="180.07" y="47.2568" width="154.77" height="157.834" filterUnits="userSpaceOnUse" color-interpolation-filters="sRGB">
<feFlood flood-opacity="0" result="BackgroundImageFix"/>
<feColorMatrix in="SourceAlpha" type="matrix" values="0 0 0 0 0 0 0 0 0 0 0 0 0 0 0 0 0 0 127 0" result="hardAlpha"/>
<feOffset dy="6"/>
<feGaussianBlur stdDeviation="4"/>
<feColorMatrix type="matrix" values="0 0 0 0 0.705882 0 0 0 0 0.831373 0 0 0 0 0.921569 0 0 0 0.12 0"/>
<feBlend mode="normal" in2="BackgroundImageFix" result="effect1_dropShadow_309_844"/>
<feColorMatrix in="SourceAlpha" type="matrix" values="0 0 0 0 0 0 0 0 0 0 0 0 0 0 0 0 0 0 127 0" result="hardAlpha"/>
<feOffset dy="8"/>
<feGaussianBlur stdDeviation="12"/>
<feColorMatrix type="matrix" values="0 0 0 0 0.705882 0 0 0 0 0.831373 0 0 0 0 0.921569 0 0 0 0.08 0"/>
<feBlend mode="normal" in2="effect1_dropShadow_309_844" result="effect2_dropShadow_309_844"/>
<feColorMatrix in="SourceAlpha" type="matrix" values="0 0 0 0 0 0 0 0 0 0 0 0 0 0 0 0 0 0 127 0" result="hardAlpha"/>
<feOffset dy="16"/>
<feGaussianBlur stdDeviation="18"/>
<feColorMatrix type="matrix" values="0 0 0 0 0.705882 0 0 0 0 0.831373 0 0 0 0 0.921569 0 0 0 0.04 0"/>
<feBlend mode="normal" in2="effect2_dropShadow_309_844" result="effect3_dropShadow_309_844"/>
<feColorMatrix in="SourceAlpha" type="matrix" values="0 0 0 0 0 0 0 0 0 0 0 0 0 0 0 0 0 0 127 0" result="hardAlpha"/>
<feOffset dy="40"/>
<feGaussianBlur stdDeviation="35"/>
<feColorMatrix type="matrix" values="0 0 0 0 0.705882 0 0 0 0 0.831373 0 0 0 0 0.921569 0 0 0 0.04 0"/>
<feBlend mode="normal" in2="effect3_dropShadow_309_844" result="effect4_dropShadow_309_844"/>
<feColorMatrix in="SourceAlpha" type="matrix" values="0 0 0 0 0 0 0 0 0 0 0 0 0 0 0 0 0 0 127 0" result="hardAlpha"/>
<feOffset dy="2"/>
<feGaussianBlur stdDeviation="2"/>
<feColorMatrix type="matrix" values="0 0 0 0 0.87451 0 0 0 0 0.929412 0 0 0 0 0.964706 0 0 0 0.4 0"/>
<feBlend mode="normal" in2="effect4_dropShadow_309_844" result="effect5_dropShadow_309_844"/>
<feBlend mode="normal" in="SourceGraphic" in2="effect5_dropShadow_309_844" result="shape"/>
</filter>
<clipPath id="clip0_309_844">
<rect width="144.176" height="140.246" fill="white" transform="translate(227.824 4.83594)"/>
</clipPath>
</defs>
</svg>
