<svg width="552" height="628" viewBox="0 0 552 628" fill="none" xmlns="http://www.w3.org/2000/svg">
<path d="M423.999 390.004C464.809 343.4 486.024 280.5 477.229 214.675C463.437 111.449 380.243 33.9833 280 21.8564" stroke="#E5E5E5" stroke-width="2" stroke-dasharray="12 8"/>
<path fill-rule="evenodd" clip-rule="evenodd" d="M70.8383 425.957C70.8383 425.957 68.2141 405.313 96.5563 396.023C124.899 386.733 131.197 391.636 131.197 391.636L128.572 399.894C128.572 399.894 124.111 420.538 103.642 423.376C83.1724 426.215 75.2996 422.086 70.8383 425.957Z" fill="#B7EE81"/>
<path fill-rule="evenodd" clip-rule="evenodd" d="M70.8383 425.957C70.8383 425.957 68.2141 405.313 96.5563 396.023C124.899 386.733 131.197 391.636 131.197 391.636L128.572 399.894C128.572 399.894 124.111 420.538 103.642 423.376C83.1724 426.215 75.2996 422.086 70.8383 425.957Z" fill="white" fill-opacity="0.2"/>
<path d="M128.158 392.611L128.987 393.244L128.918 393.328C128.888 393.365 128.851 393.409 128.807 393.461L128.676 393.613C128.584 393.719 128.483 393.834 128.372 393.956L128.286 394.049C127.711 394.677 127.015 395.376 126.2 396.127C123.874 398.268 121.044 400.407 117.694 402.402C110.968 406.409 103.025 409.321 93.824 410.678L93.4826 410.727C87.2892 411.611 82.3539 413.634 78.5309 416.449C76.6969 417.8 75.2415 419.244 74.1259 420.686C73.7376 421.188 73.4199 421.652 73.168 422.067L73.0858 422.205C73.0471 422.271 73.012 422.333 72.9805 422.39L72.8926 422.555L72.8873 422.566L71.9386 422.124L71.9676 422.066C72.0276 421.948 72.1263 421.769 72.2666 421.538C72.5382 421.091 72.8779 420.594 73.2905 420.061C74.4633 418.545 75.9873 417.033 77.9017 415.623C81.808 412.747 86.8189 410.675 93.0597 409.745L93.3318 409.706C102.535 408.392 110.458 405.506 117.15 401.519C120.436 399.562 123.208 397.467 125.482 395.373C126.223 394.691 126.86 394.055 127.394 393.48L127.507 393.358C127.673 393.177 127.818 393.014 127.941 392.87L128.08 392.706L128.158 392.611Z" fill="#B7EE81"/>
<path d="M128.158 392.611L128.987 393.244L128.918 393.328C128.888 393.365 128.851 393.409 128.807 393.461L128.676 393.613C128.584 393.719 128.483 393.834 128.372 393.956L128.286 394.049C127.711 394.677 127.015 395.376 126.2 396.127C123.874 398.268 121.044 400.407 117.694 402.402C110.968 406.409 103.025 409.321 93.824 410.678L93.4826 410.727C87.2892 411.611 82.3539 413.634 78.5309 416.449C76.6969 417.8 75.2415 419.244 74.1259 420.686C73.7376 421.188 73.4199 421.652 73.168 422.067L73.0858 422.205C73.0471 422.271 73.012 422.333 72.9805 422.39L72.8926 422.555L72.8873 422.566L71.9386 422.124L71.9676 422.066C72.0276 421.948 72.1263 421.769 72.2666 421.538C72.5382 421.091 72.8779 420.594 73.2905 420.061C74.4633 418.545 75.9873 417.033 77.9017 415.623C81.808 412.747 86.8189 410.675 93.0597 409.745L93.3318 409.706C102.535 408.392 110.458 405.506 117.15 401.519C120.436 399.562 123.208 397.467 125.482 395.373C126.223 394.691 126.86 394.055 127.394 393.48L127.507 393.358C127.673 393.177 127.818 393.014 127.941 392.87L128.08 392.706L128.158 392.611Z" fill="white" fill-opacity="0.2"/>
<path fill-rule="evenodd" clip-rule="evenodd" d="M127.785 439.892H131.196V391.636H127.785L128.704 406.463C128.966 410.682 128.994 414.912 128.79 419.134L127.785 439.892Z" fill="#B7EE81"/>
<path fill-rule="evenodd" clip-rule="evenodd" d="M127.785 439.892H131.196V391.636H127.785L128.704 406.463C128.966 410.682 128.994 414.912 128.79 419.134L127.785 439.892Z" fill="white" fill-opacity="0.2"/>
<path fill-rule="evenodd" clip-rule="evenodd" d="M75.2413 355.303C75.2413 355.303 85.6872 339.683 110.574 349.58C135.46 359.477 136.707 367.38 136.707 367.38L130.169 370.581C130.169 370.581 114.879 382.139 99.1999 372.345C83.5214 362.55 80.5867 355.214 75.2413 355.303Z" fill="#B7EE81"/>
<path fill-rule="evenodd" clip-rule="evenodd" d="M75.2413 355.303C75.2413 355.303 85.6872 339.683 110.574 349.58C135.46 359.477 136.707 367.38 136.707 367.38L130.169 370.581C130.169 370.581 114.879 382.139 99.1999 372.345C83.5214 362.55 80.5867 355.214 75.2413 355.303Z" fill="white" fill-opacity="0.2"/>
<path fill-rule="evenodd" clip-rule="evenodd" d="M133.296 453.31H135.92L136.948 368.127C136.961 367.077 136.257 366.147 135.23 365.859L133.296 365.315C133.296 365.315 133.955 373.23 133.821 383.121C133.693 392.582 132.771 403.84 132.771 412.179C132.771 435.763 133.296 453.31 133.296 453.31Z" fill="#B7EE81"/>
<path fill-rule="evenodd" clip-rule="evenodd" d="M133.296 453.31H135.92L136.948 368.127C136.961 367.077 136.257 366.147 135.23 365.859L133.296 365.315C133.296 365.315 133.955 373.23 133.821 383.121C133.693 392.582 132.771 403.84 132.771 412.179C132.771 435.763 133.296 453.31 133.296 453.31Z" fill="white" fill-opacity="0.2"/>
<path fill-rule="evenodd" clip-rule="evenodd" d="M110.727 354.735C122.052 363.378 133.558 368.928 133.558 368.928L130.169 370.581C130.169 370.581 114.879 382.139 99.1999 372.344C83.5214 362.55 80.5867 355.213 75.2413 355.302C75.2413 355.302 93.1444 341.316 110.727 354.735Z" fill="#B7EE81"/>
<path fill-rule="evenodd" clip-rule="evenodd" d="M110.727 354.735C122.052 363.378 133.558 368.928 133.558 368.928L130.169 370.581C130.169 370.581 114.879 382.139 99.1999 372.344C83.5214 362.55 80.5867 355.213 75.2413 355.302C75.2413 355.302 93.1444 341.316 110.727 354.735Z" fill="black" fill-opacity="0.2"/>
<path fill-rule="evenodd" clip-rule="evenodd" d="M198.052 392.248C198.052 392.248 191.005 381.765 174.217 388.407C157.43 395.05 156.588 400.354 156.588 400.354L160.999 402.503C160.999 402.503 171.313 410.261 181.89 403.687C192.466 397.113 194.446 392.189 198.052 392.248Z" fill="#B7EE81"/>
<path fill-rule="evenodd" clip-rule="evenodd" d="M198.052 392.248C198.052 392.248 191.005 381.765 174.217 388.407C157.43 395.05 156.588 400.354 156.588 400.354L160.999 402.503C160.999 402.503 171.313 410.261 181.89 403.687C192.466 397.113 194.446 392.189 198.052 392.248Z" fill="white" fill-opacity="0.2"/>
<path fill-rule="evenodd" clip-rule="evenodd" d="M158.85 458.457H157.036L156.326 401.002C156.317 400.293 156.803 399.666 157.513 399.472L158.85 399.105C158.85 399.105 158.394 404.444 158.487 411.115C158.576 417.496 159.212 425.09 159.212 430.714C159.212 446.621 158.85 458.457 158.85 458.457Z" fill="#B7EE81"/>
<path fill-rule="evenodd" clip-rule="evenodd" d="M158.85 458.457H157.036L156.326 401.002C156.317 400.293 156.803 399.666 157.513 399.472L158.85 399.105C158.85 399.105 158.394 404.444 158.487 411.115C158.576 417.496 159.212 425.09 159.212 430.714C159.212 446.621 158.85 458.457 158.85 458.457Z" fill="white" fill-opacity="0.2"/>
<path fill-rule="evenodd" clip-rule="evenodd" d="M200.011 335.433C200.011 335.433 189.565 319.814 164.678 329.711C139.792 339.607 138.545 347.51 138.545 347.51L145.083 350.712C145.083 350.712 160.373 362.269 176.052 352.475C191.731 342.681 194.665 335.344 200.011 335.433Z" fill="#B7EE81"/>
<path fill-rule="evenodd" clip-rule="evenodd" d="M200.011 335.433C200.011 335.433 189.565 319.814 164.678 329.711C139.792 339.607 138.545 347.51 138.545 347.51L145.083 350.712C145.083 350.712 160.373 362.269 176.052 352.475C191.731 342.681 194.665 335.344 200.011 335.433Z" fill="white" fill-opacity="0.2"/>
<path fill-rule="evenodd" clip-rule="evenodd" d="M141.956 436.795H139.332L138.304 348.258C138.291 347.207 138.995 346.278 140.022 345.989L141.956 345.446C141.956 345.446 141.297 353.361 141.431 363.251C141.56 372.712 142.481 383.971 142.481 392.309C142.481 415.893 141.956 436.795 141.956 436.795Z" fill="#B7EE81"/>
<path fill-rule="evenodd" clip-rule="evenodd" d="M141.956 436.795H139.332L138.304 348.258C138.291 347.207 138.995 346.278 140.022 345.989L141.956 345.446C141.956 345.446 141.297 353.361 141.431 363.251C141.56 372.712 142.481 383.971 142.481 392.309C142.481 415.893 141.956 436.795 141.956 436.795Z" fill="white" fill-opacity="0.2"/>
<path fill-rule="evenodd" clip-rule="evenodd" d="M200.011 335.433C200.011 335.433 182.108 321.447 164.525 334.865C153.2 343.508 141.694 349.058 141.694 349.058L145.083 350.711C145.083 350.711 160.373 362.269 176.052 352.474C191.731 342.68 194.665 335.344 200.011 335.433Z" fill="#B7EE81"/>
<path fill-rule="evenodd" clip-rule="evenodd" d="M200.011 335.433C200.011 335.433 182.108 321.447 164.525 334.865C153.2 343.508 141.694 349.058 141.694 349.058L145.083 350.711C145.083 350.711 160.373 362.269 176.052 352.474C191.731 342.68 194.665 335.344 200.011 335.433Z" fill="black" fill-opacity="0.2"/>
<path fill-rule="evenodd" clip-rule="evenodd" d="M146.68 436.021H151.141L152.906 381.18L149.545 329.42C149.558 328.369 148.854 327.44 147.826 327.151L145.893 326.608C145.893 326.608 150.091 367.713 150.091 376.052C150.091 399.636 146.68 436.021 146.68 436.021Z" fill="#B7EE81"/>
<path fill-rule="evenodd" clip-rule="evenodd" d="M146.68 436.021H151.141L152.906 381.18L149.545 329.42C149.558 328.369 148.854 327.44 147.826 327.151L145.893 326.608C145.893 326.608 150.091 367.713 150.091 376.052C150.091 399.636 146.68 436.021 146.68 436.021Z" fill="white" fill-opacity="0.2"/>
<path fill-rule="evenodd" clip-rule="evenodd" d="M96.4758 297.647C96.4758 297.647 106.004 283.772 128.573 297.706C151.307 311.743 149.728 330.157 149.728 330.157L142.463 330.901C142.463 330.901 124.022 336.45 112.833 321.87C101.645 307.29 101.513 299.408 96.4758 297.647Z" fill="#B7EE81"/>
<path fill-rule="evenodd" clip-rule="evenodd" d="M96.4758 297.647C96.4758 297.647 106.004 283.772 128.573 297.706C151.307 311.743 149.728 330.157 149.728 330.157L142.463 330.901C142.463 330.901 124.022 336.45 112.833 321.87C101.645 307.29 101.513 299.408 96.4758 297.647Z" fill="white" fill-opacity="0.2"/>
<path fill-rule="evenodd" clip-rule="evenodd" d="M96.4758 297.647C96.4758 297.647 106.733 290.212 115.451 300.802C119.912 306.221 127.805 310.307 131.197 313.447C140.007 321.604 146.227 330.521 146.227 330.521L142.463 330.9C142.463 330.9 124.022 336.449 112.833 321.869C101.645 307.29 101.513 299.407 96.4758 297.647Z" fill="#B7EE81"/>
<path fill-rule="evenodd" clip-rule="evenodd" d="M96.4758 297.647C96.4758 297.647 106.733 290.212 115.451 300.802C119.912 306.221 127.805 310.307 131.197 313.447C140.007 321.604 146.227 330.521 146.227 330.521L142.463 330.9C142.463 330.9 124.022 336.449 112.833 321.869C101.645 307.29 101.513 299.407 96.4758 297.647Z" fill="black" fill-opacity="0.2"/>
<path fill-rule="evenodd" clip-rule="evenodd" d="M163.205 508.275H120.557C117.079 508.275 114.248 505.502 114.248 502.082L104.365 442.214C104.365 438.794 107.185 436.021 110.663 436.021H171.546C175.025 436.021 177.845 438.794 177.845 442.214L169.637 502.082C169.637 505.502 166.683 508.275 163.205 508.275Z" fill="#1443BD"/>
<path fill-rule="evenodd" clip-rule="evenodd" d="M163.205 508.275H120.557C117.079 508.275 114.248 505.502 114.248 502.082L104.365 442.214C104.365 438.794 107.185 436.021 110.663 436.021H171.546C175.025 436.021 177.845 438.794 177.845 442.214L169.637 502.082C169.637 505.502 166.683 508.275 163.205 508.275Z" fill="black" fill-opacity="0.2"/>
<path fill-rule="evenodd" clip-rule="evenodd" d="M267.41 386.061C267.41 392.768 261.881 398.205 255.061 398.205C248.241 398.205 242.711 392.768 242.711 386.061C242.711 379.355 248.241 373.918 255.061 373.918C261.881 373.918 267.41 379.355 267.41 386.061Z" fill="#1443BD"/>
<path fill-rule="evenodd" clip-rule="evenodd" d="M267.41 386.061C267.41 392.768 261.881 398.205 255.061 398.205C248.241 398.205 242.711 392.768 242.711 386.061C242.711 379.355 248.241 373.918 255.061 373.918C261.881 373.918 267.41 379.355 267.41 386.061Z" fill="black" fill-opacity="0.5"/>
<path fill-rule="evenodd" clip-rule="evenodd" d="M252.743 495.351H257.524V389.688H252.743V495.351Z" fill="#1443BD"/>
<path fill-rule="evenodd" clip-rule="evenodd" d="M252.743 495.351H257.524V389.688H252.743V495.351Z" fill="black" fill-opacity="0.5"/>
<path fill-rule="evenodd" clip-rule="evenodd" d="M252.744 495.35L197.068 504.469L193.475 501.918L252.744 484.752V495.35Z" fill="#1443BD"/>
<path fill-rule="evenodd" clip-rule="evenodd" d="M252.744 495.35L197.068 504.469L193.475 501.918L252.744 484.752V495.35Z" fill="black" fill-opacity="0.5"/>
<path fill-rule="evenodd" clip-rule="evenodd" d="M257.524 495.35L313.199 504.469L316.792 501.918L257.524 484.752V495.35Z" fill="#1443BD"/>
<path fill-rule="evenodd" clip-rule="evenodd" d="M257.524 495.35L313.199 504.469L316.792 501.918L257.524 484.752V495.35Z" fill="black" fill-opacity="0.5"/>
<path fill-rule="evenodd" clip-rule="evenodd" d="M251.341 507.61H258.926V492.3H251.341V507.61Z" fill="#1443BD"/>
<path fill-rule="evenodd" clip-rule="evenodd" d="M251.341 507.61H258.926V492.3H251.341V507.61Z" fill="black" fill-opacity="0.5"/>
<path fill-rule="evenodd" clip-rule="evenodd" d="M202.285 507.814C202.285 511.31 199.402 514.144 195.848 514.144C192.292 514.144 189.41 511.31 189.41 507.814C189.41 504.318 192.292 501.484 195.848 501.484C199.402 501.484 202.285 504.318 202.285 507.814Z" fill="#1443BD"/>
<path fill-rule="evenodd" clip-rule="evenodd" d="M202.285 507.814C202.285 511.31 199.402 514.144 195.848 514.144C192.292 514.144 189.41 511.31 189.41 507.814C189.41 504.318 192.292 501.484 195.848 501.484C199.402 501.484 202.285 504.318 202.285 507.814Z" fill="black" fill-opacity="0.5"/>
<path fill-rule="evenodd" clip-rule="evenodd" d="M261.571 507.814C261.571 511.31 258.689 514.144 255.133 514.144C251.579 514.144 248.696 511.31 248.696 507.814C248.696 504.318 251.579 501.484 255.133 501.484C258.689 501.484 261.571 504.318 261.571 507.814Z" fill="#1443BD"/>
<path fill-rule="evenodd" clip-rule="evenodd" d="M261.571 507.814C261.571 511.31 258.689 514.144 255.133 514.144C251.579 514.144 248.696 511.31 248.696 507.814C248.696 504.318 251.579 501.484 255.133 501.484C258.689 501.484 261.571 504.318 261.571 507.814Z" fill="black" fill-opacity="0.5"/>
<path fill-rule="evenodd" clip-rule="evenodd" d="M321.421 507.814C321.421 511.31 318.539 514.144 314.983 514.144C311.429 514.144 308.546 511.31 308.546 507.814C308.546 504.318 311.429 501.484 314.983 501.484C318.539 501.484 321.421 504.318 321.421 507.814Z" fill="#1443BD"/>
<path fill-rule="evenodd" clip-rule="evenodd" d="M321.421 507.814C321.421 511.31 318.539 514.144 314.983 514.144C311.429 514.144 308.546 511.31 308.546 507.814C308.546 504.318 311.429 501.484 314.983 501.484C318.539 501.484 321.421 504.318 321.421 507.814Z" fill="black" fill-opacity="0.5"/>
<path fill-rule="evenodd" clip-rule="evenodd" d="M332.469 383.832H177.651C177.651 368.87 189.986 356.74 205.203 356.74H304.918C320.134 356.74 332.469 368.87 332.469 383.832Z" fill="#2A84C6"/>
<path fill-rule="evenodd" clip-rule="evenodd" d="M332.469 383.832H177.651C177.651 368.87 189.986 356.74 205.203 356.74H304.918C320.134 356.74 332.469 368.87 332.469 383.832Z" fill="white" fill-opacity="0.5"/>
<g clip-path="url(#clip0_309_478)">
<path fill-rule="evenodd" clip-rule="evenodd" d="M446.297 35.3173H334.657V25.9549C334.657 23.924 336.416 22.2773 338.586 22.2773H442.368C444.538 22.2773 446.297 23.924 446.297 25.9549V35.3173Z" fill="#1443BD"/>
<path fill-rule="evenodd" clip-rule="evenodd" d="M446.297 35.3173H334.657V25.9549C334.657 23.924 336.416 22.2773 338.586 22.2773H442.368C444.538 22.2773 446.297 23.924 446.297 25.9549V35.3173Z" fill="black" fill-opacity="0.5"/>
<path fill-rule="evenodd" clip-rule="evenodd" d="M442.368 130.287H338.586C336.416 130.287 334.657 128.564 334.657 126.439V34.8276H446.297V126.439C446.297 128.564 444.538 130.287 442.368 130.287Z" fill="#2A84C6"/>
<path fill-rule="evenodd" clip-rule="evenodd" d="M442.368 130.287H338.586C336.416 130.287 334.657 128.564 334.657 126.439V34.8276H446.297V126.439C446.297 128.564 444.538 130.287 442.368 130.287Z" fill="white" fill-opacity="0.85"/>
<path fill-rule="evenodd" clip-rule="evenodd" d="M343.816 28.7614C343.816 30.0821 342.723 31.1528 341.374 31.1528C340.025 31.1528 338.932 30.0821 338.932 28.7614C338.932 27.4408 340.025 26.3701 341.374 26.3701C342.723 26.3701 343.816 27.4408 343.816 28.7614Z" fill="#F56D7E"/>
<path fill-rule="evenodd" clip-rule="evenodd" d="M352.365 28.7614C352.365 30.0821 351.271 31.1528 349.922 31.1528C348.573 31.1528 347.48 30.0821 347.48 28.7614C347.48 27.4408 348.573 26.3701 349.922 26.3701C351.271 26.3701 352.365 27.4408 352.365 28.7614Z" fill="#F1F380"/>
<path fill-rule="evenodd" clip-rule="evenodd" d="M362.134 28.7614C362.134 30.0821 361.041 31.1528 359.692 31.1528C358.343 31.1528 357.25 30.0821 357.25 28.7614C357.25 27.4408 358.343 26.3701 359.692 26.3701C361.041 26.3701 362.134 27.4408 362.134 28.7614Z" fill="#B7EE81"/>
<path fill-rule="evenodd" clip-rule="evenodd" d="M362.134 28.7614C362.134 30.0821 361.041 31.1528 359.692 31.1528C358.343 31.1528 357.25 30.0821 357.25 28.7614C357.25 27.4408 358.343 26.3701 359.692 26.3701C361.041 26.3701 362.134 27.4408 362.134 28.7614Z" fill="white" fill-opacity="0.2"/>
<path fill-rule="evenodd" clip-rule="evenodd" d="M346.544 117.837C345.868 117.837 345.321 117.297 345.321 116.631V46.7057C345.321 46.0396 345.868 45.4995 346.544 45.4995H435.077C435.752 45.4995 436.3 46.0396 436.3 46.7057V116.631C436.3 117.297 435.752 117.837 435.077 117.837H346.544Z" fill="white"/>
<g filter="url(#filter0_iii_309_478)">
<path d="M355 60C355 57.7909 356.791 56 359 56H421.128C423.338 56 425.128 57.7909 425.128 60V61.9648C425.128 64.174 423.338 65.9648 421.128 65.9648H359C356.791 65.9648 355 64.174 355 61.9648V60Z" fill="white"/>
</g>
<g filter="url(#filter1_iii_309_478)">
<path d="M355 81.2578C355 79.0487 356.791 77.2578 359 77.2578H421.128C423.338 77.2578 425.128 79.0487 425.128 81.2578V83.2226C425.128 85.4318 423.338 87.2226 421.128 87.2226H359C356.791 87.2226 355 85.4318 355 83.2226V81.2578Z" fill="white"/>
</g>
<g filter="url(#filter2_ddddd_309_478)">
<path d="M355 103.499C355 100.747 357.231 98.5161 359.982 98.5161H420.146C422.898 98.5161 425.128 100.747 425.128 103.499C425.128 106.25 422.898 108.481 420.146 108.481H359.982C357.231 108.481 355 106.25 355 103.499Z" fill="#2A84C6"/>
</g>
</g>
<path fill-rule="evenodd" clip-rule="evenodd" d="M309.506 164.282C309.506 164.282 323 163.511 325.307 177.662C337.815 183.375 333.078 196.929 333.078 196.929C333.078 196.929 338.61 208.361 325.236 212.843C323.228 223.905 310.52 220.785 310.52 220.785C310.52 220.785 306.673 229.139 297.191 224.761C285.917 231.945 266.147 228.635 259.944 218.155C245.022 227.257 221.73 212.628 225.615 203.494C209.327 201.131 202.887 183.382 213.754 169.69C207.39 157.592 216.385 151.534 216.385 151.534C216.385 151.534 216.376 124.984 235.241 123.009C246.02 109.628 265.637 122.78 265.637 122.78C265.637 122.78 279.538 121.15 283.412 133.222C298.471 136.825 297.032 145.013 297.598 152.039C311.189 153.958 309.506 164.282 309.506 164.282Z" fill="#1443BD"/>
<path fill-rule="evenodd" clip-rule="evenodd" d="M309.506 164.282C309.506 164.282 323 163.511 325.307 177.662C337.815 183.375 333.078 196.929 333.078 196.929C333.078 196.929 338.61 208.361 325.236 212.843C323.228 223.905 310.52 220.785 310.52 220.785C310.52 220.785 306.673 229.139 297.191 224.761C285.917 231.945 266.147 228.635 259.944 218.155C245.022 227.257 221.73 212.628 225.615 203.494C209.327 201.131 202.887 183.382 213.754 169.69C207.39 157.592 216.385 151.534 216.385 151.534C216.385 151.534 216.376 124.984 235.241 123.009C246.02 109.628 265.637 122.78 265.637 122.78C265.637 122.78 279.538 121.15 283.412 133.222C298.471 136.825 297.032 145.013 297.598 152.039C311.189 153.958 309.506 164.282 309.506 164.282Z" fill="black" fill-opacity="0.5"/>
<path fill-rule="evenodd" clip-rule="evenodd" d="M268.286 147.822C257.423 148.762 254.869 140.523 254.869 140.523C254.869 140.523 251.438 128.935 249.702 135.724C248.781 139.33 243.454 133.989 240.468 137.665C238.458 140.139 242.61 143.899 236.213 150.407C232.508 154.177 245.441 158.533 236.63 165.314C236.63 165.314 241.628 174.929 231.409 177.06L229.415 187.666C228.255 193.839 232.765 199.649 239.126 200.179C245.19 200.683 250.482 196.164 250.821 190.187L251.561 177.111C267.023 178.422 269.611 157.589 268.286 147.822Z" fill="#FFC999"/>
<path fill-rule="evenodd" clip-rule="evenodd" d="M256.881 161.511C252.407 161.558 248.491 158.99 248.491 158.99C248.491 158.99 247.325 164.72 251.055 165.407C254.677 166.075 256.881 161.511 256.881 161.511Z" fill="white"/>
<path d="M247.851 158.863L247.807 159.108C247.791 159.21 247.774 159.332 247.757 159.471C247.64 160.408 247.622 161.393 247.768 162.329C248.077 164.311 249.074 165.695 250.935 166.038C252.881 166.397 254.587 165.529 256.018 163.914C256.428 163.451 256.786 162.957 257.09 162.463C257.275 162.164 257.402 161.929 257.471 161.786C257.678 161.357 257.357 160.863 256.874 160.868C255.002 160.888 253.08 160.432 251.222 159.659C250.582 159.393 249.997 159.108 249.48 158.823L249.24 158.688C249.06 158.585 248.93 158.505 248.853 158.455C248.467 158.202 247.942 158.415 247.851 158.863ZM248.993 160.256L249.011 160.034L248.842 159.944C249.399 160.25 250.027 160.556 250.713 160.842L251.09 160.995C252.468 161.536 253.88 161.913 255.296 162.071L255.768 162.114L255.629 162.317C255.446 162.575 255.247 162.828 255.033 163.07C253.875 164.377 252.582 165.035 251.175 164.775C249.953 164.55 249.293 163.633 249.059 162.134C248.965 161.532 248.951 160.89 248.993 160.256Z" fill="#F56D7E"/>
<path d="M253.642 158.43C253.858 158.425 254.215 158.38 254.716 158.258C255.484 158.071 256.384 157.751 257.418 157.267L257.601 157.179L257.448 156.897C256.744 155.566 256.265 154.268 255.976 153.026L255.903 152.688C255.705 151.729 255.642 150.922 255.661 150.304L255.677 150.016C255.678 150.003 255.679 149.991 255.68 149.982C255.71 149.717 255.953 149.527 256.222 149.557C256.464 149.584 256.644 149.779 256.656 150.011L256.647 150.18C256.614 150.739 256.663 151.526 256.863 152.497C257.165 153.965 257.755 155.529 258.703 157.145C258.843 157.383 258.752 157.688 258.503 157.814C257.131 158.507 255.948 158.951 254.951 159.193C254.373 159.333 253.937 159.389 253.641 159.393L253.509 159.391C253.239 159.375 253.034 159.146 253.051 158.88C253.066 158.642 253.256 158.454 253.49 158.431L253.568 158.429L253.642 158.43Z" fill="#DD936F"/>
<path d="M246.192 146.11C248.19 146.28 249.464 148.732 249.22 151.506C249.19 151.846 248.885 152.099 248.539 152.069C248.193 152.04 247.936 151.74 247.966 151.399C248.157 149.22 247.233 147.441 246.084 147.343C244.936 147.247 243.716 148.844 243.524 151.022C243.494 151.363 243.188 151.615 242.842 151.586C242.496 151.556 242.239 151.256 242.269 150.915C242.508 148.212 244.112 146.052 246.042 146.101L246.192 146.11Z" fill="#1443BD"/>
<path d="M246.192 146.11C248.19 146.28 249.464 148.732 249.22 151.506C249.19 151.846 248.885 152.099 248.539 152.069C248.193 152.04 247.936 151.74 247.966 151.399C248.157 149.22 247.233 147.441 246.084 147.343C244.936 147.247 243.716 148.844 243.524 151.022C243.494 151.363 243.188 151.615 242.842 151.586C242.496 151.556 242.239 151.256 242.269 150.915C242.508 148.212 244.112 146.052 246.042 146.101L246.192 146.11Z" fill="black" fill-opacity="0.5"/>
<path d="M263.104 149.064C265.101 149.233 266.375 151.685 266.132 154.459C266.102 154.8 265.797 155.052 265.451 155.023C265.104 154.993 264.848 154.693 264.878 154.353C265.069 152.174 264.145 150.395 262.996 150.298C261.847 150.201 260.628 151.797 260.436 153.976C260.407 154.316 260.102 154.569 259.755 154.539C259.409 154.51 259.152 154.21 259.182 153.869C259.419 151.165 261.023 149.006 262.955 149.056L263.104 149.064Z" fill="#1443BD"/>
<path d="M263.104 149.064C265.101 149.233 266.375 151.685 266.132 154.459C266.102 154.8 265.797 155.052 265.451 155.023C265.104 154.993 264.848 154.693 264.878 154.353C265.069 152.174 264.145 150.395 262.996 150.298C261.847 150.201 260.628 151.797 260.436 153.976C260.407 154.316 260.102 154.569 259.755 154.539C259.409 154.51 259.152 154.21 259.182 153.869C259.419 151.165 261.023 149.006 262.955 149.056L263.104 149.064Z" fill="black" fill-opacity="0.5"/>
<path d="M241.43 140.304C244.413 138.806 247.256 138.751 249.708 139.564C250.293 139.757 250.716 139.955 250.957 140.096C251.271 140.28 251.374 140.68 251.187 140.989C251 141.298 250.593 141.399 250.279 141.215L250.217 141.181C250.175 141.159 250.116 141.13 250.042 141.096C249.826 140.995 249.573 140.894 249.285 140.798C247.15 140.091 244.672 140.138 242.033 141.464C241.707 141.628 241.308 141.501 241.142 141.18C240.975 140.86 241.104 140.467 241.43 140.304Z" fill="#1443BD"/>
<path d="M241.43 140.304C244.413 138.806 247.256 138.751 249.708 139.564C250.293 139.757 250.716 139.955 250.957 140.096C251.271 140.28 251.374 140.68 251.187 140.989C251 141.298 250.593 141.399 250.279 141.215L250.217 141.181C250.175 141.159 250.116 141.13 250.042 141.096C249.826 140.995 249.573 140.894 249.285 140.798C247.15 140.091 244.672 140.138 242.033 141.464C241.707 141.628 241.308 141.501 241.142 141.18C240.975 140.86 241.104 140.467 241.43 140.304Z" fill="black" fill-opacity="0.5"/>
<path d="M241.886 173.682C242.035 173.46 242.339 173.4 242.565 173.546C245.424 175.406 248.464 176.477 251.582 176.784C251.852 176.81 252.048 177.046 252.021 177.311C251.994 177.575 251.754 177.769 251.485 177.742C248.207 177.42 245.015 176.296 242.024 174.35C241.799 174.203 241.737 173.904 241.886 173.682Z" fill="#DD936F"/>
<path fill-rule="evenodd" clip-rule="evenodd" d="M305.511 278.645L306.321 278.208C312.37 274.938 314.579 267.467 311.255 261.52L280.464 206.428C277.138 200.479 269.541 198.308 263.493 201.577L262.683 202.014C256.635 205.284 254.426 212.753 257.75 218.702L288.542 273.794C291.867 279.741 299.463 281.913 305.511 278.645Z" fill="#FFC999"/>
<path fill-rule="evenodd" clip-rule="evenodd" d="M270.77 241.997L257.533 218.313C254.343 212.604 256.842 205.171 263.088 201.795C269.335 198.421 277.056 200.33 280.247 206.039L293.357 229.498L270.77 241.997Z" fill="#1443BD"/>
<path fill-rule="evenodd" clip-rule="evenodd" d="M270.77 241.997L257.533 218.313C254.343 212.604 256.842 205.171 263.088 201.795C269.335 198.421 277.056 200.33 280.247 206.039L293.357 229.498L270.77 241.997Z" fill="white" fill-opacity="0.35"/>
<path d="M262.577 201.645C262.761 201.545 262.993 201.611 263.094 201.792C263.195 201.974 263.128 202.201 262.944 202.301C256.961 205.534 254.52 212.589 257.413 218.079L257.539 218.31L270.59 241.662L292.843 229.35C293.005 229.259 293.207 229.3 293.322 229.436L293.361 229.492C293.453 229.652 293.411 229.85 293.273 229.964L293.216 230.002L270.629 242.5C270.465 242.591 270.262 242.55 270.148 242.411L270.109 242.355L256.872 218.671C253.577 212.775 256.152 205.118 262.577 201.645Z" fill="#2A84C6"/>
<path d="M262.577 201.645C262.761 201.545 262.993 201.611 263.094 201.792C263.195 201.974 263.128 202.201 262.944 202.301C256.961 205.534 254.52 212.589 257.413 218.079L257.539 218.31L270.59 241.662L292.843 229.35C293.005 229.259 293.207 229.3 293.322 229.436L293.361 229.492C293.453 229.652 293.411 229.85 293.273 229.964L293.216 230.002L270.629 242.5C270.465 242.591 270.262 242.55 270.148 242.411L270.109 242.355L256.872 218.671C253.577 212.775 256.152 205.118 262.577 201.645Z" fill="black" fill-opacity="0.2"/>
<path fill-rule="evenodd" clip-rule="evenodd" d="M282.861 461.133C287.944 463.054 293.679 460.645 295.854 455.675L342.373 349.372C345.724 341.713 341.994 332.875 334.162 329.914C326.331 326.955 317.54 331.059 314.811 338.953L276.932 448.522C275.161 453.645 277.778 459.211 282.861 461.133Z" fill="#FFC999"/>
<path fill-rule="evenodd" clip-rule="evenodd" d="M214.595 326.592C217.866 316.878 226.925 311.163 234.656 313.935L317.77 343.753C324.172 346.05 327.12 354.303 324.411 362.347C321.704 370.391 314.327 375.284 307.798 373.369L223.01 348.52C215.125 346.208 211.324 336.305 214.595 326.592Z" fill="#FFC999"/>
<path fill-rule="evenodd" clip-rule="evenodd" d="M292.099 465.343L273.268 458.879L282.604 429.228L304.224 436.647L292.099 465.343Z" fill="#1443BD"/>
<path fill-rule="evenodd" clip-rule="evenodd" d="M292.099 465.343L273.268 458.879L282.604 429.228L304.224 436.647L292.099 465.343Z" fill="white" fill-opacity="0.35"/>
<path d="M281.341 435.349C281.45 435.041 281.773 434.866 282.089 434.93L282.175 434.953L302.133 441.804C302.475 441.921 302.655 442.288 302.536 442.624C302.427 442.932 302.104 443.106 301.787 443.043L301.702 443.02L281.743 436.169C281.402 436.052 281.222 435.685 281.341 435.349Z" fill="#2A84C6"/>
<path d="M281.341 435.349C281.45 435.041 281.773 434.866 282.089 434.93L282.175 434.953L302.133 441.804C302.475 441.921 302.655 442.288 302.536 442.624C302.427 442.932 302.104 443.106 301.787 443.043L301.702 443.02L281.743 436.169C281.402 436.052 281.222 435.685 281.341 435.349Z" fill="white" fill-opacity="0.85"/>
<path fill-rule="evenodd" clip-rule="evenodd" d="M296.234 458.841L275.531 451.735L261.248 488.667L307.898 504.677L310.044 498.991C310.825 496.898 309.97 494.555 308.011 493.431L296.9 485.6L291.801 479.854C290.265 478.124 289.82 475.71 290.648 473.563C292.427 468.945 295.433 461.112 296.234 458.841Z" fill="#2A84C6"/>
<path fill-rule="evenodd" clip-rule="evenodd" d="M296.234 458.841L275.531 451.735L261.248 488.667L307.898 504.677L310.044 498.991C310.825 496.898 309.97 494.555 308.011 493.431L296.9 485.6L291.801 479.854C290.265 478.124 289.82 475.71 290.648 473.563C292.427 468.945 295.433 461.112 296.234 458.841Z" fill="black" fill-opacity="0.2"/>
<path fill-rule="evenodd" clip-rule="evenodd" d="M261.267 490.037L307.774 505.998C308.216 506.15 308.698 505.922 308.85 505.487L310.672 500.359C310.826 499.926 310.594 499.451 310.152 499.3L263.645 483.339C263.204 483.188 262.722 483.416 262.568 483.85L260.748 488.979C260.594 489.412 260.827 489.886 261.267 490.037Z" fill="#2A84C6"/>
<path fill-rule="evenodd" clip-rule="evenodd" d="M261.267 490.037L307.774 505.998C308.216 506.15 308.698 505.922 308.85 505.487L310.672 500.359C310.826 499.926 310.594 499.451 310.152 499.3L263.645 483.339C263.204 483.188 262.722 483.416 262.568 483.85L260.748 488.979C260.594 489.412 260.827 489.886 261.267 490.037Z" fill="white" fill-opacity="0.85"/>
<path fill-rule="evenodd" clip-rule="evenodd" d="M310.152 499.3C311.299 496.067 309.892 492.493 306.83 490.865L296.906 485.583L293.347 493.406L310.152 499.3Z" fill="#2A84C6"/>
<path fill-rule="evenodd" clip-rule="evenodd" d="M310.152 499.3C311.299 496.067 309.892 492.493 306.83 490.865L296.906 485.583L293.347 493.406L310.152 499.3Z" fill="white" fill-opacity="0.85"/>
<path d="M263.328 483.229C263.381 483.079 263.534 482.991 263.689 483.011L263.755 483.027L310.262 498.988C310.437 499.048 310.529 499.236 310.468 499.408C310.415 499.558 310.262 499.646 310.107 499.626L310.041 499.61L263.534 483.649C263.359 483.589 263.267 483.401 263.328 483.229Z" fill="#2A84C6"/>
<path d="M263.328 483.229C263.381 483.079 263.534 482.991 263.689 483.011L263.755 483.027L310.262 498.988C310.437 499.048 310.529 499.236 310.468 499.408C310.415 499.558 310.262 499.646 310.107 499.626L310.041 499.61L263.534 483.649C263.359 483.589 263.267 483.401 263.328 483.229Z" fill="white" fill-opacity="0.5"/>
<path d="M286.078 472.005C287.617 471.532 289.22 471.427 290.63 471.528L290.812 471.542C290.891 471.55 290.953 471.556 290.995 471.562C291.363 471.608 291.622 471.939 291.574 472.3C291.527 472.661 291.191 472.916 290.824 472.869L290.533 472.843C289.381 472.761 288.071 472.833 286.819 473.166L286.479 473.264L286.274 473.331L286.434 473.414C286.66 473.533 286.899 473.663 287.148 473.804L287.401 473.948L287.878 474.226C287.959 474.274 288.04 474.323 288.123 474.373C288.765 474.759 289.419 475.173 290.05 475.586L290.879 476.14C291.362 476.47 291.208 477.208 290.632 477.326L290.479 477.362C290.431 477.374 290.376 477.389 290.312 477.406C290.038 477.482 289.728 477.58 289.39 477.703C288.906 477.88 288.415 478.09 287.926 478.334L287.744 478.427L287.935 478.496L288.298 478.634C289.066 478.934 289.871 479.304 290.7 479.727C291.511 480.141 292.302 480.584 293.04 481.027L293.579 481.357L293.998 481.623C294.579 482.006 294.248 482.877 293.587 482.83L293.345 482.8C292.358 482.7 291.189 482.857 290.086 483.474C289.893 483.583 289.705 483.704 289.523 483.839C289.228 484.058 288.807 484.001 288.584 483.71C288.361 483.42 288.419 483.006 288.715 482.787C288.943 482.617 289.179 482.465 289.423 482.328C290.027 481.99 290.642 481.763 291.246 481.625L291.382 481.596L291.237 481.514C291.048 481.409 290.857 481.305 290.665 481.202L290.082 480.897C289.29 480.493 288.524 480.142 287.802 479.859C287.128 479.595 286.506 479.396 285.946 479.269C285.373 479.14 285.234 478.401 285.722 478.079C286.641 477.472 287.589 476.99 288.524 476.619L288.954 476.456L288.683 476.28C288.473 476.146 288.262 476.013 288.052 475.883L287.423 475.497L286.953 475.218L286.724 475.086C285.767 474.535 284.977 474.141 284.434 473.955C283.895 473.77 283.823 473.05 284.315 472.765C284.856 472.451 285.447 472.2 286.078 472.005Z" fill="#2A84C6"/>
<path d="M286.078 472.005C287.617 471.532 289.22 471.427 290.63 471.528L290.812 471.542C290.891 471.55 290.953 471.556 290.995 471.562C291.363 471.608 291.622 471.939 291.574 472.3C291.527 472.661 291.191 472.916 290.824 472.869L290.533 472.843C289.381 472.761 288.071 472.833 286.819 473.166L286.479 473.264L286.274 473.331L286.434 473.414C286.66 473.533 286.899 473.663 287.148 473.804L287.401 473.948L287.878 474.226C287.959 474.274 288.04 474.323 288.123 474.373C288.765 474.759 289.419 475.173 290.05 475.586L290.879 476.14C291.362 476.47 291.208 477.208 290.632 477.326L290.479 477.362C290.431 477.374 290.376 477.389 290.312 477.406C290.038 477.482 289.728 477.58 289.39 477.703C288.906 477.88 288.415 478.09 287.926 478.334L287.744 478.427L287.935 478.496L288.298 478.634C289.066 478.934 289.871 479.304 290.7 479.727C291.511 480.141 292.302 480.584 293.04 481.027L293.579 481.357L293.998 481.623C294.579 482.006 294.248 482.877 293.587 482.83L293.345 482.8C292.358 482.7 291.189 482.857 290.086 483.474C289.893 483.583 289.705 483.704 289.523 483.839C289.228 484.058 288.807 484.001 288.584 483.71C288.361 483.42 288.419 483.006 288.715 482.787C288.943 482.617 289.179 482.465 289.423 482.328C290.027 481.99 290.642 481.763 291.246 481.625L291.382 481.596L291.237 481.514C291.048 481.409 290.857 481.305 290.665 481.202L290.082 480.897C289.29 480.493 288.524 480.142 287.802 479.859C287.128 479.595 286.506 479.396 285.946 479.269C285.373 479.14 285.234 478.401 285.722 478.079C286.641 477.472 287.589 476.99 288.524 476.619L288.954 476.456L288.683 476.28C288.473 476.146 288.262 476.013 288.052 475.883L287.423 475.497L286.953 475.218L286.724 475.086C285.767 474.535 284.977 474.141 284.434 473.955C283.895 473.77 283.823 473.05 284.315 472.765C284.856 472.451 285.447 472.2 286.078 472.005Z" fill="white" fill-opacity="0.85"/>
<path d="M284.33 464.715C280.683 464.852 277.884 466.125 276.372 468.84C275.301 470.765 275.751 472.159 277.518 472.579C278.751 472.873 280.629 472.696 283.064 472.155C284.733 471.784 286.582 471.259 288.5 470.637L289.689 470.243C290.752 469.882 291.619 469.567 292.194 469.348C292.347 469.314 292.666 469.205 292.994 469.037C293.499 468.779 293.869 468.456 294.023 468.002C294.233 467.383 293.953 466.77 293.279 466.229C293.221 466.182 293.155 466.145 293.085 466.12L292.761 466.011C292.655 465.976 292.532 465.937 292.391 465.894C291.849 465.729 291.244 465.564 290.589 465.409C288.472 464.911 286.337 464.639 284.33 464.715ZM284.381 466.033C286.25 465.962 288.269 466.219 290.277 466.692C290.902 466.839 291.479 466.996 291.993 467.154L292.516 467.321L292.574 467.371C292.73 467.512 292.755 467.571 292.751 467.584C292.733 467.636 292.6 467.752 292.375 467.867C292.153 467.981 291.922 468.06 291.784 468.095L291.178 468.319C290.514 468.561 289.681 468.855 288.712 469.178C286.606 469.878 284.571 470.469 282.769 470.869C280.525 471.368 278.806 471.529 277.833 471.298C277.001 471.1 276.87 470.693 277.549 469.473C278.799 467.228 281.161 466.154 284.381 466.033Z" fill="#2A84C6"/>
<path d="M284.33 464.715C280.683 464.852 277.884 466.125 276.372 468.84C275.301 470.765 275.751 472.159 277.518 472.579C278.751 472.873 280.629 472.696 283.064 472.155C284.733 471.784 286.582 471.259 288.5 470.637L289.689 470.243C290.752 469.882 291.619 469.567 292.194 469.348C292.347 469.314 292.666 469.205 292.994 469.037C293.499 468.779 293.869 468.456 294.023 468.002C294.233 467.383 293.953 466.77 293.279 466.229C293.221 466.182 293.155 466.145 293.085 466.12L292.761 466.011C292.655 465.976 292.532 465.937 292.391 465.894C291.849 465.729 291.244 465.564 290.589 465.409C288.472 464.911 286.337 464.639 284.33 464.715ZM284.381 466.033C286.25 465.962 288.269 466.219 290.277 466.692C290.902 466.839 291.479 466.996 291.993 467.154L292.516 467.321L292.574 467.371C292.73 467.512 292.755 467.571 292.751 467.584C292.733 467.636 292.6 467.752 292.375 467.867C292.153 467.981 291.922 468.06 291.784 468.095L291.178 468.319C290.514 468.561 289.681 468.855 288.712 469.178C286.606 469.878 284.571 470.469 282.769 470.869C280.525 471.368 278.806 471.529 277.833 471.298C277.001 471.1 276.87 470.693 277.549 469.473C278.799 467.228 281.161 466.154 284.381 466.033Z" fill="white" fill-opacity="0.85"/>
<path fill-rule="evenodd" clip-rule="evenodd" d="M404.281 462.548C409.348 460.588 411.919 455.001 410.107 449.892L371.331 340.626C368.539 332.755 359.714 328.718 351.907 331.741C344.099 334.763 340.443 343.632 343.856 351.263L391.245 457.195C393.46 462.147 399.215 464.51 404.281 462.548Z" fill="#FFC999"/>
<path fill-rule="evenodd" clip-rule="evenodd" d="M259.393 335.458C260.519 325.286 268.158 317.828 276.308 318.945L363.935 330.951C370.685 331.875 375.327 339.337 374.396 347.76C373.463 356.185 367.296 362.49 360.503 361.966L272.301 355.162C264.097 354.528 258.268 345.631 259.393 335.458Z" fill="#FFC999"/>
<path fill-rule="evenodd" clip-rule="evenodd" d="M413.983 459.513L395.661 467.264L382.163 439.204L403.197 430.306L413.983 459.513Z" fill="#1443BD"/>
<path fill-rule="evenodd" clip-rule="evenodd" d="M413.983 459.513L395.661 467.264L382.163 439.204L403.197 430.306L413.983 459.513Z" fill="white" fill-opacity="0.35"/>
<path d="M405.2 435.494C405.532 435.353 405.918 435.504 406.061 435.831C406.192 436.131 406.074 436.474 405.797 436.637L405.718 436.677L386.299 444.893C385.966 445.034 385.581 444.883 385.438 444.556C385.307 444.256 385.425 443.913 385.702 443.75L385.781 443.71L405.2 435.494Z" fill="#2A84C6"/>
<path d="M405.2 435.494C405.532 435.353 405.918 435.504 406.061 435.831C406.192 436.131 406.074 436.474 405.797 436.637L405.718 436.677L386.299 444.893C385.966 445.034 385.581 444.883 385.438 444.556C385.307 444.256 385.425 443.913 385.702 443.75L385.781 443.71L405.2 435.494Z" fill="white" fill-opacity="0.85"/>
<path fill-rule="evenodd" clip-rule="evenodd" d="M412.561 451.972L392.419 460.493L407.274 497.205L452.661 478.004L450.336 472.388C449.474 470.326 447.233 469.167 445.018 469.64L431.444 471.253L423.738 470.407C421.416 470.151 419.428 468.668 418.563 466.535C416.701 461.949 413.533 454.178 412.561 451.972Z" fill="#2A84C6"/>
<path fill-rule="evenodd" clip-rule="evenodd" d="M412.561 451.972L392.419 460.493L407.274 497.205L452.661 478.004L450.336 472.388C449.474 470.326 447.233 469.167 445.018 469.64L431.444 471.253L423.738 470.407C421.416 470.151 419.428 468.668 418.563 466.535C416.701 461.949 413.533 454.178 412.561 451.972Z" fill="black" fill-opacity="0.2"/>
<path fill-rule="evenodd" clip-rule="evenodd" d="M408.23 498.204L453.479 479.061C453.907 478.881 454.106 478.391 453.922 477.97L451.738 472.98C451.555 472.558 451.057 472.363 450.627 472.544L405.379 491.687C404.949 491.869 404.752 492.357 404.937 492.78L407.118 497.77C407.305 498.191 407.801 498.385 408.23 498.204Z" fill="#2A84C6"/>
<path fill-rule="evenodd" clip-rule="evenodd" d="M408.23 498.204L453.479 479.061C453.907 478.881 454.106 478.391 453.922 477.97L451.738 472.98C451.555 472.558 451.057 472.363 450.627 472.544L405.379 491.687C404.949 491.869 404.752 492.357 404.937 492.78L407.118 497.77C407.305 498.191 407.801 498.385 408.23 498.204Z" fill="white" fill-opacity="0.85"/>
<path fill-rule="evenodd" clip-rule="evenodd" d="M450.628 472.544C449.252 469.399 445.758 467.701 442.381 468.535L431.437 471.236L434.191 479.367L450.628 472.544Z" fill="#2A84C6"/>
<path fill-rule="evenodd" clip-rule="evenodd" d="M450.628 472.544C449.252 469.399 445.758 467.701 442.381 468.535L431.437 471.236L434.191 479.367L450.628 472.544Z" fill="white" fill-opacity="0.85"/>
<path d="M450.495 472.24C450.665 472.168 450.862 472.245 450.936 472.413C451 472.559 450.947 472.726 450.819 472.813L450.76 472.846L405.512 491.989C405.342 492.061 405.145 491.983 405.072 491.816C405.007 491.67 405.06 491.503 405.188 491.415L405.247 491.383L450.495 472.24Z" fill="#2A84C6"/>
<path d="M450.495 472.24C450.665 472.168 450.862 472.245 450.936 472.413C451 472.559 450.947 472.726 450.819 472.813L450.76 472.846L405.512 491.989C405.342 492.061 405.145 491.983 405.072 491.816C405.007 491.67 405.06 491.503 405.188 491.415L405.247 491.383L450.495 472.24Z" fill="white" fill-opacity="0.5"/>
<path d="M417.445 464.829C417.747 464.619 418.166 464.691 418.379 464.988C418.592 465.286 418.52 465.697 418.217 465.907L418.099 465.993C417.982 466.08 417.82 466.208 417.626 466.373C417.169 466.761 416.712 467.207 416.286 467.702C415.864 468.192 415.5 468.699 415.207 469.219L415.178 469.272L415.385 469.219C415.723 469.134 416.091 469.05 416.485 468.967L416.786 468.905C417.397 468.781 418.04 468.664 418.69 468.557L419.566 468.418L420.506 468.282C421.089 468.205 421.482 468.851 421.139 469.321L421.034 469.474C420.975 469.563 420.902 469.681 420.816 469.824C420.562 470.252 420.307 470.745 420.068 471.296C420.009 471.432 419.952 471.57 419.897 471.709L419.768 472.05L419.961 471.972C420.318 471.831 420.694 471.695 421.089 471.564L421.491 471.434C422.604 471.084 423.793 470.788 424.981 470.543C425.188 470.501 425.389 470.461 425.58 470.425L426.44 470.272C426.495 470.263 426.539 470.256 426.572 470.251C427.262 470.147 427.617 471.005 427.102 471.411L426.952 471.513C426.888 471.558 426.8 471.625 426.693 471.713C426.417 471.94 426.14 472.215 425.882 472.536C425.345 473.203 424.963 473.976 424.798 474.858C424.731 475.216 424.381 475.453 424.017 475.387C423.653 475.321 423.412 474.978 423.479 474.62C423.651 473.697 424.012 472.871 424.513 472.143L424.639 471.966L424.112 472.086C423.544 472.221 422.982 472.368 422.438 472.527L421.899 472.69C420.758 473.049 419.78 473.443 419.02 473.868C418.509 474.153 417.899 473.701 418.037 473.139C418.24 472.313 418.512 471.524 418.834 470.779C418.939 470.538 419.047 470.306 419.156 470.084L419.304 469.793L418.914 469.857C418.49 469.927 418.07 470.001 417.661 470.078L417.057 470.196L416.503 470.313C415.523 470.527 414.747 470.745 414.253 470.954C413.728 471.176 413.18 470.693 413.347 470.156C413.711 468.981 414.38 467.876 415.262 466.85C415.736 466.299 416.243 465.806 416.75 465.375L416.996 465.17C417.187 465.016 417.34 464.901 417.445 464.829Z" fill="#2A84C6"/>
<path d="M417.445 464.829C417.747 464.619 418.166 464.691 418.379 464.988C418.592 465.286 418.52 465.697 418.217 465.907L418.099 465.993C417.982 466.08 417.82 466.208 417.626 466.373C417.169 466.761 416.712 467.207 416.286 467.702C415.864 468.192 415.5 468.699 415.207 469.219L415.178 469.272L415.385 469.219C415.723 469.134 416.091 469.05 416.485 468.967L416.786 468.905C417.397 468.781 418.04 468.664 418.69 468.557L419.566 468.418L420.506 468.282C421.089 468.205 421.482 468.851 421.139 469.321L421.034 469.474C420.975 469.563 420.902 469.681 420.816 469.824C420.562 470.252 420.307 470.745 420.068 471.296C420.009 471.432 419.952 471.57 419.897 471.709L419.768 472.05L419.961 471.972C420.318 471.831 420.694 471.695 421.089 471.564L421.491 471.434C422.604 471.084 423.793 470.788 424.981 470.543C425.188 470.501 425.389 470.461 425.58 470.425L426.44 470.272C426.495 470.263 426.539 470.256 426.572 470.251C427.262 470.147 427.617 471.005 427.102 471.411L426.952 471.513C426.888 471.558 426.8 471.625 426.693 471.713C426.417 471.94 426.14 472.215 425.882 472.536C425.345 473.203 424.963 473.976 424.798 474.858C424.731 475.216 424.381 475.453 424.017 475.387C423.653 475.321 423.412 474.978 423.479 474.62C423.651 473.697 424.012 472.871 424.513 472.143L424.639 471.966L424.112 472.086C423.544 472.221 422.982 472.368 422.438 472.527L421.899 472.69C420.758 473.049 419.78 473.443 419.02 473.868C418.509 474.153 417.899 473.701 418.037 473.139C418.24 472.313 418.512 471.524 418.834 470.779C418.939 470.538 419.047 470.306 419.156 470.084L419.304 469.793L418.914 469.857C418.49 469.927 418.07 470.001 417.661 470.078L417.057 470.196L416.503 470.313C415.523 470.527 414.747 470.745 414.253 470.954C413.728 471.176 413.18 470.693 413.347 470.156C413.711 468.981 414.38 467.876 415.262 466.85C415.736 466.299 416.243 465.806 416.75 465.375L416.996 465.17C417.187 465.016 417.34 464.901 417.445 464.829Z" fill="white" fill-opacity="0.85"/>
<path d="M415.46 459.382C415.386 459.386 415.312 459.402 415.243 459.43L414.882 459.586L414.778 459.633C414.418 459.796 414.017 459.988 413.586 460.209C412.356 460.841 411.125 461.578 409.973 462.416C405.956 465.339 403.843 468.737 404.794 472.541C405.27 474.445 406.349 475.263 407.774 474.735C408.786 474.36 409.91 473.298 411.185 471.65C411.878 470.755 412.602 469.699 413.348 468.516C414.192 467.177 415.02 465.745 415.798 464.314L416.112 463.73C416.263 463.448 416.404 463.18 416.534 462.929L416.805 462.4L416.851 462.33C416.901 462.248 416.976 462.11 417.05 461.951C417.168 461.699 417.258 461.448 417.308 461.2C417.531 460.096 416.874 459.301 415.46 459.382ZM415.993 460.944C415.966 461.077 415.91 461.234 415.833 461.398L415.746 461.571C415.704 461.649 415.667 461.71 415.641 461.75L415.339 462.331C415.126 462.741 414.884 463.199 414.616 463.692C413.85 465.101 413.036 466.509 412.208 467.821C411.483 468.972 410.782 469.993 410.118 470.851C408.987 472.313 408.007 473.24 407.301 473.501C406.746 473.707 406.401 473.445 406.096 472.226C405.307 469.067 407.14 466.117 410.771 463.476C411.862 462.683 413.035 461.98 414.207 461.378C414.535 461.21 414.845 461.059 415.129 460.927L415.652 460.691L415.717 460.688C416.051 460.673 416.042 460.702 415.993 460.944Z" fill="#2A84C6"/>
<path d="M415.46 459.382C415.386 459.386 415.312 459.402 415.243 459.43L414.882 459.586L414.778 459.633C414.418 459.796 414.017 459.988 413.586 460.209C412.356 460.841 411.125 461.578 409.973 462.416C405.956 465.339 403.843 468.737 404.794 472.541C405.27 474.445 406.349 475.263 407.774 474.735C408.786 474.36 409.91 473.298 411.185 471.65C411.878 470.755 412.602 469.699 413.348 468.516C414.192 467.177 415.02 465.745 415.798 464.314L416.112 463.73C416.263 463.448 416.404 463.18 416.534 462.929L416.805 462.4L416.851 462.33C416.901 462.248 416.976 462.11 417.05 461.951C417.168 461.699 417.258 461.448 417.308 461.2C417.531 460.096 416.874 459.301 415.46 459.382ZM415.993 460.944C415.966 461.077 415.91 461.234 415.833 461.398L415.746 461.571C415.704 461.649 415.667 461.71 415.641 461.75L415.339 462.331C415.126 462.741 414.884 463.199 414.616 463.692C413.85 465.101 413.036 466.509 412.208 467.821C411.483 468.972 410.782 469.993 410.118 470.851C408.987 472.313 408.007 473.24 407.301 473.501C406.746 473.707 406.401 473.445 406.096 472.226C405.307 469.067 407.14 466.117 410.771 463.476C411.862 462.683 413.035 461.98 414.207 461.378C414.535 461.21 414.845 461.059 415.129 460.927L415.652 460.691L415.717 460.688C416.051 460.673 416.042 460.702 415.993 460.944Z" fill="white" fill-opacity="0.85"/>
<path fill-rule="evenodd" clip-rule="evenodd" d="M273.547 216.155C275.879 221.875 280.234 231.735 280.518 238.125C280.979 248.484 273.768 255.828 273.768 255.828C273.768 255.828 273.895 257.994 275.061 279.537C243.516 283.423 220.755 280.454 220.755 280.454L221.618 269.613L217.374 252.628C217.374 252.628 217.08 246.082 211.434 231.868C207.507 221.986 209.118 210.403 210.036 204.022C210.427 201.289 208.027 197.764 210.765 197.147C220.325 194.995 225.173 196.167 225.173 196.167L226.367 190.093C226.572 189.053 227.523 188.318 228.6 188.37L251.59 189.479C252.577 189.526 253.407 190.226 253.605 191.178L254.95 196.499L270.432 199.463C272.645 200.003 274.24 201.899 274.361 204.137L273.547 216.155Z" fill="#1443BD"/>
<path fill-rule="evenodd" clip-rule="evenodd" d="M273.547 216.155C275.879 221.875 280.234 231.735 280.518 238.125C280.979 248.484 273.768 255.828 273.768 255.828C273.768 255.828 273.895 257.994 275.061 279.537C243.516 283.423 220.755 280.454 220.755 280.454L221.618 269.613L217.374 252.628C217.374 252.628 217.08 246.082 211.434 231.868C207.507 221.986 209.118 210.403 210.036 204.022C210.427 201.289 208.027 197.764 210.765 197.147C220.325 194.995 225.173 196.167 225.173 196.167L226.367 190.093C226.572 189.053 227.523 188.318 228.6 188.37L251.59 189.479C252.577 189.526 253.407 190.226 253.605 191.178L254.95 196.499L270.432 199.463C272.645 200.003 274.24 201.899 274.361 204.137L273.547 216.155Z" fill="white" fill-opacity="0.35"/>
<path d="M231.616 196.41L252.318 197.409C252.536 197.419 252.704 197.601 252.693 197.815C252.684 198.006 252.537 198.157 252.351 198.181L252.28 198.184L231.578 197.185C231.36 197.175 231.192 196.993 231.203 196.779C231.212 196.588 231.36 196.437 231.545 196.413L231.616 196.41Z" fill="#2A84C6"/>
<path d="M231.616 196.41L252.318 197.409C252.536 197.419 252.704 197.601 252.693 197.815C252.684 198.006 252.537 198.157 252.351 198.181L252.28 198.184L231.578 197.185C231.36 197.175 231.192 196.993 231.203 196.779C231.212 196.588 231.36 196.437 231.545 196.413L231.616 196.41Z" fill="black" fill-opacity="0.2"/>
<path d="M224.695 194.43C224.899 194.286 225.176 194.313 225.348 194.483L225.401 194.545L245.902 222.692L255.644 197.828C255.734 197.597 255.981 197.47 256.219 197.519L256.299 197.542C256.534 197.631 256.662 197.873 256.613 198.108L256.589 198.186L246.511 223.912C246.375 224.257 245.927 224.336 245.677 224.082L245.626 224.023L224.578 195.125C224.415 194.901 224.467 194.59 224.695 194.43Z" fill="#2A84C6"/>
<path d="M224.695 194.43C224.899 194.286 225.176 194.313 225.348 194.483L225.401 194.545L245.902 222.692L255.644 197.828C255.734 197.597 255.981 197.47 256.219 197.519L256.299 197.542C256.534 197.631 256.662 197.873 256.613 198.108L256.589 198.186L246.511 223.912C246.375 224.257 245.927 224.336 245.677 224.082L245.626 224.023L224.578 195.125C224.415 194.901 224.467 194.59 224.695 194.43Z" fill="white" fill-opacity="0.85"/>
<path fill-rule="evenodd" clip-rule="evenodd" d="M252.198 226.141C254.304 230.059 253.031 234.784 249.356 236.693C245.679 238.604 240.993 236.976 238.886 233.058C236.782 229.141 238.053 224.416 241.728 222.506C245.405 220.595 250.092 222.223 252.198 226.141Z" fill="#2A84C6"/>
<path fill-rule="evenodd" clip-rule="evenodd" d="M252.198 226.141C254.304 230.059 253.031 234.784 249.356 236.693C245.679 238.604 240.993 236.976 238.886 233.058C236.782 229.141 238.053 224.416 241.728 222.506C245.405 220.595 250.092 222.223 252.198 226.141Z" fill="white" fill-opacity="0.85"/>
<path fill-rule="evenodd" clip-rule="evenodd" d="M253.024 226.161C255.128 230.079 253.857 234.804 250.182 236.713C246.505 238.624 241.819 236.997 239.712 233.079C237.606 229.161 238.879 224.436 242.554 222.526C246.231 220.615 250.918 222.243 253.024 226.161Z" fill="#2A84C6"/>
<path fill-rule="evenodd" clip-rule="evenodd" d="M253.024 226.161C255.128 230.079 253.857 234.804 250.182 236.713C246.505 238.624 241.819 236.997 239.712 233.079C237.606 229.161 238.879 224.436 242.554 222.526C246.231 220.615 250.918 222.243 253.024 226.161Z" fill="white" fill-opacity="0.85"/>
<path fill-rule="evenodd" clip-rule="evenodd" d="M251.532 226.755C253.168 229.798 252.179 233.465 249.326 234.949C246.473 236.432 242.832 235.168 241.198 232.126C239.563 229.084 240.55 225.416 243.405 223.932C246.259 222.45 249.898 223.714 251.532 226.755Z" fill="#F56D7E"/>
<path d="M206.877 203.408C207.094 203.424 207.257 203.611 207.24 203.825L207.144 205.146L207.072 206.22C207.024 206.955 206.977 207.729 206.932 208.531C206.828 210.391 206.745 212.218 206.692 213.957L206.667 214.818C206.575 218.427 206.625 221.32 206.851 223.223C207.078 225.135 208.182 228.306 209.95 232.37L210.123 232.767C210.497 233.618 210.895 234.497 211.314 235.4C212.305 237.536 213.367 239.706 214.43 241.796L214.966 242.844L215.845 244.527L215.878 244.611L222.361 269.66L222.371 269.795L221.328 280.04L222.518 280.145L223.409 280.217C224.482 280.301 225.677 280.384 226.984 280.463C241.393 281.329 257.542 281.116 273.543 279.083L274.438 278.966L274.427 278.17C274.39 276.503 274.257 273.244 274.052 268.823L273.866 264.892L273.457 256.696C273.453 256.617 273.474 256.539 273.516 256.472L273.796 256.013L274.077 255.539C274.223 255.289 274.378 255.02 274.539 254.733C275.31 253.369 276.08 251.892 276.798 250.357C277.775 248.27 278.578 246.24 279.147 244.333C279.669 242.579 279.98 240.973 280.052 239.546C280.235 235.879 279.893 233.02 278.961 230.076C278.47 228.524 277.812 226.921 276.845 224.875L276.438 224.027C275.957 223.044 275.056 221.236 274.316 219.757L273.138 217.404L273.098 217.229L273.171 210.863C273.174 210.649 273.353 210.477 273.571 210.48C273.764 210.482 273.924 210.621 273.955 210.802L273.961 210.872L273.888 217.145L276.915 223.212C277.079 223.545 277.217 223.828 277.318 224.037L277.362 224.129C278.452 226.406 279.178 228.15 279.715 229.845C280.675 232.879 281.028 235.828 280.841 239.584C280.766 241.078 280.443 242.743 279.904 244.551C279.324 246.499 278.507 248.562 277.516 250.681C276.892 252.014 276.231 253.302 275.564 254.512L275.23 255.11C275.066 255.4 274.909 255.673 274.761 255.926L274.352 256.613L274.252 256.776L274.399 259.674C274.486 261.391 274.572 263.137 274.655 264.855L275.063 273.799C275.19 276.854 275.248 278.788 275.221 279.326C275.212 279.513 275.068 279.667 274.879 279.692C258.419 281.882 241.762 282.129 226.935 281.238L225.839 281.169C224.77 281.1 223.786 281.028 222.891 280.955L221.473 280.833L220.854 280.774C220.662 280.754 220.517 280.602 220.502 280.419L220.503 280.349L221.578 269.786L215.124 244.847L214.754 244.144C214.443 243.549 214.097 242.877 213.723 242.143C212.657 240.045 211.591 237.868 210.595 235.722C210.28 235.042 209.976 234.374 209.685 233.722L209.398 233.074C207.499 228.751 206.313 225.387 206.067 223.313C205.836 221.364 205.785 218.442 205.878 214.799C205.922 213.084 205.996 211.272 206.093 209.418L206.143 208.488C206.189 207.684 206.236 206.908 206.284 206.17L206.453 203.765C206.469 203.551 206.659 203.391 206.877 203.408Z" fill="#2A84C6"/>
<path d="M206.877 203.408C207.094 203.424 207.257 203.611 207.24 203.825L207.144 205.146L207.072 206.22C207.024 206.955 206.977 207.729 206.932 208.531C206.828 210.391 206.745 212.218 206.692 213.957L206.667 214.818C206.575 218.427 206.625 221.32 206.851 223.223C207.078 225.135 208.182 228.306 209.95 232.37L210.123 232.767C210.497 233.618 210.895 234.497 211.314 235.4C212.305 237.536 213.367 239.706 214.43 241.796L214.966 242.844L215.845 244.527L215.878 244.611L222.361 269.66L222.371 269.795L221.328 280.04L222.518 280.145L223.409 280.217C224.482 280.301 225.677 280.384 226.984 280.463C241.393 281.329 257.542 281.116 273.543 279.083L274.438 278.966L274.427 278.17C274.39 276.503 274.257 273.244 274.052 268.823L273.866 264.892L273.457 256.696C273.453 256.617 273.474 256.539 273.516 256.472L273.796 256.013L274.077 255.539C274.223 255.289 274.378 255.02 274.539 254.733C275.31 253.369 276.08 251.892 276.798 250.357C277.775 248.27 278.578 246.24 279.147 244.333C279.669 242.579 279.98 240.973 280.052 239.546C280.235 235.879 279.893 233.02 278.961 230.076C278.47 228.524 277.812 226.921 276.845 224.875L276.438 224.027C275.957 223.044 275.056 221.236 274.316 219.757L273.138 217.404L273.098 217.229L273.171 210.863C273.174 210.649 273.353 210.477 273.571 210.48C273.764 210.482 273.924 210.621 273.955 210.802L273.961 210.872L273.888 217.145L276.915 223.212C277.079 223.545 277.217 223.828 277.318 224.037L277.362 224.129C278.452 226.406 279.178 228.15 279.715 229.845C280.675 232.879 281.028 235.828 280.841 239.584C280.766 241.078 280.443 242.743 279.904 244.551C279.324 246.499 278.507 248.562 277.516 250.681C276.892 252.014 276.231 253.302 275.564 254.512L275.23 255.11C275.066 255.4 274.909 255.673 274.761 255.926L274.352 256.613L274.252 256.776L274.399 259.674C274.486 261.391 274.572 263.137 274.655 264.855L275.063 273.799C275.19 276.854 275.248 278.788 275.221 279.326C275.212 279.513 275.068 279.667 274.879 279.692C258.419 281.882 241.762 282.129 226.935 281.238L225.839 281.169C224.77 281.1 223.786 281.028 222.891 280.955L221.473 280.833L220.854 280.774C220.662 280.754 220.517 280.602 220.502 280.419L220.503 280.349L221.578 269.786L215.124 244.847L214.754 244.144C214.443 243.549 214.097 242.877 213.723 242.143C212.657 240.045 211.591 237.868 210.595 235.722C210.28 235.042 209.976 234.374 209.685 233.722L209.398 233.074C207.499 228.751 206.313 225.387 206.067 223.313C205.836 221.364 205.785 218.442 205.878 214.799C205.922 213.084 205.996 211.272 206.093 209.418L206.143 208.488C206.189 207.684 206.236 206.908 206.284 206.17L206.453 203.765C206.469 203.551 206.659 203.391 206.877 203.408Z" fill="black" fill-opacity="0.2"/>
<path fill-rule="evenodd" clip-rule="evenodd" d="M276.141 285.855L274.128 279.078C274.128 279.078 248.418 280.92 224.253 280.911C223.083 283.681 222.853 288.933 222.853 288.933C224.796 287.198 249.432 290.758 276.141 285.855Z" fill="#2A84C6"/>
<path fill-rule="evenodd" clip-rule="evenodd" d="M276.141 285.855L274.128 279.078C274.128 279.078 248.418 280.92 224.253 280.911C223.083 283.681 222.853 288.933 222.853 288.933C224.796 287.198 249.432 290.758 276.141 285.855Z" fill="black" fill-opacity="0.2"/>
<path fill-rule="evenodd" clip-rule="evenodd" d="M356.38 317.376L284.15 297.183L277.158 286.183L223.107 288.265C223.107 288.265 188.38 351.658 229.485 365.532C262.127 374.367 271.193 375.273 271.193 375.273L284.027 392.631L342.373 365.013L385.003 338.642L356.38 317.376Z" fill="#2A84C6"/>
<path fill-rule="evenodd" clip-rule="evenodd" d="M356.38 317.376L284.15 297.183L277.158 286.183L223.107 288.265C223.107 288.265 188.38 351.658 229.485 365.532C262.127 374.367 271.193 375.273 271.193 375.273L284.027 392.631L342.373 365.013L385.003 338.642L356.38 317.376Z" fill="black" fill-opacity="0.2"/>
<path d="M248.993 290.381C249.189 290.258 249.441 290.294 249.594 290.455L249.646 290.521L258.168 303.609L319.142 341.282C319.201 341.318 319.25 341.366 319.288 341.423L319.321 341.482L330.217 364.994C330.326 365.227 330.221 365.503 329.983 365.609C329.77 365.705 329.521 365.631 329.395 365.445L329.358 365.379L318.52 341.995L257.575 304.34C257.536 304.316 257.501 304.286 257.47 304.252L257.429 304.198L248.85 291.023C248.71 290.806 248.774 290.519 248.993 290.381Z" fill="#1443BD"/>
<path d="M248.993 290.381C249.189 290.258 249.441 290.294 249.594 290.455L249.646 290.521L258.168 303.609L319.142 341.282C319.201 341.318 319.25 341.366 319.288 341.423L319.321 341.482L330.217 364.994C330.326 365.227 330.221 365.503 329.983 365.609C329.77 365.705 329.521 365.631 329.395 365.445L329.358 365.379L318.52 341.995L257.575 304.34C257.536 304.316 257.501 304.286 257.47 304.252L257.429 304.198L248.85 291.023C248.71 290.806 248.774 290.519 248.993 290.381Z" fill="black" fill-opacity="0.5"/>
<path d="M238.528 292.747C238.762 292.731 238.968 292.885 239.02 293.103L239.032 293.178L240.336 311.615L262.848 348.376L284.451 392.43C284.565 392.661 284.466 392.939 284.231 393.05C284.02 393.151 283.77 393.082 283.639 392.899L283.6 392.834L262.018 348.818L239.468 311.997C239.442 311.955 239.424 311.909 239.413 311.862L239.402 311.79L238.089 293.242C238.071 292.986 238.267 292.765 238.528 292.747Z" fill="#1443BD"/>
<path d="M238.528 292.747C238.762 292.731 238.968 292.885 239.02 293.103L239.032 293.178L240.336 311.615L262.848 348.376L284.451 392.43C284.565 392.661 284.466 392.939 284.231 393.05C284.02 393.151 283.77 393.082 283.639 392.899L283.6 392.834L262.018 348.818L239.468 311.997C239.442 311.955 239.424 311.909 239.413 311.862L239.402 311.79L238.089 293.242C238.071 292.986 238.267 292.765 238.528 292.747Z" fill="black" fill-opacity="0.5"/>
<path d="M229.151 293.905L229.228 293.914C229.458 293.958 229.616 294.16 229.609 294.384L229.6 294.459L224.516 319.934L247.383 367.155C247.484 367.363 247.413 367.609 247.226 367.736L247.16 367.774C246.948 367.873 246.698 367.804 246.569 367.62L246.53 367.554L223.597 320.196C223.564 320.128 223.549 320.054 223.551 319.98L223.56 319.906L228.673 294.28C228.718 294.054 228.924 293.898 229.151 293.905Z" fill="#1443BD"/>
<path d="M229.151 293.905L229.228 293.914C229.458 293.958 229.616 294.16 229.609 294.384L229.6 294.459L224.516 319.934L247.383 367.155C247.484 367.363 247.413 367.609 247.226 367.736L247.16 367.774C246.948 367.873 246.698 367.804 246.569 367.62L246.53 367.554L223.597 320.196C223.564 320.128 223.549 320.054 223.551 319.98L223.56 319.906L228.673 294.28C228.718 294.054 228.924 293.898 229.151 293.905Z" fill="black" fill-opacity="0.5"/>
<path d="M276.671 285.49C276.808 285.485 276.94 285.538 277.033 285.633L277.084 285.695L285.143 297.469L356.506 316.929L356.665 317.006L385.287 338.272C385.529 338.452 385.534 338.799 385.318 338.988L385.254 339.036L342.624 365.407C342.403 365.544 342.112 365.478 341.973 365.261C341.849 365.068 341.888 364.82 342.053 364.671L342.121 364.621L384.171 338.608L356.166 317.8L284.723 298.32C284.642 298.298 284.569 298.255 284.511 298.196L284.458 298.132L276.447 286.43L223.127 288.73C222.892 288.74 222.69 288.58 222.644 288.361L222.634 288.286C222.624 288.056 222.787 287.857 223.009 287.811L223.086 287.802L276.671 285.49Z" fill="#1443BD"/>
<path d="M276.671 285.49C276.808 285.485 276.94 285.538 277.033 285.633L277.084 285.695L285.143 297.469L356.506 316.929L356.665 317.006L385.287 338.272C385.529 338.452 385.534 338.799 385.318 338.988L385.254 339.036L342.624 365.407C342.403 365.544 342.112 365.478 341.973 365.261C341.849 365.068 341.888 364.82 342.053 364.671L342.121 364.621L384.171 338.608L356.166 317.8L284.723 298.32C284.642 298.298 284.569 298.255 284.511 298.196L284.458 298.132L276.447 286.43L223.127 288.73C222.892 288.74 222.69 288.58 222.644 288.361L222.634 288.286C222.624 288.056 222.787 287.857 223.009 287.811L223.086 287.802L276.671 285.49Z" fill="black" fill-opacity="0.5"/>
<path d="M249.242 307.332C249.44 307.213 249.692 307.254 249.841 307.418L249.892 307.485L260.35 324.244L283.44 344.97C283.612 345.124 283.642 345.373 283.522 345.56L283.471 345.627C283.314 345.795 283.061 345.824 282.871 345.707L282.803 345.657L259.665 324.887L259.581 324.787L249.087 307.971C248.95 307.753 249.02 307.467 249.242 307.332Z" fill="#1443BD"/>
<path d="M249.242 307.332C249.44 307.213 249.692 307.254 249.841 307.418L249.892 307.485L260.35 324.244L283.44 344.97C283.612 345.124 283.642 345.373 283.522 345.56L283.471 345.627C283.314 345.795 283.061 345.824 282.871 345.707L282.803 345.657L259.665 324.887L259.581 324.787L249.087 307.971C248.95 307.753 249.02 307.467 249.242 307.332Z" fill="black" fill-opacity="0.5"/>
<path d="M287.365 314.386C287.441 314.167 287.666 314.041 287.89 314.079L287.965 314.097L324.575 326.461L354.638 342.551C354.867 342.673 354.952 342.956 354.827 343.181C354.715 343.384 354.471 343.471 354.257 343.398L354.186 343.367L324.196 327.309L287.658 314.976C287.411 314.893 287.28 314.629 287.365 314.386Z" fill="#1443BD"/>
<path d="M287.365 314.386C287.441 314.167 287.666 314.041 287.89 314.079L287.965 314.097L324.575 326.461L354.638 342.551C354.867 342.673 354.952 342.956 354.827 343.181C354.715 343.384 354.471 343.471 354.257 343.398L354.186 343.367L324.196 327.309L287.658 314.976C287.411 314.893 287.28 314.629 287.365 314.386Z" fill="black" fill-opacity="0.5"/>
<path fill-rule="evenodd" clip-rule="evenodd" d="M335.612 203.397C339.143 205.228 340.725 209.204 339.205 212.418L311.216 273.121C308.308 278.726 300.029 283.662 293.181 278.762C286.86 275.482 284.262 268.22 287.432 262.69L326.173 205.316C328.103 202.457 332.196 201.625 335.612 203.397Z" fill="#FFC999"/>
<path fill-rule="evenodd" clip-rule="evenodd" d="M220.6 349.304C224.508 348.328 227.017 344.784 226.296 341.262L212.365 273.26C210.853 267.057 203.95 263.407 197.014 265.139C190.017 266.889 185.723 273.431 187.509 279.62L211.942 349.229C213.153 352.496 216.821 350.249 220.6 349.304Z" fill="#FFC999"/>
<path fill-rule="evenodd" clip-rule="evenodd" d="M196.456 285.054L197.848 285.33C204.709 286.692 211.395 282.328 212.78 275.58L225.292 214.65C226.676 207.903 222.238 201.33 215.375 199.967L213.984 199.69C207.123 198.329 200.437 202.694 199.052 209.44L186.541 270.37C185.155 277.118 189.595 283.691 196.456 285.054Z" fill="#FFC999"/>
<path fill-rule="evenodd" clip-rule="evenodd" d="M193.828 234.884L199.603 206.756C200.996 199.976 208.107 195.613 215.405 197.062C222.703 198.511 227.535 205.245 226.143 212.026L220.422 239.886L193.828 234.884Z" fill="#1443BD"/>
<path fill-rule="evenodd" clip-rule="evenodd" d="M193.828 234.884L199.603 206.756C200.996 199.976 208.107 195.613 215.405 197.062C222.703 198.511 227.535 205.245 226.143 212.026L220.422 239.886L193.828 234.884Z" fill="white" fill-opacity="0.35"/>
<path d="M193.703 233.663L220.639 239.749C220.847 239.796 220.977 240 220.929 240.204C220.887 240.386 220.718 240.507 220.535 240.498L220.466 240.489L193.53 234.403C193.322 234.356 193.192 234.152 193.24 233.948C193.283 233.766 193.451 233.645 193.634 233.653L193.703 233.663Z" fill="#2A84C6"/>
<path d="M193.703 233.663L220.639 239.749C220.847 239.796 220.977 240 220.929 240.204C220.887 240.386 220.718 240.507 220.535 240.498L220.466 240.489L193.53 234.403C193.322 234.356 193.192 234.152 193.24 233.948C193.283 233.766 193.451 233.645 193.634 233.653L193.703 233.663Z" fill="black" fill-opacity="0.2"/>
<path fill-rule="evenodd" clip-rule="evenodd" d="M245.183 365.707C247.459 364.853 243.422 354.968 242.164 352.945C240.488 350.246 225.051 341.856 225.051 341.856L222.34 329.931L208.122 335.63C208.122 335.63 210.308 348.784 214.315 355.565C217.305 360.625 222.391 359.542 229.622 366.243C232.969 369.344 237.159 372.626 238.865 370.151C239.201 369.662 242.682 370.56 242.235 367.535C242.235 367.535 243.418 368.443 244.533 367.526C245.5 366.728 245.183 365.707 245.183 365.707Z" fill="#FFC999"/>
<path d="M226.553 358.477C226.669 358.236 226.961 358.133 227.205 358.247L227.483 358.382L227.583 358.433C227.878 358.584 228.205 358.76 228.557 358.963C229.562 359.54 230.567 360.207 231.508 360.956C232.361 361.636 233.119 362.352 233.758 363.103L239.351 369.678C239.525 369.882 239.498 370.186 239.29 370.356C239.083 370.527 238.774 370.5 238.6 370.296L233.006 363.721C232.411 363.021 231.697 362.348 230.891 361.705C229.992 360.989 229.028 360.349 228.063 359.794C227.809 359.649 227.57 359.517 227.348 359.4L226.887 359.165C226.845 359.145 226.812 359.129 226.788 359.118C226.543 359.004 226.438 358.717 226.553 358.477Z" fill="#DD936F"/>
<path d="M230.38 354.14C230.547 353.931 230.855 353.894 231.068 354.058L231.391 354.313L231.792 354.641C231.932 354.757 232.078 354.88 232.23 355.009C233.097 355.748 233.965 356.543 234.776 357.366C235.704 358.308 236.498 359.227 237.12 360.104L237.61 360.791C237.78 361.028 237.958 361.273 238.143 361.527L238.726 362.318C239.194 362.952 239.682 363.604 240.179 364.26L241.602 366.126L242.294 367.021C242.458 367.233 242.418 367.535 242.203 367.697C241.988 367.858 241.681 367.818 241.516 367.607L240.613 366.436L240.396 366.154C239.725 365.277 239.053 364.389 238.41 363.527L237.632 362.476L237.073 361.712C236.804 361.341 236.551 360.988 236.315 360.655C235.728 359.825 234.966 358.944 234.072 358.037C233.283 357.235 232.436 356.459 231.589 355.737L231.161 355.378L230.553 354.886C230.516 354.856 230.486 354.833 230.464 354.817C230.251 354.653 230.214 354.35 230.38 354.14Z" fill="#DD936F"/>
<path d="M233.798 351.162C233.95 350.942 234.255 350.884 234.479 351.034L234.801 351.257C235.052 351.436 235.332 351.643 235.633 351.875C236.492 352.538 237.352 353.273 238.155 354.061C239.713 355.588 240.872 357.128 241.467 358.64C241.757 359.375 242.078 360.095 242.426 360.8C242.984 361.931 243.582 362.965 244.179 363.881C244.388 364.201 244.581 364.482 244.754 364.723L244.966 365.01C245.13 365.221 245.089 365.523 244.874 365.685C244.659 365.846 244.352 365.806 244.188 365.595L244.016 365.365L243.954 365.279C243.773 365.027 243.571 364.733 243.355 364.401C242.737 363.455 242.12 362.387 241.544 361.22C241.185 360.493 240.853 359.748 240.554 358.988C240.016 357.624 238.933 356.184 237.463 354.743C236.69 353.984 235.859 353.274 235.028 352.633L234.609 352.316C234.542 352.266 234.477 352.218 234.413 352.172L233.966 351.856C233.952 351.846 233.94 351.838 233.929 351.831C233.705 351.682 233.647 351.382 233.798 351.162Z" fill="#DD936F"/>
<path fill-rule="evenodd" clip-rule="evenodd" d="M324.733 204.826L328.505 185.031C328.505 185.031 338.962 162.238 343.625 163.142C348.012 164.56 339.093 171.639 337.798 177.923C341.779 177.267 340.528 183.299 340.528 183.299C340.528 183.299 343.707 182.885 343.314 187.742C346.443 189.189 344.6 194.893 344.6 194.893C344.6 194.893 342.977 206.034 337.319 216.284C337.319 216.284 325.562 221.915 324.733 204.826Z" fill="#FFC999"/>
<path fill-rule="evenodd" clip-rule="evenodd" d="M324.255 203.228C324.255 203.228 324.512 193.985 324.915 189.25C325.318 184.516 322.504 176.299 326.172 178.202C328.636 179.482 328.72 184.519 328.993 188.215C329.268 191.908 336.172 200.08 332.246 206.553C329.594 210.927 324.837 211.916 324.255 203.228Z" fill="#FFC999"/>
<path d="M337.414 177.626C337.581 177.416 337.888 177.38 338.101 177.544C338.314 177.708 338.351 178.011 338.184 178.22L337.997 178.462L337.628 178.952C337.584 179.012 337.539 179.073 337.494 179.135C336.972 179.85 336.451 180.614 335.966 181.395C335.486 182.165 335.068 182.911 334.728 183.615C333.462 186.234 333.444 187.847 334.843 188.273C335.102 188.352 335.246 188.622 335.166 188.876C335.086 189.13 334.812 189.272 334.554 189.193C332.324 188.515 332.35 186.291 333.843 183.202C334.199 182.464 334.634 181.69 335.13 180.892C335.629 180.09 336.163 179.307 336.697 178.574L336.967 178.208L337.388 177.658C337.398 177.646 337.406 177.635 337.414 177.626Z" fill="#DD936F"/>
<path d="M340.524 183.183C340.709 183.378 340.697 183.683 340.499 183.864L340.293 184.058L340.028 184.313C339.936 184.403 339.839 184.499 339.738 184.6C339.164 185.174 338.59 185.788 338.055 186.415C337.532 187.029 337.075 187.622 336.703 188.181C335.517 189.966 335.361 191.1 336.289 191.546C336.485 191.641 336.687 191.686 336.899 191.687C337.651 191.691 338.542 191.128 339.45 190.17C339.781 189.821 340.09 189.444 340.368 189.068L340.579 188.773C340.636 188.689 340.681 188.622 340.711 188.575C340.853 188.349 341.155 188.279 341.385 188.419C341.615 188.56 341.686 188.857 341.543 189.083L341.452 189.222C341.379 189.33 341.281 189.47 341.161 189.633C340.861 190.04 340.528 190.446 340.167 190.827C339.089 191.964 337.994 192.655 336.894 192.65C336.536 192.649 336.188 192.57 335.858 192.411C334.175 191.601 334.413 189.865 335.883 187.654C336.278 187.06 336.758 186.437 337.305 185.796C337.858 185.148 338.449 184.516 339.04 183.924L339.478 183.493L339.832 183.159C340.03 182.978 340.34 182.989 340.524 183.183Z" fill="#DD936F"/>
<path d="M342.157 187.724C342.419 187.658 342.686 187.813 342.754 188.071C342.821 188.328 342.663 188.591 342.401 188.657C341.77 188.816 341.007 189.462 340.135 190.689C338.307 193.266 338.029 194.837 338.671 195.129C339.337 195.432 340.774 194.618 341.608 193.168C341.908 192.647 342.713 193.024 342.491 193.581C341.315 196.528 339.777 198.44 337.609 200.047C337.316 200.264 337.015 200.474 336.672 200.702L335.258 201.617C332.391 203.473 331.313 204.893 330.963 208.215C330.935 208.48 330.695 208.672 330.426 208.645C330.157 208.618 329.961 208.381 329.989 208.116C330.362 204.563 331.563 202.902 334.479 200.97L335.865 200.075L336.362 199.744C336.595 199.585 336.81 199.432 337.019 199.278C338.287 198.338 339.319 197.294 340.184 195.966L340.296 195.788L340.203 195.837C339.559 196.149 338.913 196.243 338.38 196.052L338.259 196.003C336.807 195.342 337.194 193.15 339.332 190.138C340.325 188.739 341.256 187.951 342.157 187.724Z" fill="#DD936F"/>
<path d="M328.564 183.121C328.803 183.079 329.033 183.216 329.112 183.434L329.132 183.51L330.385 190.367L330.454 190.462C330.561 190.612 330.681 190.785 330.809 190.98C331.175 191.535 331.54 192.153 331.882 192.819C332.864 194.735 333.455 196.657 333.456 198.475C333.456 199.502 333.264 200.467 332.858 201.353C332.747 201.595 332.456 201.703 332.21 201.594C331.963 201.485 331.853 201.199 331.964 200.957C332.311 200.201 332.476 199.371 332.476 198.476C332.476 196.832 331.926 195.046 331.007 193.252C330.747 192.746 330.473 192.268 330.196 191.828L329.987 191.504C329.78 191.19 329.62 190.967 329.532 190.852C329.501 190.812 329.477 190.767 329.46 190.72L329.441 190.647L328.168 183.68C328.12 183.419 328.297 183.168 328.564 183.121Z" fill="#DD936F"/>
<path d="M274.11 278.614C274.371 278.605 274.59 278.805 274.601 279.061C274.609 279.292 274.445 279.489 274.222 279.534L274.146 279.543L224.27 281.375C224.009 281.385 223.79 281.185 223.78 280.928C223.772 280.698 223.935 280.5 224.158 280.456L224.235 280.447L274.11 278.614Z" fill="#1443BD"/>
<path d="M274.11 278.614C274.371 278.605 274.59 278.805 274.601 279.061C274.609 279.292 274.445 279.489 274.222 279.534L274.146 279.543L224.27 281.375C224.009 281.385 223.79 281.185 223.78 280.928C223.772 280.698 223.935 280.5 224.158 280.456L224.235 280.447L274.11 278.614Z" fill="black" fill-opacity="0.5"/>
<path d="M527.627 177.076H439.847C438.115 177.076 436.711 178.492 436.711 180.238V241.556C436.711 243.302 438.115 244.718 439.847 244.718H527.627C529.359 244.718 530.763 243.302 530.763 241.556V180.238C530.763 178.492 529.359 177.076 527.627 177.076Z" fill="#2A84C6"/>
<path d="M527.627 177.076H439.847C438.115 177.076 436.711 178.492 436.711 180.238V241.556C436.711 243.302 438.115 244.718 439.847 244.718H527.627C529.359 244.718 530.763 243.302 530.763 241.556V180.238C530.763 178.492 529.359 177.076 527.627 177.076Z" fill="white" fill-opacity="0.85"/>
<path d="M513.124 236.533C514.484 236.533 515.587 234.185 515.587 231.289C515.587 228.394 514.484 226.046 513.124 226.046C511.763 226.046 510.661 228.394 510.661 231.289C510.661 234.185 511.763 236.533 513.124 236.533Z" fill="white"/>
<path d="M530.719 197.761H436.756V207.571H530.719V197.761Z" fill="white"/>
<path d="M475.971 217.735H444.465C443.887 217.735 443.419 218.207 443.419 218.789V220.069C443.419 220.652 443.887 221.123 444.465 221.123H475.971C476.549 221.123 477.017 220.652 477.017 220.069V218.789C477.017 218.207 476.549 217.735 475.971 217.735Z" fill="white"/>
<path d="M462.637 227.9H444.465C443.887 227.9 443.419 228.372 443.419 228.954V230.234C443.419 230.817 443.887 231.289 444.465 231.289H462.637C463.215 231.289 463.683 230.817 463.683 230.234V228.954C463.683 228.372 463.215 227.9 462.637 227.9Z" fill="white"/>
<path d="M452.506 183.891H444.465C443.887 183.891 443.419 184.363 443.419 184.945V189.573C443.419 190.156 443.887 190.628 444.465 190.628H452.506C453.083 190.628 453.551 190.156 453.551 189.573V184.945C453.551 184.363 453.083 183.891 452.506 183.891Z" fill="white"/>
<path d="M510.66 231.289C510.658 229.257 511.563 227.331 513.124 226.046C510.387 223.783 506.378 224.05 503.96 226.656C501.541 229.262 501.541 233.313 503.96 235.919C506.378 238.525 510.387 238.791 513.124 236.529C511.564 235.244 510.659 233.321 510.66 231.289Z" fill="#F56D7E"/>
<path d="M517.379 224.512C515.828 224.51 514.323 225.052 513.124 226.046C514.681 227.333 515.584 229.256 515.584 231.287C515.584 233.318 514.681 235.241 513.124 236.529C515.413 238.422 518.661 238.582 521.122 236.922C523.582 235.262 524.676 232.174 523.815 229.317C522.953 226.461 520.34 224.51 517.379 224.512Z" fill="#B7EE81"/>
<path d="M517.379 224.512C515.828 224.51 514.323 225.052 513.124 226.046C514.681 227.333 515.584 229.256 515.584 231.287C515.584 233.318 514.681 235.241 513.124 236.529C515.413 238.422 518.661 238.582 521.122 236.922C523.582 235.262 524.676 232.174 523.815 229.317C522.953 226.461 520.34 224.51 517.379 224.512Z" fill="white" fill-opacity="0.2"/>
<g filter="url(#filter3_ddddd_309_478)">
<g filter="url(#filter4_i_309_478)">
<path d="M417 307C417 301.001 417 298.001 418.528 295.898C419.021 295.219 419.619 294.621 420.298 294.128C422.401 292.6 425.4 292.6 431.4 292.6H467.034C473.034 292.6 476.033 292.6 478.136 294.128C478.815 294.621 479.413 295.219 479.906 295.898C481.434 298.001 481.434 301.001 481.434 307V354.591C481.434 360.59 481.434 363.59 479.906 365.693C479.413 366.372 478.815 366.969 478.136 367.463C476.033 368.991 473.034 368.991 467.034 368.991H431.4C425.4 368.991 422.401 368.991 420.298 367.463C419.619 366.969 419.021 366.372 418.528 365.693C417 363.59 417 360.59 417 354.591V307Z" fill="white"/>
</g>
<path fill-rule="evenodd" clip-rule="evenodd" d="M466.523 333.325C463.378 329.521 453.631 322.158 459.149 316.335C464.105 311.105 468.32 317.94 474.112 325.179L466.523 333.325Z" fill="#F56D7E"/>
<path fill-rule="evenodd" clip-rule="evenodd" d="M430.447 333.325C433.592 329.521 443.982 321.289 438.464 315.465C433.507 310.235 428.65 317.94 422.858 325.179L430.447 333.325Z" fill="#F56D7E"/>
<path fill-rule="evenodd" clip-rule="evenodd" d="M437.597 344.535C438.682 349.044 438.891 349.703 438.891 349.703C445.239 350.131 458.976 349.703 458.976 349.703C459.541 347.005 460.131 343.961 460.131 343.961C460.131 343.961 466.998 316.61 464.804 315.053C462.782 313.618 459.185 312.487 454.439 311.698C454.307 311.992 452.977 314.282 448.535 314.336C443.673 314.395 442.628 312.227 442.451 311.847C438.47 312.338 435.958 312.644 433.48 314.174C432.715 314.645 433.235 326.406 437.597 344.535Z" fill="#F56D7E"/>
</g>
<path fill-rule="evenodd" clip-rule="evenodd" d="M476.705 371.237C476.704 371.211 476.708 371.186 476.716 371.161C476.74 371.081 476.803 371.019 476.885 370.994L481.213 369.654C481.413 369.593 481.442 369.419 481.446 369.368C481.45 369.316 481.448 369.141 481.26 369.05L469.399 363.358C469.282 363.302 469.15 363.315 469.046 363.392C468.942 363.47 468.896 363.59 468.921 363.715L471.538 376.555C471.579 376.755 471.751 376.802 471.803 376.812C471.855 376.822 472.033 376.841 472.148 376.67L474.724 372.847C474.77 372.778 474.847 372.736 474.931 372.733C475.015 372.731 475.095 372.768 475.146 372.833L479.298 378.165C479.341 378.221 479.421 378.233 479.479 378.192L481.22 376.987C481.261 376.959 481.272 376.921 481.274 376.9C481.277 376.88 481.278 376.839 481.246 376.802L476.762 371.391C476.725 371.347 476.705 371.292 476.705 371.237Z" fill="#1443BD"/>
<defs>
<filter id="filter0_iii_309_478" x="355" y="56" width="70.1285" height="15.9648" filterUnits="userSpaceOnUse" color-interpolation-filters="sRGB">
<feFlood flood-opacity="0" result="BackgroundImageFix"/>
<feBlend mode="normal" in="SourceGraphic" in2="BackgroundImageFix" result="shape"/>
<feColorMatrix in="SourceAlpha" type="matrix" values="0 0 0 0 0 0 0 0 0 0 0 0 0 0 0 0 0 0 127 0" result="hardAlpha"/>
<feOffset dy="2"/>
<feGaussianBlur stdDeviation="2"/>
<feComposite in2="hardAlpha" operator="arithmetic" k2="-1" k3="1"/>
<feColorMatrix type="matrix" values="0 0 0 0 0.705882 0 0 0 0 0.831373 0 0 0 0 0.921569 0 0 0 0.06 0"/>
<feBlend mode="normal" in2="shape" result="effect1_innerShadow_309_478"/>
<feColorMatrix in="SourceAlpha" type="matrix" values="0 0 0 0 0 0 0 0 0 0 0 0 0 0 0 0 0 0 127 0" result="hardAlpha"/>
<feOffset dy="6"/>
<feGaussianBlur stdDeviation="4"/>
<feComposite in2="hardAlpha" operator="arithmetic" k2="-1" k3="1"/>
<feColorMatrix type="matrix" values="0 0 0 0 0.705882 0 0 0 0 0.831373 0 0 0 0 0.921569 0 0 0 0.04 0"/>
<feBlend mode="normal" in2="effect1_innerShadow_309_478" result="effect2_innerShadow_309_478"/>
<feColorMatrix in="SourceAlpha" type="matrix" values="0 0 0 0 0 0 0 0 0 0 0 0 0 0 0 0 0 0 127 0" result="hardAlpha"/>
<feOffset dy="1"/>
<feGaussianBlur stdDeviation="1"/>
<feComposite in2="hardAlpha" operator="arithmetic" k2="-1" k3="1"/>
<feColorMatrix type="matrix" values="0 0 0 0 0.105882 0 0 0 0 0.337255 0 0 0 0 0.505882 0 0 0 0.12 0"/>
<feBlend mode="normal" in2="effect2_innerShadow_309_478" result="effect3_innerShadow_309_478"/>
</filter>
<filter id="filter1_iii_309_478" x="355" y="77.2578" width="70.1285" height="15.9648" filterUnits="userSpaceOnUse" color-interpolation-filters="sRGB">
<feFlood flood-opacity="0" result="BackgroundImageFix"/>
<feBlend mode="normal" in="SourceGraphic" in2="BackgroundImageFix" result="shape"/>
<feColorMatrix in="SourceAlpha" type="matrix" values="0 0 0 0 0 0 0 0 0 0 0 0 0 0 0 0 0 0 127 0" result="hardAlpha"/>
<feOffset dy="2"/>
<feGaussianBlur stdDeviation="2"/>
<feComposite in2="hardAlpha" operator="arithmetic" k2="-1" k3="1"/>
<feColorMatrix type="matrix" values="0 0 0 0 0.705882 0 0 0 0 0.831373 0 0 0 0 0.921569 0 0 0 0.06 0"/>
<feBlend mode="normal" in2="shape" result="effect1_innerShadow_309_478"/>
<feColorMatrix in="SourceAlpha" type="matrix" values="0 0 0 0 0 0 0 0 0 0 0 0 0 0 0 0 0 0 127 0" result="hardAlpha"/>
<feOffset dy="6"/>
<feGaussianBlur stdDeviation="4"/>
<feComposite in2="hardAlpha" operator="arithmetic" k2="-1" k3="1"/>
<feColorMatrix type="matrix" values="0 0 0 0 0.705882 0 0 0 0 0.831373 0 0 0 0 0.921569 0 0 0 0.04 0"/>
<feBlend mode="normal" in2="effect1_innerShadow_309_478" result="effect2_innerShadow_309_478"/>
<feColorMatrix in="SourceAlpha" type="matrix" values="0 0 0 0 0 0 0 0 0 0 0 0 0 0 0 0 0 0 127 0" result="hardAlpha"/>
<feOffset dy="1"/>
<feGaussianBlur stdDeviation="1"/>
<feComposite in2="hardAlpha" operator="arithmetic" k2="-1" k3="1"/>
<feColorMatrix type="matrix" values="0 0 0 0 0.105882 0 0 0 0 0.337255 0 0 0 0 0.505882 0 0 0 0.12 0"/>
<feBlend mode="normal" in2="effect2_innerShadow_309_478" result="effect3_innerShadow_309_478"/>
</filter>
<filter id="filter2_ddddd_309_478" x="285" y="68.5161" width="210.128" height="149.965" filterUnits="userSpaceOnUse" color-interpolation-filters="sRGB">
<feFlood flood-opacity="0" result="BackgroundImageFix"/>
<feColorMatrix in="SourceAlpha" type="matrix" values="0 0 0 0 0 0 0 0 0 0 0 0 0 0 0 0 0 0 127 0" result="hardAlpha"/>
<feOffset dy="6"/>
<feGaussianBlur stdDeviation="4"/>
<feColorMatrix type="matrix" values="0 0 0 0 0.705882 0 0 0 0 0.831373 0 0 0 0 0.921569 0 0 0 0.12 0"/>
<feBlend mode="normal" in2="BackgroundImageFix" result="effect1_dropShadow_309_478"/>
<feColorMatrix in="SourceAlpha" type="matrix" values="0 0 0 0 0 0 0 0 0 0 0 0 0 0 0 0 0 0 127 0" result="hardAlpha"/>
<feOffset dy="8"/>
<feGaussianBlur stdDeviation="12"/>
<feColorMatrix type="matrix" values="0 0 0 0 0.705882 0 0 0 0 0.831373 0 0 0 0 0.921569 0 0 0 0.08 0"/>
<feBlend mode="normal" in2="effect1_dropShadow_309_478" result="effect2_dropShadow_309_478"/>
<feColorMatrix in="SourceAlpha" type="matrix" values="0 0 0 0 0 0 0 0 0 0 0 0 0 0 0 0 0 0 127 0" result="hardAlpha"/>
<feOffset dy="16"/>
<feGaussianBlur stdDeviation="18"/>
<feColorMatrix type="matrix" values="0 0 0 0 0.705882 0 0 0 0 0.831373 0 0 0 0 0.921569 0 0 0 0.04 0"/>
<feBlend mode="normal" in2="effect2_dropShadow_309_478" result="effect3_dropShadow_309_478"/>
<feColorMatrix in="SourceAlpha" type="matrix" values="0 0 0 0 0 0 0 0 0 0 0 0 0 0 0 0 0 0 127 0" result="hardAlpha"/>
<feOffset dy="40"/>
<feGaussianBlur stdDeviation="35"/>
<feColorMatrix type="matrix" values="0 0 0 0 0.705882 0 0 0 0 0.831373 0 0 0 0 0.921569 0 0 0 0.04 0"/>
<feBlend mode="normal" in2="effect3_dropShadow_309_478" result="effect4_dropShadow_309_478"/>
<feColorMatrix in="SourceAlpha" type="matrix" values="0 0 0 0 0 0 0 0 0 0 0 0 0 0 0 0 0 0 127 0" result="hardAlpha"/>
<feOffset dy="2"/>
<feGaussianBlur stdDeviation="2"/>
<feColorMatrix type="matrix" values="0 0 0 0 0.87451 0 0 0 0 0.929412 0 0 0 0 0.964706 0 0 0 0.4 0"/>
<feBlend mode="normal" in2="effect4_dropShadow_309_478" result="effect5_dropShadow_309_478"/>
<feBlend mode="normal" in="SourceGraphic" in2="effect5_dropShadow_309_478" result="shape"/>
</filter>
<filter id="filter3_ddddd_309_478" x="347" y="262.6" width="204.434" height="216.391" filterUnits="userSpaceOnUse" color-interpolation-filters="sRGB">
<feFlood flood-opacity="0" result="BackgroundImageFix"/>
<feColorMatrix in="SourceAlpha" type="matrix" values="0 0 0 0 0 0 0 0 0 0 0 0 0 0 0 0 0 0 127 0" result="hardAlpha"/>
<feOffset dy="6"/>
<feGaussianBlur stdDeviation="4"/>
<feColorMatrix type="matrix" values="0 0 0 0 0.705882 0 0 0 0 0.831373 0 0 0 0 0.921569 0 0 0 0.12 0"/>
<feBlend mode="normal" in2="BackgroundImageFix" result="effect1_dropShadow_309_478"/>
<feColorMatrix in="SourceAlpha" type="matrix" values="0 0 0 0 0 0 0 0 0 0 0 0 0 0 0 0 0 0 127 0" result="hardAlpha"/>
<feOffset dy="8"/>
<feGaussianBlur stdDeviation="12"/>
<feColorMatrix type="matrix" values="0 0 0 0 0.705882 0 0 0 0 0.831373 0 0 0 0 0.921569 0 0 0 0.08 0"/>
<feBlend mode="normal" in2="effect1_dropShadow_309_478" result="effect2_dropShadow_309_478"/>
<feColorMatrix in="SourceAlpha" type="matrix" values="0 0 0 0 0 0 0 0 0 0 0 0 0 0 0 0 0 0 127 0" result="hardAlpha"/>
<feOffset dy="16"/>
<feGaussianBlur stdDeviation="18"/>
<feColorMatrix type="matrix" values="0 0 0 0 0.705882 0 0 0 0 0.831373 0 0 0 0 0.921569 0 0 0 0.04 0"/>
<feBlend mode="normal" in2="effect2_dropShadow_309_478" result="effect3_dropShadow_309_478"/>
<feColorMatrix in="SourceAlpha" type="matrix" values="0 0 0 0 0 0 0 0 0 0 0 0 0 0 0 0 0 0 127 0" result="hardAlpha"/>
<feOffset dy="40"/>
<feGaussianBlur stdDeviation="35"/>
<feColorMatrix type="matrix" values="0 0 0 0 0.705882 0 0 0 0 0.831373 0 0 0 0 0.921569 0 0 0 0.04 0"/>
<feBlend mode="normal" in2="effect3_dropShadow_309_478" result="effect4_dropShadow_309_478"/>
<feColorMatrix in="SourceAlpha" type="matrix" values="0 0 0 0 0 0 0 0 0 0 0 0 0 0 0 0 0 0 127 0" result="hardAlpha"/>
<feOffset dy="2"/>
<feGaussianBlur stdDeviation="2"/>
<feColorMatrix type="matrix" values="0 0 0 0 0.87451 0 0 0 0 0.929412 0 0 0 0 0.964706 0 0 0 0.4 0"/>
<feBlend mode="normal" in2="effect4_dropShadow_309_478" result="effect5_dropShadow_309_478"/>
<feBlend mode="normal" in="SourceGraphic" in2="effect5_dropShadow_309_478" result="shape"/>
</filter>
<filter id="filter4_i_309_478" x="417" y="292.6" width="64.434" height="76.3906" filterUnits="userSpaceOnUse" color-interpolation-filters="sRGB">
<feFlood flood-opacity="0" result="BackgroundImageFix"/>
<feBlend mode="normal" in="SourceGraphic" in2="BackgroundImageFix" result="shape"/>
<feColorMatrix in="SourceAlpha" type="matrix" values="0 0 0 0 0 0 0 0 0 0 0 0 0 0 0 0 0 0 127 0" result="hardAlpha"/>
<feOffset dy="-1"/>
<feComposite in2="hardAlpha" operator="arithmetic" k2="-1" k3="1"/>
<feColorMatrix type="matrix" values="0 0 0 0 0 0 0 0 0 0 0 0 0 0 0 0 0 0 0.12 0"/>
<feBlend mode="normal" in2="shape" result="effect1_innerShadow_309_478"/>
</filter>
<clipPath id="clip0_309_478">
<rect width="147" height="144.822" fill="white" transform="translate(317 3.94067)"/>
</clipPath>
</defs>
</svg>
