<svg width="96" height="98" viewBox="0 0 96 98" fill="none" xmlns="http://www.w3.org/2000/svg">
<path d="M25.9595 19.3406V30.6951H11.2422L25.9595 19.3406Z" fill="#1443BD"/>
<path d="M25.9595 19.3406V30.6951H11.2422L25.9595 19.3406Z" fill="black" fill-opacity="0.2"/>
<path d="M69.9081 19.3406V30.6867L84.7044 30.6951L69.9081 19.3406Z" fill="#1443BD"/>
<path d="M69.9081 19.3406V30.6867L84.7044 30.6951L69.9081 19.3406Z" fill="black" fill-opacity="0.2"/>
<path d="M69.9087 19.3406L84.7051 30.6951H11.2422L25.9595 19.3406H69.9087Z" fill="#B7EE81"/>
<path d="M69.9087 19.3406L84.7051 30.6951H11.2422L25.9595 19.3406H69.9087Z" fill="white" fill-opacity="0.5"/>
<path d="M47.2301 45.6602C58.7343 45.6602 68.0602 36.3343 68.0602 24.8301C68.0602 13.326 58.7343 4 47.2301 4C35.726 4 26.4 13.326 26.4 24.8301C26.4 36.3343 35.726 45.6602 47.2301 45.6602Z" fill="#1443BD"/>
<path d="M47.2301 45.6602C58.7343 45.6602 68.0602 36.3343 68.0602 24.8301C68.0602 13.326 58.7343 4 47.2301 4C35.726 4 26.4 13.326 26.4 24.8301C26.4 36.3343 35.726 45.6602 47.2301 45.6602Z" fill="white" fill-opacity="0.65"/>
<path d="M46.948 41.096C56.0872 41.096 63.496 33.6872 63.496 24.548C63.496 15.4088 56.0872 8 46.948 8C37.8088 8 30.4 15.4088 30.4 24.548C30.4 33.6872 37.8088 41.096 46.948 41.096Z" fill="#1443BD"/>
<path d="M46.948 41.096C56.0872 41.096 63.496 33.6872 63.496 24.548C63.496 15.4088 56.0872 8 46.948 8C37.8088 8 30.4 15.4088 30.4 24.548C30.4 33.6872 37.8088 41.096 46.948 41.096Z" fill="white" fill-opacity="0.5"/>
<path d="M47.07 35.308C46.5847 35.308 46.1974 35.2707 45.908 35.196V32.704C44.9747 32.5733 44.1114 32.3493 43.318 32.032C42.5247 31.7147 41.8854 31.3927 41.4 31.066C41.4094 30.6647 41.5307 30.2353 41.764 29.778C41.9974 29.3207 42.2587 28.9987 42.548 28.812C43.1827 29.2227 43.9154 29.5867 44.746 29.904C45.5767 30.2213 46.398 30.3847 47.21 30.394C48.0034 30.394 48.6567 30.226 49.17 29.89C49.6834 29.5447 49.9447 29.0593 49.954 28.434C49.9634 27.9207 49.8094 27.468 49.492 27.076C49.1747 26.6747 48.666 26.3527 47.966 26.11L45.25 25.144C44.2327 24.7893 43.4207 24.2807 42.814 23.618C42.2167 22.946 41.918 22.1013 41.918 21.084C41.918 19.9173 42.3054 18.9187 43.08 18.088C43.864 17.2573 44.9 16.7487 46.188 16.562V14.112C46.3467 14.0747 46.5287 14.0467 46.734 14.028C46.9487 14.0093 47.154 14 47.35 14C47.8074 14 48.19 14.0373 48.498 14.112V16.576C49.282 16.66 50.0054 16.814 50.668 17.038C51.34 17.262 51.9374 17.5093 52.46 17.78C52.46 18.1907 52.362 18.606 52.166 19.026C51.9794 19.446 51.7367 19.7913 51.438 20.062C50.7847 19.7073 50.1127 19.4273 49.422 19.222C48.7407 19.0167 48.0687 18.914 47.406 18.914C46.6407 18.914 46.0294 19.082 45.572 19.418C45.1147 19.754 44.886 20.2067 44.886 20.776C44.886 21.3173 45.0634 21.728 45.418 22.008C45.7727 22.2787 46.2394 22.5167 46.818 22.722L49.394 23.66C50.486 24.052 51.354 24.6213 51.998 25.368C52.642 26.1147 52.964 27.0807 52.964 28.266C52.964 29.4607 52.5394 30.4687 51.69 31.29C50.8407 32.102 49.6834 32.5873 48.218 32.746V35.196C47.938 35.2707 47.5554 35.308 47.07 35.308Z" fill="white"/>
<path d="M11.4213 44.5586H84.6551V81.1398C84.6551 82.7192 83.4248 83.9996 81.907 83.9996H14.1694C12.6516 83.9996 11.4213 82.7192 11.4213 81.1398V44.5586Z" fill="#1443BD"/>
<path d="M11.3259 30.6951L4.17967 47.0554C3.90803 47.6457 3.94639 48.3398 4.28126 48.8938C4.61614 49.4479 5.20072 49.7844 5.82968 49.7853H90.1637C90.8064 49.7853 91.4021 49.4344 91.7334 48.8612C92.0646 48.2879 92.0829 47.5759 91.7816 46.9851L84.7831 30.6951H11.3259Z" fill="#2A84C6"/>
<path d="M11.3259 30.6951L4.17967 47.0554C3.90803 47.6457 3.94639 48.3398 4.28126 48.8938C4.61614 49.4479 5.20072 49.7844 5.82968 49.7853H90.1637C90.8064 49.7853 91.4021 49.4344 91.7334 48.8612C92.0646 48.2879 92.0829 47.5759 91.7816 46.9851L84.7831 30.6951H11.3259Z" fill="white" fill-opacity="0.85"/>
</svg>
