<svg width="120" height="120" viewBox="0 0 120 120" fill="none" xmlns="http://www.w3.org/2000/svg">
<g clip-path="url(#clip0_358_413)">
<g clip-path="url(#clip1_358_413)" filter="url(#filter0_ddddd_358_413)">
<path d="M16.262 45.828C15.6384 46.0887 15.3438 46.8056 15.6047 47.4296C17.0798 50.8072 18.0133 54.2674 18.4631 57.9299C18.5259 58.441 19.1642 59.3224 20.151 58.9099C20.6442 58.7037 20.9612 58.1886 20.8929 57.6311C20.587 55.1104 19.8863 51.1188 17.8631 46.4855C17.6029 45.8617 16.886 45.5671 16.262 45.828ZM14.6136 41.9988C11.7294 43.2007 10.645 46.2601 11.7478 48.7855C12.7262 51.0268 13.4582 53.3727 13.9231 55.7568C14.0518 56.4206 14.6953 56.8542 15.3582 56.7247C16.0248 56.5936 16.4548 55.9533 16.3261 55.2896C15.8272 52.729 15.0415 50.2109 13.9918 47.8059C13.462 46.5928 13.8966 44.9439 15.5245 44.2716C17.0072 43.6777 18.7125 44.3397 19.3273 45.7484C20.3089 47.9944 21.0903 50.3369 21.6522 52.7124C21.807 53.3697 22.4671 53.7771 23.1247 53.6216C24.13 53.3854 24.0893 52.3835 24.0336 52.1486C23.439 49.6314 22.61 47.1485 21.5714 44.7687C20.4322 42.1602 17.3111 40.9175 14.6136 41.9988ZM9.01546 43.2456C8.36668 43.0558 7.68779 43.4248 7.49521 44.0736C6.90928 46.06 7.04389 48.2029 7.87512 50.1066C8.64222 51.8634 9.23972 53.6973 9.65084 55.5588C9.79746 56.2189 10.45 56.636 11.1106 56.4903C12.1258 56.2594 12.0931 55.2608 12.0422 55.0306C11.5968 53.0143 10.9494 51.0282 10.1192 49.1269C9.50923 47.73 9.41343 46.2222 9.84388 44.7657C10.0346 44.1177 9.6639 43.4373 9.01546 43.2456ZM12.9408 38.1588C12.2075 38.4427 11.5164 38.8339 10.8842 39.2933C10.3378 39.6909 10.2164 40.4559 10.6135 41.0036C11.0111 41.55 11.7762 41.6691 12.3238 41.2743C12.7925 40.9341 13.307 40.6549 13.8512 40.4318C17.4231 39.001 21.5426 40.6163 23.0344 44.0327C23.8075 45.8037 24.4716 47.6396 25.0074 49.4898C25.1959 50.1391 25.8749 50.5137 26.5237 50.3253C27.3489 50.0882 27.4905 49.2644 27.3592 48.809C26.7904 46.8475 26.0954 44.9249 25.2785 43.0531C23.2623 38.4367 17.7275 36.2406 12.9408 38.1588ZM27.1923 38.915C26.8035 38.3632 26.0453 38.2225 25.4865 38.6181C24.9338 39.0072 24.8007 39.7705 25.1901 40.3237C25.8329 41.2385 26.1571 41.9876 26.6231 43.13C26.879 43.7567 27.5935 44.0561 28.2192 43.8006L28.2287 43.7967C28.8484 43.5376 29.1442 42.8274 28.8898 42.2045C28.462 41.1572 28.0409 40.1209 27.1923 38.915ZM23.5195 35.4351C19.8626 33.1278 15.2828 32.7111 11.2677 34.3194C7.9669 35.6529 5.43544 38.1337 4.12106 41.3385C2.85237 44.4357 2.88964 47.8295 4.22937 50.8965L4.64611 51.9093C4.88843 52.5405 5.59638 52.8559 6.22739 52.6131C6.2386 52.6096 6.25037 52.6046 6.26166 52.5999C6.86967 52.3457 7.16915 51.6511 6.93127 51.0319L6.47372 49.9162C5.4018 47.462 5.37142 44.7459 6.38757 42.2678C7.44825 39.6794 9.51202 37.6628 12.1793 36.5925C15.4678 35.2746 19.2191 35.6153 22.2144 37.5049C22.7861 37.8662 23.5406 37.694 23.9024 37.1232C24.2626 36.5513 24.0914 35.7953 23.5195 35.4351Z" fill="#1443BD"/>
</g>
<path d="M91.4183 59.2859L92.8698 61.3005L91.1719 62.3638L89.9669 60.0414L88.7619 62.3638L87.064 61.3005L88.5429 59.2859L86.0508 59.4538V57.4392L88.5429 57.6071L87.064 55.5925L88.7619 54.5293L89.9669 56.8516L91.1719 54.5293L92.8698 55.5925L91.4183 57.6071L93.883 57.4392V59.4538L91.4183 59.2859Z" fill="#1443BD"/>
<path d="M91.4183 59.2859L92.8698 61.3005L91.1719 62.3638L89.9669 60.0414L88.7619 62.3638L87.064 61.3005L88.5429 59.2859L86.0508 59.4538V57.4392L88.5429 57.6071L87.064 55.5925L88.7619 54.5293L89.9669 56.8516L91.1719 54.5293L92.8698 55.5925L91.4183 57.6071L93.883 57.4392V59.4538L91.4183 59.2859Z" fill="white" fill-opacity="0.2"/>
<path d="M101.865 59.2859L103.317 61.3005L101.619 62.3638L100.414 60.0414L99.2091 62.3638L97.5112 61.3005L98.99 59.2859L96.4979 59.4538V57.4392L98.99 57.6071L97.5112 55.5925L99.2091 54.5293L100.414 56.8516L101.619 54.5293L103.317 55.5925L101.865 57.6071L104.33 57.4392V59.4538L101.865 59.2859Z" fill="#1443BD"/>
<path d="M101.865 59.2859L103.317 61.3005L101.619 62.3638L100.414 60.0414L99.2091 62.3638L97.5112 61.3005L98.99 59.2859L96.4979 59.4538V57.4392L98.99 57.6071L97.5112 55.5925L99.2091 54.5293L100.414 56.8516L101.619 54.5293L103.317 55.5925L101.865 57.6071L104.33 57.4392V59.4538L101.865 59.2859Z" fill="white" fill-opacity="0.2"/>
<path d="M112.313 59.2859L113.764 61.3005L112.066 62.3638L110.861 60.0414L109.656 62.3638L107.958 61.3005L109.437 59.2859L106.945 59.4538V57.4392L109.437 57.6071L107.958 55.5925L109.656 54.5293L110.861 56.8516L112.066 54.5293L113.764 55.5925L112.313 57.6071L114.777 57.4392V59.4538L112.313 59.2859Z" fill="#1443BD"/>
<path d="M112.313 59.2859L113.764 61.3005L112.066 62.3638L110.861 60.0414L109.656 62.3638L107.958 61.3005L109.437 59.2859L106.945 59.4538V57.4392L109.437 57.6071L107.958 55.5925L109.656 54.5293L110.861 56.8516L112.066 54.5293L113.764 55.5925L112.313 57.6071L114.777 57.4392V59.4538L112.313 59.2859Z" fill="white" fill-opacity="0.2"/>
<path d="M67.4884 80.5318V67.814H46.2567V80.5318C23.8283 88.6177 21.3164 94.3835 21.3164 94.3835H92.4334C92.4334 94.3835 89.9214 88.6177 67.4884 80.5318Z" fill="#2A84C6"/>
<path d="M67.4884 80.5318V67.814H46.2567V80.5318C23.8283 88.6177 21.3164 94.3835 21.3164 94.3835H92.4334C92.4334 94.3835 89.9214 88.6177 67.4884 80.5318Z" fill="white" fill-opacity="0.2"/>
<path d="M80.8126 50.6927C80.8126 47.7365 79.2868 45.1943 77.0981 44.064C77.204 40.3298 77.1214 37.7132 77.1214 37.7132C77.1214 30.7774 73.207 24.7127 67.3667 21.41V16.3838C50.853 16.3838 45.5431 22.352 45.5431 22.352C40.5494 25.7954 37.3025 31.3915 37.3025 37.7097C37.3025 37.7097 37.2257 40.2007 37.3199 43.7907C34.8103 44.7408 32.9996 47.4714 32.9996 50.6927C32.9996 54.4467 35.4592 57.5354 38.6143 57.9157C39.3214 61.7999 40.3936 65.3236 42.0124 67.4727C46.8514 73.8979 52.7195 76.6029 57.2119 76.6029C61.7044 76.6029 67.5737 73.8979 72.4115 67.4727C74.0513 65.3015 75.1223 61.7301 75.8294 57.7994C78.6751 57.1133 80.8126 54.1943 80.8126 50.6927Z" fill="#2A84C6"/>
<path d="M80.8126 50.6927C80.8126 47.7365 79.2868 45.1943 77.0981 44.064C77.204 40.3298 77.1214 37.7132 77.1214 37.7132C77.1214 30.7774 73.207 24.7127 67.3667 21.41V16.3838C50.853 16.3838 45.5431 22.352 45.5431 22.352C40.5494 25.7954 37.3025 31.3915 37.3025 37.7097C37.3025 37.7097 37.2257 40.2007 37.3199 43.7907C34.8103 44.7408 32.9996 47.4714 32.9996 50.6927C32.9996 54.4467 35.4592 57.5354 38.6143 57.9157C39.3214 61.7999 40.3936 65.3236 42.0124 67.4727C46.8514 73.8979 52.7195 76.6029 57.2119 76.6029C61.7044 76.6029 67.5737 73.8979 72.4115 67.4727C74.0513 65.3015 75.1223 61.7301 75.8294 57.7994C78.6751 57.1133 80.8126 54.1943 80.8126 50.6927Z" fill="white" fill-opacity="0.65"/>
<path d="M36.8378 37.0486H46.7611" stroke="white" stroke-linecap="round" stroke-linejoin="round"/>
<path d="M49.083 39.5178C50.3656 39.5178 51.4054 38.478 51.4054 37.1954C51.4054 35.9128 50.3656 34.873 49.083 34.873C47.8004 34.873 46.7606 35.9128 46.7606 37.1954C46.7606 38.478 47.8004 39.5178 49.083 39.5178Z" stroke="white" stroke-linecap="round" stroke-linejoin="round"/>
<path d="M75.1774 61.54H65.2529" stroke="white" stroke-linecap="round" stroke-linejoin="round"/>
<path d="M62.9317 63.7141C64.2143 63.7141 65.2541 62.6743 65.2541 61.3917C65.2541 60.1091 64.2143 59.0693 62.9317 59.0693C61.649 59.0693 60.6093 60.1091 60.6093 61.3917C60.6093 62.6743 61.649 63.7141 62.9317 63.7141Z" stroke="white" stroke-linecap="round" stroke-linejoin="round"/>
<path d="M16.3697 12.5615H12.6483V27.4471H16.3697V12.5615Z" fill="#1443BD"/>
<path d="M16.3697 12.5615H12.6483V27.4471H16.3697V12.5615Z" fill="black" fill-opacity="0.2"/>
<path d="M27.417 16.2829V12.5615L12.6477 12.5615V16.2829H27.417Z" fill="#1443BD"/>
<path d="M27.417 16.2829V12.5615L12.6477 12.5615V16.2829H27.417Z" fill="black" fill-opacity="0.2"/>
<path d="M98.2408 27.4478H101.962V12.5622H98.2408V27.4478Z" fill="#1443BD"/>
<path d="M98.2408 27.4478H101.962V12.5622H98.2408V27.4478Z" fill="black" fill-opacity="0.2"/>
<path d="M101.962 16.2829V12.5615L87.1929 12.5615V16.2829H101.962Z" fill="#1443BD"/>
<path d="M101.962 16.2829V12.5615L87.1929 12.5615V16.2829H101.962Z" fill="black" fill-opacity="0.2"/>
<path d="M16.3697 86.9241H12.6483V101.81H16.3697V86.9241Z" fill="#1443BD"/>
<path d="M16.3697 86.9241H12.6483V101.81H16.3697V86.9241Z" fill="black" fill-opacity="0.2"/>
<path d="M12.6484 98.089V101.81H27.4177V98.089H12.6484Z" fill="#1443BD"/>
<path d="M12.6484 98.089V101.81H27.4177V98.089H12.6484Z" fill="black" fill-opacity="0.2"/>
<path d="M98.2408 101.81H101.962V86.9247H98.2408V101.81Z" fill="#1443BD"/>
<path d="M98.2408 101.81H101.962V86.9247H98.2408V101.81Z" fill="black" fill-opacity="0.2"/>
<path d="M87.1921 98.0889V101.81H101.961V98.0889H87.1921Z" fill="#1443BD"/>
<path d="M87.1921 98.0889V101.81H101.961V98.0889H87.1921Z" fill="black" fill-opacity="0.2"/>
<path d="M106.741 116.73C107.08 116.73 107.403 116.586 107.629 116.333C107.855 116.081 107.962 115.744 107.925 115.407C107.268 109.454 102.22 104.822 96.0897 104.822C89.9598 104.822 84.912 109.454 84.2546 115.409C84.2173 115.745 84.3251 116.082 84.5511 116.334C84.7772 116.587 85.1 116.731 85.4388 116.731L106.741 116.73Z" fill="#2A84C6"/>
<path d="M106.741 116.73C107.08 116.73 107.403 116.586 107.629 116.333C107.855 116.081 107.962 115.744 107.925 115.407C107.268 109.454 102.22 104.822 96.0897 104.822C89.9598 104.822 84.912 109.454 84.2546 115.409C84.2173 115.745 84.3251 116.082 84.5511 116.334C84.7772 116.587 85.1 116.731 85.4388 116.731L106.741 116.73Z" fill="white" fill-opacity="0.85"/>
<path d="M96.0764 104.823C92.2403 104.82 88.6385 106.668 86.4033 109.786C92.2789 113.572 99.822 113.586 105.712 109.822L105.755 109.794C103.521 106.672 99.9159 104.82 96.0764 104.823Z" fill="#2A84C6"/>
<path d="M96.0764 104.823C92.2403 104.82 88.6385 106.668 86.4033 109.786C92.2789 113.572 99.822 113.586 105.712 109.822L105.755 109.794C103.521 106.672 99.9159 104.82 96.0764 104.823Z" fill="white" fill-opacity="0.5"/>
<path d="M96.0984 111.226C105.963 111.226 113.96 103.229 113.96 93.3641C113.96 83.4995 105.963 75.5027 96.0984 75.5027C86.2338 75.5027 78.2369 83.4995 78.2369 93.3641C78.2369 103.229 86.2338 111.226 96.0984 111.226Z" fill="#2A84C6"/>
<path d="M96.0984 111.226C105.963 111.226 113.96 103.229 113.96 93.3641C113.96 83.4995 105.963 75.5027 96.0984 75.5027C86.2338 75.5027 78.2369 83.4995 78.2369 93.3641C78.2369 103.229 86.2338 111.226 96.0984 111.226Z" fill="white" fill-opacity="0.85"/>
<path d="M96.0985 104.227C101.36 104.227 105.625 99.9616 105.625 94.7006C105.625 89.4395 101.36 85.1746 96.0985 85.1746C90.8375 85.1746 86.5725 89.4395 86.5725 94.7006C86.5725 99.9616 90.8375 104.227 96.0985 104.227Z" fill="#1443BD"/>
<path d="M96.0981 99.4643C98.7288 99.4643 100.861 97.3317 100.861 94.701C100.861 92.0703 98.7288 89.9377 96.0981 89.9377C93.4674 89.9377 91.3348 92.0703 91.3348 94.701C91.3348 97.3317 93.4674 99.4643 96.0981 99.4643Z" fill="#2A84C6"/>
<path d="M96.0981 99.4643C98.7288 99.4643 100.861 97.3317 100.861 94.701C100.861 92.0703 98.7288 89.9377 96.0981 89.9377C93.4674 89.9377 91.3348 92.0703 91.3348 94.701C91.3348 97.3317 93.4674 99.4643 96.0981 99.4643Z" fill="white" fill-opacity="0.85"/>
<path d="M96.0979 96.4875C97.0843 96.4875 97.8839 95.6878 97.8839 94.7014C97.8839 93.7149 97.0843 92.9153 96.0979 92.9153C95.1114 92.9153 94.3118 93.7149 94.3118 94.7014C94.3118 95.6878 95.1114 96.4875 96.0979 96.4875Z" fill="#1443BD"/>
<path d="M78.1768 93.3635H81.2438L82.317 95.1877H86.4456" stroke="#1443BD" stroke-linecap="round" stroke-linejoin="round"/>
<path d="M78.1768 93.3635H81.2438L82.317 95.1877H86.4456" stroke="white" stroke-opacity="0.5" stroke-linecap="round" stroke-linejoin="round"/>
<path d="M113.997 93.3635H110.929L109.857 95.1877H105.609" stroke="#1443BD" stroke-linecap="round" stroke-linejoin="round"/>
<path d="M113.997 93.3635H110.929L109.857 95.1877H105.609" stroke="white" stroke-opacity="0.5" stroke-linecap="round" stroke-linejoin="round"/>
</g>
<defs>
<filter id="filter0_ddddd_358_413" x="-74.0461" y="-4.19751" width="181" height="181" filterUnits="userSpaceOnUse" color-interpolation-filters="sRGB">
<feFlood flood-opacity="0" result="BackgroundImageFix"/>
<feColorMatrix in="SourceAlpha" type="matrix" values="0 0 0 0 0 0 0 0 0 0 0 0 0 0 0 0 0 0 127 0" result="hardAlpha"/>
<feOffset dy="6"/>
<feGaussianBlur stdDeviation="4"/>
<feColorMatrix type="matrix" values="0 0 0 0 0.705882 0 0 0 0 0.831373 0 0 0 0 0.921569 0 0 0 0.12 0"/>
<feBlend mode="normal" in2="BackgroundImageFix" result="effect1_dropShadow_358_413"/>
<feColorMatrix in="SourceAlpha" type="matrix" values="0 0 0 0 0 0 0 0 0 0 0 0 0 0 0 0 0 0 127 0" result="hardAlpha"/>
<feOffset dy="8"/>
<feGaussianBlur stdDeviation="12"/>
<feColorMatrix type="matrix" values="0 0 0 0 0.705882 0 0 0 0 0.831373 0 0 0 0 0.921569 0 0 0 0.08 0"/>
<feBlend mode="normal" in2="effect1_dropShadow_358_413" result="effect2_dropShadow_358_413"/>
<feColorMatrix in="SourceAlpha" type="matrix" values="0 0 0 0 0 0 0 0 0 0 0 0 0 0 0 0 0 0 127 0" result="hardAlpha"/>
<feOffset dy="16"/>
<feGaussianBlur stdDeviation="18"/>
<feColorMatrix type="matrix" values="0 0 0 0 0.705882 0 0 0 0 0.831373 0 0 0 0 0.921569 0 0 0 0.04 0"/>
<feBlend mode="normal" in2="effect2_dropShadow_358_413" result="effect3_dropShadow_358_413"/>
<feColorMatrix in="SourceAlpha" type="matrix" values="0 0 0 0 0 0 0 0 0 0 0 0 0 0 0 0 0 0 127 0" result="hardAlpha"/>
<feOffset dy="40"/>
<feGaussianBlur stdDeviation="35"/>
<feColorMatrix type="matrix" values="0 0 0 0 0.705882 0 0 0 0 0.831373 0 0 0 0 0.921569 0 0 0 0.04 0"/>
<feBlend mode="normal" in2="effect3_dropShadow_358_413" result="effect4_dropShadow_358_413"/>
<feColorMatrix in="SourceAlpha" type="matrix" values="0 0 0 0 0 0 0 0 0 0 0 0 0 0 0 0 0 0 127 0" result="hardAlpha"/>
<feOffset dy="2"/>
<feGaussianBlur stdDeviation="2"/>
<feColorMatrix type="matrix" values="0 0 0 0 0.87451 0 0 0 0 0.929412 0 0 0 0 0.964706 0 0 0 0.4 0"/>
<feBlend mode="normal" in2="effect4_dropShadow_358_413" result="effect5_dropShadow_358_413"/>
<feBlend mode="normal" in="SourceGraphic" in2="effect5_dropShadow_358_413" result="shape"/>
</filter>
<clipPath id="clip0_358_413">
<rect width="120" height="120" fill="white"/>
</clipPath>
<clipPath id="clip1_358_413">
<rect width="31.338" height="31.338" fill="white" transform="translate(-4.04614 37.8899) rotate(-22.688)"/>
</clipPath>
</defs>
</svg>
