<svg width="108" height="108" viewBox="0 0 108 108" fill="none" xmlns="http://www.w3.org/2000/svg">
<path fill-rule="evenodd" clip-rule="evenodd" d="M18.7067 29.6779C19.03 29.6779 19.3489 29.6962 19.6629 29.7306C19.6629 29.713 19.6622 29.6955 19.6622 29.6779C19.6622 20.109 27.4194 12.3518 36.9883 12.3518C44.0832 12.3518 50.1809 16.6169 52.8603 22.7223C53.5399 22.6054 54.2384 22.5436 54.9514 22.5436C61.706 22.5436 67.1816 28.0193 67.1816 34.7738C67.1816 41.5283 61.706 47.004 54.9514 47.004H18.7067C13.9222 47.004 10.0437 43.1254 10.0437 38.3409C10.0437 33.5565 13.9222 29.6779 18.7067 29.6779Z" fill="#1443BD"/>
<path fill-rule="evenodd" clip-rule="evenodd" d="M88.0142 57.7162C87.4625 57.7162 86.9182 57.7474 86.3822 57.8063C86.3822 57.7762 86.3833 57.7463 86.3833 57.7162C86.3833 41.3831 73.1427 28.1426 56.8097 28.1426C44.6997 28.1426 34.2915 35.4226 29.718 45.844C28.5582 45.6442 27.3659 45.5388 26.1489 45.5388C14.6196 45.5388 5.27341 54.885 5.27341 66.4143C5.27341 77.9435 14.6196 87.2897 26.1489 87.2897H88.0142C96.1808 87.2897 102.801 80.6695 102.801 72.503C102.801 64.3364 96.1808 57.7162 88.0142 57.7162Z" fill="#2A84C6"/>
<path fill-rule="evenodd" clip-rule="evenodd" d="M88.0142 57.7162C87.4625 57.7162 86.9182 57.7474 86.3822 57.8063C86.3822 57.7762 86.3833 57.7463 86.3833 57.7162C86.3833 41.3831 73.1427 28.1426 56.8097 28.1426C44.6997 28.1426 34.2915 35.4226 29.718 45.844C28.5582 45.6442 27.3659 45.5388 26.1489 45.5388C14.6196 45.5388 5.27341 54.885 5.27341 66.4143C5.27341 77.9435 14.6196 87.2897 26.1489 87.2897H88.0142C96.1808 87.2897 102.801 80.6695 102.801 72.503C102.801 64.3364 96.1808 57.7162 88.0142 57.7162Z" fill="white" fill-opacity="0.85"/>
<path fill-rule="evenodd" clip-rule="evenodd" d="M95.3436 80.7572C95.069 80.7572 94.7981 80.7728 94.5313 80.8021C94.5313 80.7871 94.5318 80.7723 94.5318 80.7572C94.5318 72.6122 87.9418 66.0093 79.8127 66.0093C73.7854 66.0093 68.6051 69.6397 66.3289 74.8367C65.7515 74.7371 65.1582 74.6846 64.5525 74.6846C58.8143 74.6846 54.1625 79.3455 54.1625 85.0949C54.1625 90.8443 58.8143 95.5052 64.5525 95.5052H95.3436C99.4082 95.5052 102.703 92.2037 102.703 88.1312C102.703 84.0586 99.4082 80.7572 95.3436 80.7572Z" fill="#B7EE81"/>
<path fill-rule="evenodd" clip-rule="evenodd" d="M95.3436 80.7572C95.069 80.7572 94.7981 80.7728 94.5313 80.8021C94.5313 80.7871 94.5318 80.7723 94.5318 80.7572C94.5318 72.6122 87.9418 66.0093 79.8127 66.0093C73.7854 66.0093 68.6051 69.6397 66.3289 74.8367C65.7515 74.7371 65.1582 74.6846 64.5525 74.6846C58.8143 74.6846 54.1625 79.3455 54.1625 85.0949C54.1625 90.8443 58.8143 95.5052 64.5525 95.5052H95.3436C99.4082 95.5052 102.703 92.2037 102.703 88.1312C102.703 84.0586 99.4082 80.7572 95.3436 80.7572Z" fill="white" fill-opacity="0.85"/>
</svg>
