<svg width="120" height="113" viewBox="0 0 120 113" fill="none" xmlns="http://www.w3.org/2000/svg">
<g clip-path="url(#clip0_358_372)">
<path d="M82.147 25.5763L31.0473 56.0015C30.0392 56.6018 29.7085 57.9056 30.3088 58.9138L51.382 94.3066C51.9823 95.3148 53.2861 95.6454 54.2943 95.0452L105.394 64.6199C106.402 64.0197 106.733 62.7158 106.132 61.7077L85.0593 26.3148C84.459 25.3067 83.1551 24.976 82.147 25.5763Z" fill="#2A84C6"/>
<path d="M82.147 25.5763L31.0473 56.0015C30.0392 56.6018 29.7085 57.9056 30.3088 58.9138L51.382 94.3066C51.9823 95.3148 53.2861 95.6454 54.2943 95.0452L105.394 64.6199C106.402 64.0197 106.733 62.7158 106.132 61.7077L85.0593 26.3148C84.459 25.3067 83.1551 24.976 82.147 25.5763Z" fill="white" fill-opacity="0.85"/>
<path d="M91.0566 36.4447L36.3581 69.0127L39.7293 74.6747L94.4279 42.1067L91.0566 36.4447Z" fill="white"/>
<path d="M40.7597 55.5479L36.0787 58.335C35.7427 58.5351 35.6324 58.9697 35.8325 59.3057L37.4231 61.9771C37.6232 62.3132 38.0578 62.4234 38.3939 62.2233L43.0749 59.4362C43.4109 59.2361 43.5211 58.8015 43.321 58.4655L41.7305 55.7941C41.5304 55.458 41.0957 55.3478 40.7597 55.5479Z" fill="#2A84C6"/>
<path d="M40.7597 55.5479L36.0787 58.335C35.7427 58.5351 35.6324 58.9697 35.8325 59.3057L37.4231 61.9771C37.6232 62.3132 38.0578 62.4234 38.3939 62.2233L43.0749 59.4362C43.4109 59.2361 43.5211 58.8015 43.321 58.4655L41.7305 55.7941C41.5304 55.458 41.0957 55.3478 40.7597 55.5479Z" fill="white" fill-opacity="0.85"/>
</g>
<g clip-path="url(#clip1_358_372)">
<path d="M43.0863 13.8176L17.0431 67.2837C16.5293 68.3385 16.9679 69.6101 18.0228 70.1239L55.0546 88.162C56.1095 88.6759 57.3811 88.2373 57.8949 87.1824L83.9381 33.7163C84.4519 32.6615 84.0133 31.3899 82.9585 30.8761L45.9266 12.838C44.8717 12.3242 43.6001 12.7627 43.0863 13.8176Z" fill="#1443BD"/>
<path d="M43.0863 13.8176L17.0431 67.2837C16.5293 68.3385 16.9679 69.6101 18.0228 70.1239L55.0546 88.162C56.1095 88.6759 57.3811 88.2373 57.8949 87.1824L83.9381 33.7163C84.4519 32.6615 84.0133 31.3899 82.9585 30.8761L45.9266 12.838C44.8717 12.3242 43.6001 12.7627 43.0863 13.8176Z" fill="white" fill-opacity="0.5"/>
<path d="M74.6919 40.1417C75.0955 39.3131 74.0048 37.9508 72.2559 37.0989C70.5069 36.247 68.762 36.2281 68.3584 37.0566C67.9548 37.8852 69.0454 39.2475 70.7944 40.0994C72.5433 40.9513 74.2883 40.9702 74.6919 40.1417Z" fill="white"/>
<path d="M56.4967 18.0196L28.6193 75.2512L34.5435 78.1369L62.4209 20.9053L56.4967 18.0196Z" fill="white"/>
<path d="M52.3176 57.2414L42.9701 76.4317C42.7988 76.7833 42.945 77.2072 43.2966 77.3785L44.0697 77.755C44.4213 77.9263 44.8452 77.7801 45.0165 77.4285L54.364 58.2382C54.5353 57.8866 54.3891 57.4627 54.0375 57.2914L53.2644 56.9149C52.9128 56.7436 52.4889 56.8898 52.3176 57.2414Z" fill="white"/>
<path d="M54.5007 68.3526L49.1091 79.4215C48.9379 79.7731 49.084 80.1969 49.4357 80.3682L50.2087 80.7448C50.5603 80.916 50.9842 80.7698 51.1555 80.4182L56.5471 69.3494C56.7183 68.9978 56.5721 68.5739 56.2205 68.4027L55.4475 68.0261C55.0959 67.8548 54.672 68.001 54.5007 68.3526Z" fill="white"/>
<path d="M24.9164 61.5779L22.5308 66.4757C22.3595 66.8273 22.5057 67.2511 22.8573 67.4224L25.6524 68.7839C26.004 68.9552 26.4279 68.809 26.5992 68.4574L28.9849 63.5596C29.1561 63.208 29.0099 62.7841 28.6583 62.6129L25.8632 61.2514C25.5116 61.0801 25.0877 61.2263 24.9164 61.5779Z" fill="#1443BD"/>
<path d="M24.9164 61.5779L22.5308 66.4757C22.3595 66.8273 22.5057 67.2511 22.8573 67.4224L25.6524 68.7839C26.004 68.9552 26.4279 68.809 26.5992 68.4574L28.9849 63.5596C29.1561 63.208 29.0099 62.7841 28.6583 62.6129L25.8632 61.2514C25.5116 61.0801 25.0877 61.2263 24.9164 61.5779Z" fill="white" fill-opacity="0.5"/>
<path d="M70.7944 40.1003C69.5663 39.5037 68.6718 38.386 68.3587 37.057C66.1801 38.0587 65.152 40.5786 66.0081 42.8184C66.8642 45.0582 69.311 46.25 71.6023 45.5433C73.8937 44.8366 75.244 42.4737 74.6897 40.1407C73.4511 40.7132 72.0208 40.6983 70.7944 40.1003Z" fill="#2A84C6"/>
<path d="M70.7944 40.1003C69.5663 39.5037 68.6718 38.386 68.3587 37.057C66.1801 38.0587 65.152 40.5786 66.0081 42.8184C66.8642 45.0582 69.311 46.25 71.6023 45.5433C73.8937 44.8366 75.244 42.4737 74.6897 40.1407C73.4511 40.7132 72.0208 40.6983 70.7944 40.1003Z" fill="white" fill-opacity="0.5"/>
<path d="M68.6956 34.0136C68.2338 34.9582 68.1149 36.0339 68.3591 37.0565C69.5984 36.4866 71.0281 36.5026 72.2544 37.0999C73.4808 37.6973 74.3746 38.8131 74.69 40.1403C76.5127 39.3033 77.5728 37.3721 77.3005 35.385C77.0281 33.3979 75.4874 31.8232 73.5067 31.5075C71.526 31.1919 69.5721 32.2096 68.6956 34.0136Z" fill="#B7EE81"/>
<path d="M68.6956 34.0136C68.2338 34.9582 68.1149 36.0339 68.3591 37.0565C69.5984 36.4866 71.0281 36.5026 72.2544 37.0999C73.4808 37.6973 74.3746 38.8131 74.69 40.1403C76.5127 39.3033 77.5728 37.3721 77.3005 35.385C77.0281 33.3979 75.4874 31.8232 73.5067 31.5075C71.526 31.1919 69.5721 32.2096 68.6956 34.0136Z" fill="white" fill-opacity="0.2"/>
</g>
<path fill-rule="evenodd" clip-rule="evenodd" d="M37.034 46.5686C37.034 46.5686 34.262 50.8486 29.8756 53.1451C25.4894 55.4416 20.0855 54.7806 16.5415 52.5536C12.9972 50.3266 11.8042 48.4476 11.8042 48.4476L8.75136 50.1873C8.75136 50.1873 8.11972 50.5006 8.11972 49.7698V38.8437C8.11972 38.8437 8.11972 37.8695 8.85654 38.2174C9.47653 38.5102 16.1811 42.3246 18.2938 43.5281C19.4539 44.0459 18.4346 44.4663 18.4346 44.4663L15.4887 46.1511C15.4887 46.1511 17.1691 48.2566 19.6285 49.3718C22.261 50.744 24.7256 50.9069 27.7447 49.7664C29.6554 49.0448 31.8951 47.2302 33.5514 44.5526C33.634 44.4191 33.8119 44.3825 33.9417 44.4706L37.034 46.5686ZM9.6638 32.1285C9.6638 32.1285 12.4358 27.8485 16.8221 25.5519C21.2083 23.2555 26.6123 23.9166 30.1563 26.1435C33.7003 28.3705 34.8935 30.2495 34.8935 30.2495L37.9463 28.5097C37.9463 28.5097 38.578 28.1966 38.578 28.9273V39.8534C38.578 39.8534 38.578 40.8277 37.841 40.4797C37.221 40.187 30.5166 36.3725 28.404 35.1691C27.2438 34.6513 28.2631 34.2307 28.2631 34.2307L31.209 32.546C31.209 32.546 29.5287 30.4405 27.0692 29.3253C24.4367 27.9529 21.972 27.7902 18.953 28.9306C16.9844 29.6741 14.6666 31.578 12.9971 34.3902L9.6638 32.1285Z" fill="#1443BD"/>
<defs>
<clipPath id="clip0_358_372">
<rect width="75.5366" height="75.5366" fill="white" transform="translate(16.4529 47.1775) rotate(-30.77)"/>
</clipPath>
<clipPath id="clip1_358_372">
<rect width="75.5366" height="75.5366" fill="white" transform="translate(-3.05176e-05 67.9089) rotate(-64.0294)"/>
</clipPath>
</defs>
</svg>
