<svg width="255" height="270" viewBox="0 0 255 270" fill="none" xmlns="http://www.w3.org/2000/svg">
<path d="M167.872 78.7981H15.6313V144.351H167.872V78.7981Z" fill="#1443BD"/>
<path d="M167.872 78.7981H15.6313V144.351H167.872V78.7981Z" fill="black" fill-opacity="0.35"/>
<path d="M85.9713 23.0527L15.6995 78.792L163.884 82.626C164.203 82.6254 164.52 82.5898 164.831 82.5199C166.69 82.0536 167.987 80.7074 167.966 78.792L95.4541 22.8701C92.5717 20.995 88.8537 21.1776 85.9713 23.0527Z" fill="#1443BD"/>
<path d="M85.9713 23.0527L15.6995 78.792L163.884 82.626C164.203 82.6254 164.52 82.5898 164.831 82.5199C166.69 82.0536 167.987 80.7074 167.966 78.792L95.4541 22.8701C92.5717 20.995 88.8537 21.1776 85.9713 23.0527Z" fill="black" fill-opacity="0.35"/>
<path fill-rule="evenodd" clip-rule="evenodd" d="M58.5044 81.694L72.2737 69.344L81.6196 85.5123L58.5044 81.694Z" fill="#FFD666"/>
<path fill-rule="evenodd" clip-rule="evenodd" d="M125.502 92.7609L116.42 76.6363L103.12 89.0639L125.502 92.7609Z" fill="#FFA940"/>
<path fill-rule="evenodd" clip-rule="evenodd" d="M58.5043 81.694L85.3722 127.141L81.6301 85.514L58.5043 81.694Z" fill="#FFC53D"/>
<path fill-rule="evenodd" clip-rule="evenodd" d="M125.355 92.7367L85.3721 127.141L103.053 89.0528L125.355 92.7367Z" fill="#FA8C16"/>
<path fill-rule="evenodd" clip-rule="evenodd" d="M72.1566 69.3247L94.3912 72.9975L80.9223 85.3971L72.1566 69.3247Z" fill="#FFC53D"/>
<path fill-rule="evenodd" clip-rule="evenodd" d="M94.2444 72.9733L116.479 76.6461L103.091 89.059L94.2444 72.9733Z" fill="#FFC53D"/>
<path fill-rule="evenodd" clip-rule="evenodd" d="M80.8889 85.3717L94.3405 72.9891L103.123 89.0446L101.139 93.1089L81.5117 89.6768L80.8889 85.3717Z" fill="#FFA940"/>
<path fill-rule="evenodd" clip-rule="evenodd" d="M80.959 85.4032L85.3906 127.144L103.12 89.0639L80.959 85.4032Z" fill="#FAAD14"/>
<g clip-path="url(#clip0_309_1069)">
<path d="M80.6002 152.057C95.1388 158.644 112.296 152.131 118.922 137.508C125.548 122.885 119.134 105.691 104.595 99.1026C90.0569 92.5146 72.8995 99.0282 66.2734 113.651C59.6473 128.274 66.0616 145.469 80.6002 152.057Z" fill="#FFD666"/>
<path d="M82.7099 146.513C94.5207 151.865 108.434 146.629 113.786 134.818C119.138 123.007 113.902 109.094 102.091 103.742C90.28 98.3902 76.3669 103.626 71.015 115.437C65.663 127.248 70.8991 141.161 82.7099 146.513Z" fill="#FFC53D"/>
<path d="M86.2571 139.105C85.6299 138.821 85.1512 138.545 84.821 138.28L86.2803 135.059C85.1506 134.344 84.1661 133.549 83.3267 132.674C82.4873 131.799 81.8496 131.009 81.4137 130.302C81.6608 129.789 82.069 129.305 82.6384 128.851C83.2077 128.397 83.734 128.133 84.2172 128.062C84.7969 128.964 85.5306 129.864 86.4183 130.76C87.306 131.657 88.2717 132.349 89.3156 132.836C90.3409 133.301 91.2836 133.466 92.1437 133.333C93.0094 133.187 93.6313 132.713 94.0096 131.91C94.3222 131.252 94.3883 130.577 94.2078 129.885C94.0327 129.18 93.5639 128.466 92.8013 127.743L89.8571 124.904C88.75 123.85 87.9985 122.717 87.6026 121.505C87.2242 120.287 87.3328 119.02 87.9286 117.706C88.6118 116.198 89.6972 115.134 91.1847 114.514C92.6843 113.9 94.3211 113.849 96.0949 114.362L97.5296 111.196C97.7565 111.241 98.0081 111.311 98.2844 111.407C98.5728 111.509 98.8436 111.617 99.0969 111.732C99.6879 112 100.161 112.272 100.515 112.549L99.072 115.733C100.036 116.301 100.881 116.923 101.606 117.601C102.343 118.284 102.97 118.953 103.487 119.609C103.247 120.14 102.877 120.619 102.378 121.047C101.89 121.481 101.374 121.785 100.83 121.96C100.193 121.119 99.4889 120.363 98.7166 119.694C97.9563 119.029 97.148 118.503 96.2916 118.115C95.3026 117.667 94.4141 117.526 93.6263 117.692C92.8386 117.859 92.278 118.31 91.9446 119.046C91.6276 119.745 91.6162 120.38 91.9106 120.949C92.2105 121.507 92.6742 122.088 93.3018 122.692L96.0815 125.413C97.2632 126.559 98.0515 127.803 98.4465 129.145C98.8415 130.487 98.692 131.924 97.9979 133.456C97.2983 135 96.1592 136.054 94.5806 136.618C93.0074 137.17 91.2276 137.119 89.241 136.466L87.8063 139.632C87.4007 139.565 86.8843 139.389 86.2571 139.105Z" fill="white"/>
</g>
<g clip-path="url(#clip1_309_1069)">
<path d="M117.554 122.035C126.088 125.902 136.158 122.078 140.048 113.495C143.937 104.912 140.172 94.8198 131.638 90.953C123.105 87.0861 113.034 90.9093 109.145 99.4923C105.256 108.075 109.021 118.168 117.554 122.035Z" fill="#FFD666"/>
<path d="M118.793 118.781C125.725 121.922 133.891 118.849 137.033 111.916C140.174 104.984 137.101 96.8172 130.168 93.6758C123.236 90.5345 115.069 93.6078 111.928 100.54C108.787 107.473 111.86 115.639 118.793 118.781Z" fill="#FFC53D"/>
<path d="M120.875 114.433C120.507 114.266 120.226 114.104 120.032 113.948L120.888 112.058C120.225 111.638 119.647 111.171 119.155 110.658C118.662 110.144 118.288 109.68 118.032 109.266C118.177 108.965 118.416 108.681 118.751 108.414C119.085 108.147 119.394 107.993 119.677 107.951C120.018 108.48 120.448 109.008 120.969 109.535C121.49 110.061 122.057 110.467 122.67 110.753C123.272 111.026 123.825 111.123 124.33 111.045C124.838 110.959 125.203 110.681 125.425 110.21C125.609 109.823 125.647 109.427 125.541 109.021C125.439 108.607 125.163 108.188 124.716 107.763L122.988 106.097C122.338 105.478 121.897 104.813 121.664 104.102C121.442 103.387 121.506 102.644 121.856 101.872C122.257 100.987 122.894 100.363 123.767 99.9989C124.647 99.6383 125.608 99.6086 126.649 99.9097L127.491 98.0513C127.624 98.0775 127.772 98.1188 127.934 98.1752C128.103 98.2348 128.262 98.2983 128.411 98.3657C128.758 98.5229 129.035 98.6827 129.243 98.8453L128.396 100.714C128.962 101.047 129.458 101.413 129.884 101.811C130.316 102.212 130.685 102.604 130.988 102.989C130.847 103.301 130.63 103.582 130.337 103.834C130.051 104.088 129.748 104.266 129.428 104.369C129.055 103.876 128.641 103.432 128.188 103.039C127.742 102.649 127.267 102.34 126.765 102.112C126.184 101.849 125.663 101.767 125.2 101.864C124.738 101.962 124.409 102.227 124.213 102.659C124.027 103.069 124.02 103.442 124.193 103.776C124.369 104.103 124.641 104.444 125.01 104.799L126.641 106.396C127.335 107.068 127.798 107.799 128.029 108.586C128.261 109.374 128.173 110.218 127.766 111.117C127.355 112.023 126.687 112.642 125.76 112.973C124.837 113.297 123.792 113.267 122.626 112.884L121.784 114.742C121.546 114.703 121.243 114.599 120.875 114.433Z" fill="white"/>
</g>
<g clip-path="url(#clip2_309_1069)">
<path d="M61.5222 121.426C70.7121 119.604 76.6762 110.634 74.8435 101.391C73.0107 92.1479 64.0752 86.132 54.8853 87.9542C45.6955 89.7764 39.7313 98.7466 41.5641 107.99C43.3968 117.233 52.3324 123.249 61.5222 121.426Z" fill="#FFD666"/>
<path d="M60.6353 118.059C68.1009 116.579 72.953 109.327 71.4727 101.861C69.9924 94.3956 62.7403 89.5435 55.2747 91.0238C47.809 92.5041 42.9569 99.7562 44.4372 107.222C45.9175 114.688 53.1696 119.54 60.6353 118.059Z" fill="#FFC53D"/>
<path d="M59.7974 113.312C59.401 113.39 59.0785 113.423 58.8301 113.408L58.4264 111.373C57.6429 111.417 56.9013 111.374 56.2019 111.243C55.5024 111.113 54.928 110.953 54.4786 110.765C54.4213 110.436 54.4508 110.065 54.5674 109.654C54.6839 109.242 54.8452 108.937 55.0513 108.738C55.6363 108.97 56.2938 109.149 57.0237 109.274C57.7537 109.398 58.4511 109.399 59.1159 109.275C59.7639 109.146 60.2704 108.903 60.6353 108.546C60.9987 108.18 61.1336 107.742 61.0399 107.229C60.9644 106.809 60.7653 106.464 60.4426 106.195C60.1183 105.918 59.6507 105.738 59.0395 105.653L56.6644 105.304C55.7759 105.179 55.0302 104.895 54.4273 104.452C53.8305 104 53.4498 103.358 53.285 102.527C53.096 101.574 53.2507 100.695 53.7489 99.8913C54.2548 99.0857 55.0187 98.5024 56.0406 98.1413L55.6438 96.1399C55.7674 96.0837 55.9115 96.0314 56.0762 95.9829C56.2485 95.9329 56.4148 95.892 56.5749 95.8602C56.9485 95.7862 57.2671 95.7547 57.5308 95.7658L57.9299 97.7786C58.5839 97.7202 59.1997 97.7289 59.7774 97.8045C60.3626 97.8786 60.8906 97.9839 61.3614 98.1204C61.4279 98.4558 61.4151 98.811 61.323 99.1858C61.2386 99.5592 61.0963 99.8806 60.8962 100.15C60.305 99.9661 59.7107 99.8463 59.1133 99.7904C58.5234 99.733 57.9579 99.758 57.4165 99.8653C56.7914 99.9893 56.3192 100.226 56 100.574C55.6808 100.923 55.5674 101.329 55.6596 101.795C55.7473 102.237 55.9586 102.543 56.2937 102.715C56.6273 102.878 57.047 102.997 57.553 103.071L59.8092 103.42C60.7648 103.564 61.566 103.888 62.213 104.394C62.86 104.899 63.2795 105.636 63.4715 106.605C63.665 107.58 63.4814 108.473 62.9206 109.281C62.3583 110.082 61.4916 110.666 60.3203 111.033L60.7171 113.034C60.5004 113.141 60.1939 113.233 59.7974 113.312Z" fill="white"/>
</g>
<path d="M95.8398 137.064C93.3253 137.904 90.5648 137.549 88.3445 136.101L15.5172 78.7919V175.336C15.5172 177.474 17.6233 179.207 19.875 179.207H163.882C166.138 179.207 167.967 177.474 167.967 175.336V78.7919L98.4213 135.643C97.6504 136.264 96.7767 136.745 95.8398 137.064Z" fill="#2A84C6"/>
<path d="M95.8398 137.064C93.3253 137.904 90.5648 137.549 88.3445 136.101L15.5172 78.7919V175.336C15.5172 177.474 17.6233 179.207 19.875 179.207H163.882C166.138 179.207 167.967 177.474 167.967 175.336V78.7919L98.4213 135.643C97.6504 136.264 96.7767 136.745 95.8398 137.064Z" fill="white" fill-opacity="0.85"/>
<path fill-rule="evenodd" clip-rule="evenodd" d="M95.8398 137.064C93.3253 137.904 90.5648 137.549 88.3445 136.101L87.7625 135.643L15.5172 175.336C15.5172 177.474 17.6233 179.207 19.875 179.207H163.882C166.138 179.207 167.967 177.474 167.967 175.336L98.4213 135.643C97.6504 136.264 96.7767 136.745 95.8398 137.064Z" fill="#1443BD"/>
<path fill-rule="evenodd" clip-rule="evenodd" d="M95.8398 137.064C93.3253 137.904 90.5648 137.549 88.3445 136.101L87.7625 135.643L15.5172 175.336C15.5172 177.474 17.6233 179.207 19.875 179.207H163.882C166.138 179.207 167.967 177.474 167.967 175.336L98.4213 135.643C97.6504 136.264 96.7767 136.745 95.8398 137.064Z" fill="white" fill-opacity="0.85"/>
<g clip-path="url(#clip3_309_1069)" filter="url(#filter0_ddddd_309_1069)">
<path fill-rule="evenodd" clip-rule="evenodd" d="M113.904 81.368L113.397 78.0503L111.18 75.5304L111.18 75.5302L114.498 75.0232L117.018 72.8063L117.525 76.1242L119.742 78.6444L119.742 78.6445L116.424 79.1513L113.904 81.3681L113.904 81.3682L113.904 81.368Z" fill="white"/>
</g>
<g filter="url(#filter1_ddddd_309_1069)">
<ellipse cx="167.689" cy="142.846" rx="16.7941" ry="16.7941" fill="white"/>
<path d="M174.825 135.724C174.397 135.285 173.764 135.122 173.174 135.294L159.407 139.297C158.784 139.47 158.343 139.967 158.224 140.598C158.102 141.24 158.527 142.056 159.081 142.397L163.386 145.042C163.827 145.313 164.397 145.245 164.762 144.877L169.691 139.917C169.94 139.659 170.35 139.659 170.598 139.917C170.847 140.167 170.847 140.571 170.598 140.83L165.661 145.79C165.295 146.158 165.226 146.73 165.496 147.175L168.126 151.522C168.434 152.039 168.964 152.332 169.546 152.332C169.614 152.332 169.691 152.332 169.76 152.323C170.427 152.237 170.958 151.781 171.155 151.135L175.236 137.386C175.415 136.8 175.253 136.163 174.825 135.724Z" fill="#1443BD"/>
</g>
<defs>
<filter id="filter0_ddddd_309_1069" x="37.9127" y="39.5387" width="155.097" height="155.097" filterUnits="userSpaceOnUse" color-interpolation-filters="sRGB">
<feFlood flood-opacity="0" result="BackgroundImageFix"/>
<feColorMatrix in="SourceAlpha" type="matrix" values="0 0 0 0 0 0 0 0 0 0 0 0 0 0 0 0 0 0 127 0" result="hardAlpha"/>
<feOffset dy="6"/>
<feGaussianBlur stdDeviation="4"/>
<feColorMatrix type="matrix" values="0 0 0 0 0.705882 0 0 0 0 0.831373 0 0 0 0 0.921569 0 0 0 0.12 0"/>
<feBlend mode="normal" in2="BackgroundImageFix" result="effect1_dropShadow_309_1069"/>
<feColorMatrix in="SourceAlpha" type="matrix" values="0 0 0 0 0 0 0 0 0 0 0 0 0 0 0 0 0 0 127 0" result="hardAlpha"/>
<feOffset dy="8"/>
<feGaussianBlur stdDeviation="12"/>
<feColorMatrix type="matrix" values="0 0 0 0 0.705882 0 0 0 0 0.831373 0 0 0 0 0.921569 0 0 0 0.08 0"/>
<feBlend mode="normal" in2="effect1_dropShadow_309_1069" result="effect2_dropShadow_309_1069"/>
<feColorMatrix in="SourceAlpha" type="matrix" values="0 0 0 0 0 0 0 0 0 0 0 0 0 0 0 0 0 0 127 0" result="hardAlpha"/>
<feOffset dy="16"/>
<feGaussianBlur stdDeviation="18"/>
<feColorMatrix type="matrix" values="0 0 0 0 0.705882 0 0 0 0 0.831373 0 0 0 0 0.921569 0 0 0 0.04 0"/>
<feBlend mode="normal" in2="effect2_dropShadow_309_1069" result="effect3_dropShadow_309_1069"/>
<feColorMatrix in="SourceAlpha" type="matrix" values="0 0 0 0 0 0 0 0 0 0 0 0 0 0 0 0 0 0 127 0" result="hardAlpha"/>
<feOffset dy="40"/>
<feGaussianBlur stdDeviation="35"/>
<feColorMatrix type="matrix" values="0 0 0 0 0.705882 0 0 0 0 0.831373 0 0 0 0 0.921569 0 0 0 0.04 0"/>
<feBlend mode="normal" in2="effect3_dropShadow_309_1069" result="effect4_dropShadow_309_1069"/>
<feColorMatrix in="SourceAlpha" type="matrix" values="0 0 0 0 0 0 0 0 0 0 0 0 0 0 0 0 0 0 127 0" result="hardAlpha"/>
<feOffset dy="2"/>
<feGaussianBlur stdDeviation="2"/>
<feColorMatrix type="matrix" values="0 0 0 0 0.87451 0 0 0 0 0.929412 0 0 0 0 0.964706 0 0 0 0.4 0"/>
<feBlend mode="normal" in2="effect4_dropShadow_309_1069" result="effect5_dropShadow_309_1069"/>
<feBlend mode="normal" in="SourceGraphic" in2="effect5_dropShadow_309_1069" result="shape"/>
</filter>
<filter id="filter1_ddddd_309_1069" x="80.8944" y="96.0519" width="173.588" height="173.588" filterUnits="userSpaceOnUse" color-interpolation-filters="sRGB">
<feFlood flood-opacity="0" result="BackgroundImageFix"/>
<feColorMatrix in="SourceAlpha" type="matrix" values="0 0 0 0 0 0 0 0 0 0 0 0 0 0 0 0 0 0 127 0" result="hardAlpha"/>
<feOffset dy="6"/>
<feGaussianBlur stdDeviation="4"/>
<feColorMatrix type="matrix" values="0 0 0 0 0.0392157 0 0 0 0 0.129412 0 0 0 0 0.372549 0 0 0 0.12 0"/>
<feBlend mode="normal" in2="BackgroundImageFix" result="effect1_dropShadow_309_1069"/>
<feColorMatrix in="SourceAlpha" type="matrix" values="0 0 0 0 0 0 0 0 0 0 0 0 0 0 0 0 0 0 127 0" result="hardAlpha"/>
<feOffset dy="8"/>
<feGaussianBlur stdDeviation="12"/>
<feColorMatrix type="matrix" values="0 0 0 0 0.0392157 0 0 0 0 0.129412 0 0 0 0 0.372549 0 0 0 0.08 0"/>
<feBlend mode="normal" in2="effect1_dropShadow_309_1069" result="effect2_dropShadow_309_1069"/>
<feColorMatrix in="SourceAlpha" type="matrix" values="0 0 0 0 0 0 0 0 0 0 0 0 0 0 0 0 0 0 127 0" result="hardAlpha"/>
<feOffset dy="16"/>
<feGaussianBlur stdDeviation="18"/>
<feColorMatrix type="matrix" values="0 0 0 0 0.0392157 0 0 0 0 0.129412 0 0 0 0 0.372549 0 0 0 0.04 0"/>
<feBlend mode="normal" in2="effect2_dropShadow_309_1069" result="effect3_dropShadow_309_1069"/>
<feColorMatrix in="SourceAlpha" type="matrix" values="0 0 0 0 0 0 0 0 0 0 0 0 0 0 0 0 0 0 127 0" result="hardAlpha"/>
<feOffset dy="40"/>
<feGaussianBlur stdDeviation="35"/>
<feColorMatrix type="matrix" values="0 0 0 0 0.0392157 0 0 0 0 0.129412 0 0 0 0 0.372549 0 0 0 0.04 0"/>
<feBlend mode="normal" in2="effect3_dropShadow_309_1069" result="effect4_dropShadow_309_1069"/>
<feColorMatrix in="SourceAlpha" type="matrix" values="0 0 0 0 0 0 0 0 0 0 0 0 0 0 0 0 0 0 127 0" result="hardAlpha"/>
<feOffset dy="2"/>
<feGaussianBlur stdDeviation="2"/>
<feColorMatrix type="matrix" values="0 0 0 0 0.537255 0 0 0 0 0.631373 0 0 0 0 0.870588 0 0 0 0.4 0"/>
<feBlend mode="normal" in2="effect4_dropShadow_309_1069" result="effect5_dropShadow_309_1069"/>
<feBlend mode="normal" in="SourceGraphic" in2="effect5_dropShadow_309_1069" result="shape"/>
</filter>
<clipPath id="clip0_309_1069">
<rect width="68.1032" height="68.1032" fill="white" transform="translate(75.051 79.0277) rotate(24.3769)"/>
</clipPath>
<clipPath id="clip1_309_1069">
<rect width="39.9738" height="39.9738" fill="white" transform="translate(114.297 79.1699) rotate(24.3769)"/>
</clipPath>
<clipPath id="clip2_309_1069">
<rect width="39.9737" height="39.9737" fill="white" transform="translate(33.9257 88.4651) rotate(-11.2152)"/>
</clipPath>
<clipPath id="clip3_309_1069">
<rect width="11.78" height="11.78" fill="white" transform="matrix(0.939764 0.341825 0.341824 -0.939764 107.913 80.6091)"/>
</clipPath>
</defs>
</svg>
