<svg width="277" height="206" viewBox="0 0 277 206" fill="none" xmlns="http://www.w3.org/2000/svg">
<path fill-rule="evenodd" clip-rule="evenodd" d="M179.936 41.0778H20.1172V26.7574C20.1172 23.651 22.6358 21.1324 25.7422 21.1324H174.311C177.417 21.1324 179.936 23.651 179.936 26.7574V41.0778Z" fill="#1443BD"/>
<path fill-rule="evenodd" clip-rule="evenodd" d="M179.936 41.0778H20.1172V26.7574C20.1172 23.651 22.6358 21.1324 25.7422 21.1324H174.311C177.417 21.1324 179.936 23.651 179.936 26.7574V41.0778Z" fill="black" fill-opacity="0.5"/>
<path fill-rule="evenodd" clip-rule="evenodd" d="M174.311 178.961H25.7422C22.6358 178.961 20.1172 176.442 20.1172 173.336V39.4009H179.936V173.336C179.936 176.442 177.417 178.961 174.311 178.961Z" fill="#2A84C6"/>
<path fill-rule="evenodd" clip-rule="evenodd" d="M174.311 178.961H25.7422C22.6358 178.961 20.1172 176.442 20.1172 173.336V39.4009H179.936V173.336C179.936 176.442 177.417 178.961 174.311 178.961Z" fill="white" fill-opacity="0.85"/>
<path fill-rule="evenodd" clip-rule="evenodd" d="M33.105 30.415C33.105 32.3646 31.5244 33.9452 29.5747 33.9452C27.6251 33.9452 26.0447 32.3646 26.0447 30.415C26.0447 28.4655 27.6251 26.8849 29.5747 26.8849C31.5244 26.8849 33.105 28.4655 33.105 30.415Z" fill="#F56D7E"/>
<path fill-rule="evenodd" clip-rule="evenodd" d="M46.2884 30.415C46.2884 32.3646 44.708 33.9452 42.7583 33.9452C40.8087 33.9452 39.2283 32.3646 39.2283 30.415C39.2283 28.4655 40.8087 26.8849 42.7583 26.8849C44.708 26.8849 46.2884 28.4655 46.2884 30.415Z" fill="#F1F380"/>
<path fill-rule="evenodd" clip-rule="evenodd" d="M59.472 30.415C59.472 32.3646 57.8916 33.9452 55.9419 33.9452C53.9923 33.9452 52.4119 32.3646 52.4119 30.415C52.4119 28.4655 53.9923 26.8849 55.9419 26.8849C57.8916 26.8849 59.472 28.4655 59.472 30.415Z" fill="#B7EE81"/>
<path fill-rule="evenodd" clip-rule="evenodd" d="M37.3905 159.977C36.4209 159.977 35.6353 159.192 35.6353 158.223V56.5499C35.6353 55.5813 36.4209 54.796 37.3905 54.796H164.408C165.377 54.796 166.163 55.5813 166.163 56.5499V158.223C166.163 159.192 165.377 159.977 164.408 159.977H37.3905Z" fill="white"/>
<path fill-rule="evenodd" clip-rule="evenodd" d="M88.6878 104.101H62.1713C60.182 104.101 58.5545 102.474 58.5545 100.484V73.9679C58.5545 71.9787 60.182 70.3512 62.1713 70.3512H88.6878C90.6771 70.3512 92.3045 71.9787 92.3045 73.9679V100.484C92.3045 102.474 90.6771 104.101 88.6878 104.101Z" fill="#1443BD"/>
<path fill-rule="evenodd" clip-rule="evenodd" d="M88.6694 150.039H62.1897C60.1903 150.039 58.5545 148.403 58.5545 146.404V119.924C58.5545 117.925 60.1903 116.289 62.1897 116.289H88.6694C90.6687 116.289 92.3045 117.925 92.3045 119.924V146.404C92.3045 148.403 90.6687 150.039 88.6694 150.039Z" fill="#B7EE81"/>
<path fill-rule="evenodd" clip-rule="evenodd" d="M136.482 150.039H110.002C108.003 150.039 106.367 148.403 106.367 146.404V119.924C106.367 117.925 108.003 116.289 110.002 116.289H136.482C138.481 116.289 140.117 117.925 140.117 119.924V146.404C140.117 148.403 138.481 150.039 136.482 150.039Z" fill="#1443BD"/>
<g filter="url(#filter0_ddddd_309_1051)">
<rect x="114.655" y="70.6896" width="91.3793" height="25" rx="12.5" fill="white"/>
</g>
<path fill-rule="evenodd" clip-rule="evenodd" d="M192.688 100.405C192.687 100.372 192.692 100.338 192.703 100.304C192.735 100.199 192.82 100.115 192.929 100.082L198.71 98.2984C198.978 98.2159 199.016 97.9851 199.022 97.9164C199.027 97.8475 199.025 97.614 198.773 97.4935L182.928 89.914C182.772 89.839 182.596 89.856 182.457 89.9592C182.319 90.0623 182.256 90.2229 182.29 90.3892L185.786 107.487C185.841 107.753 186.071 107.816 186.14 107.83C186.209 107.843 186.447 107.868 186.601 107.641L190.042 102.549C190.104 102.458 190.207 102.402 190.319 102.398C190.431 102.395 190.538 102.444 190.605 102.53L196.152 109.632C196.21 109.706 196.317 109.721 196.395 109.668L198.72 108.063C198.774 108.026 198.789 107.974 198.793 107.947C198.796 107.92 198.797 107.866 198.755 107.816L192.764 100.611C192.715 100.552 192.689 100.479 192.688 100.405Z" fill="#1443BD"/>
<defs>
<filter id="filter0_ddddd_309_1051" x="44.6552" y="40.6896" width="231.379" height="165" filterUnits="userSpaceOnUse" color-interpolation-filters="sRGB">
<feFlood flood-opacity="0" result="BackgroundImageFix"/>
<feColorMatrix in="SourceAlpha" type="matrix" values="0 0 0 0 0 0 0 0 0 0 0 0 0 0 0 0 0 0 127 0" result="hardAlpha"/>
<feOffset dy="6"/>
<feGaussianBlur stdDeviation="4"/>
<feColorMatrix type="matrix" values="0 0 0 0 0.0392157 0 0 0 0 0.129412 0 0 0 0 0.372549 0 0 0 0.12 0"/>
<feBlend mode="normal" in2="BackgroundImageFix" result="effect1_dropShadow_309_1051"/>
<feColorMatrix in="SourceAlpha" type="matrix" values="0 0 0 0 0 0 0 0 0 0 0 0 0 0 0 0 0 0 127 0" result="hardAlpha"/>
<feOffset dy="8"/>
<feGaussianBlur stdDeviation="12"/>
<feColorMatrix type="matrix" values="0 0 0 0 0.0392157 0 0 0 0 0.129412 0 0 0 0 0.372549 0 0 0 0.08 0"/>
<feBlend mode="normal" in2="effect1_dropShadow_309_1051" result="effect2_dropShadow_309_1051"/>
<feColorMatrix in="SourceAlpha" type="matrix" values="0 0 0 0 0 0 0 0 0 0 0 0 0 0 0 0 0 0 127 0" result="hardAlpha"/>
<feOffset dy="16"/>
<feGaussianBlur stdDeviation="18"/>
<feColorMatrix type="matrix" values="0 0 0 0 0.0392157 0 0 0 0 0.129412 0 0 0 0 0.372549 0 0 0 0.04 0"/>
<feBlend mode="normal" in2="effect2_dropShadow_309_1051" result="effect3_dropShadow_309_1051"/>
<feColorMatrix in="SourceAlpha" type="matrix" values="0 0 0 0 0 0 0 0 0 0 0 0 0 0 0 0 0 0 127 0" result="hardAlpha"/>
<feOffset dy="40"/>
<feGaussianBlur stdDeviation="35"/>
<feColorMatrix type="matrix" values="0 0 0 0 0.0392157 0 0 0 0 0.129412 0 0 0 0 0.372549 0 0 0 0.04 0"/>
<feBlend mode="normal" in2="effect3_dropShadow_309_1051" result="effect4_dropShadow_309_1051"/>
<feColorMatrix in="SourceAlpha" type="matrix" values="0 0 0 0 0 0 0 0 0 0 0 0 0 0 0 0 0 0 127 0" result="hardAlpha"/>
<feOffset dy="2"/>
<feGaussianBlur stdDeviation="2"/>
<feColorMatrix type="matrix" values="0 0 0 0 0.537255 0 0 0 0 0.631373 0 0 0 0 0.870588 0 0 0 0.4 0"/>
<feBlend mode="normal" in2="effect4_dropShadow_309_1051" result="effect5_dropShadow_309_1051"/>
<feBlend mode="normal" in="SourceGraphic" in2="effect5_dropShadow_309_1051" result="shape"/>
</filter>
</defs>
</svg>
